{
DisplayStrings = (
"/commaaccent.alt \U00B4/breve/caron/circumflex \U00A8i/dotaccent \U00F6`/hungarumlaut \U00AF/ring/tilde",
"\U00F3\U00F4\U00F6i\U00F2/ohungarumlaut/omacron",
nt,
"/two.offenbach 015\0120151/slash/two.offenbach 3 05 91 73",
Ty,
".,-"
);
classes = (
{
automatic = 1;
code = "A Aacute Abreve Acircumflex Adieresis Agrave Amacron Aogonek Aring Atilde AE B C Cacute Ccaron Ccedilla D Eth Dcaron Dcroat E Eacute Ecaron Ecircumflex Edieresis Edotaccent Egrave Emacron Eogonek F G Gbreve Gcommaaccent H Hbar I IJ Iacute Icircumflex Idieresis Idotaccent Igrave Imacron Iogonek Itilde J Jcircumflex K Kcommaaccent L Lacute Lcaron Lcommaaccent Ldot Lslash M N Nacute Ncaron Ncommaaccent Ntilde O Oacute Ocircumflex Odieresis Ograve Ohungarumlaut Omacron Oslash Otilde OE P Thorn Q R Racute Rcaron Rcommaaccent S Sacute Scaron Scedilla Scommaaccent T Tcaron Tcommaaccent U Uacute Ucircumflex Udieresis Ugrave Uhungarumlaut Umacron Uogonek Uring V W X Y Yacute Ydieresis Z Zacute Zcaron Zdotaccent Omega";
name = Uppercase;
},
{
automatic = 1;
code = "k-deva kh-deva g-deva gh-deva ng-deva c-deva ch-deva j-deva jh-deva ny-deva tt-deva tth-deva dd-deva ddh-deva nn-deva t-deva th-deva d-deva dh-deva n-deva nnn-deva p-deva ph-deva b-deva bh-deva m-deva y-deva rr-deva l-deva ll-deva lll-deva v-deva sh-deva ss-deva s-deva h-deva q-deva khh-deva ghh-deva z-deva f-deva l-deva.loclMAR sh-deva.loclMAR jh-deva.loclNEP";
name = DevaHalfforms;
},
{
automatic = 1;
code = "iMatra-deva iMatra-deva.0 iMatra-deva.05 iMatra-deva.10";
name = DevaIMatras;
},
{
automatic = 1;
code = "iMatra_reph-deva iMatra_reph-deva.0 iMatra_reph-deva.05 iMatra_reph-deva.10";
name = DevaIMatraRephs;
},
{
automatic = 1;
code = "iMatra_reph_anusvara-deva iMatra_reph_anusvara-deva.0 iMatra_reph_anusvara-deva.05 iMatra_reph_anusvara-deva.10";
name = DevaIMatraRephAnusvaras;
},
{
automatic = 1;
code = "iMatra_anusvara-deva iMatra_anusvara-deva.0 iMatra_anusvara-deva.05 iMatra_anusvara-deva.10";

glyphs = (
{
glyphname = A;
lastChange = "2015-03-04 20:31:46 +0000";
layers = (
{
anchors = (
{
name = bottom;
position = "{550, -10}";
},
{
name = top;
position = "{315, 730}";
}
);
layerId = "E777F328-EA17-4AE7-9EBA-8002E537BA4F";
name = Light;
paths = (
{
closed = 1;
nodes = (
"80 0 LINE",
"317 619 LINE",
"309 619 LINE",
"547 0 LINE",
"604 0 LINE",
"338 689 LINE",
"290 689 LINE",
"25 0 LINE"
);
},
{
closed = 1;
nodes = (
"474 234 LINE",
"474 280 LINE",
"154 280 LINE",
"154 234 LINE"
);
}
);
width = 629;
},
{
anchors = (
{
name = bottom;
position = "{575, -10}";
},
{
name = top;
position = "{352, 730}";
}
);
guideLines = (
{
angle = 90;
position = "{352, 408}";
}
);
layerId = "AE81D269-4BA9-4AA4-8188-ACE3070EB296";
name = Bold;
paths = (
{
closed = 1;
nodes = (
"186 0 LINE",
"389 619 LINE",
"315 619 LINE",
"519 0 LINE",
"702 0 LINE",
"440 689 LINE",
"266 689 LINE",
"5 0 LINE"
);
},
{
closed = 1;
nodes = (
"513 157 LINE",
"513 280 LINE",
"193 280 LINE",
"193 157 LINE"
);
}
);
width = 707;
}
);
leftKerningGroup = A;
rightKerningGroup = A;
unicode = 0041;
userData = {
com.typemytype.robofont.layerData = {
background = {
anchors = (
);
components = (
);
contours = (
{
points = (
{
segmentType = line;
smooth = 0;
x = "-96";
y = 57;
},
{
segmentType = line;
smooth = 0;
x = "-361";
y = 690;
},
{
segmentType = line;
smooth = 0;
x = "-444";
y = 659;
},
{
segmentType = line;
smooth = 0;
x = "-683";
y = 70;
},
{
segmentType = line;
smooth = 0;
x = "-737";
y = 31;
},
{
segmentType = line;
smooth = 0;
x = "-737";
y = 0;
},
{
segmentType = line;
smooth = 0;
x = "-508";
y = 0;
},
{
segmentType = line;
smooth = 0;
x = "-508";
y = 38;
},
{
segmentType = line;
smooth = 0;
x = "-620";
y = 57;
},
{
segmentType = line;
smooth = 0;
x = "-556";
y = 230;
},
{
segmentType = line;
smooth = 0;
x = "-286";
y = 230;
},
{
segmentType = line;
smooth = 0;
x = "-221";
y = 70;
},
{
segmentType = line;
smooth = 0;
x = "-325";
y = 31;
},
{
segmentType = line;
smooth = 0;
x = "-325";
y = 0;
},
{
segmentType = line;
smooth = 0;
x = "-42";
y = 0;
},
{
segmentType = line;
smooth = 0;
x = "-42";
y = 38;
}
);
},
{
points = (
{
segmentType = line;
smooth = 0;
x = "-425";
y = 575;
},
{
segmentType = line;
smooth = 0;
x = "-308";
y = 284;
},
{
segmentType = line;
smooth = 0;
x = "-536";
y = 284;
},
{
segmentType = line;
smooth = 0;
x = "-428";
y = 575;
}
);
},
{
points = (
{
segmentType = line;
smooth = 0;
x = 637;
y = 57;
},
{
segmentType = line;
smooth = 0;
x = 372;
y = 690;
},
{
segmentType = line;
smooth = 0;
x = 289;
y = 659;
},
{
segmentType = line;
smooth = 0;
x = 50;
y = 70;
},
{
segmentType = line;
smooth = 0;
x = "-4";
y = 31;
},
{
segmentType = line;
smooth = 0;
x = "-4";
y = 0;
},
{
segmentType = line;
smooth = 0;
x = 225;
y = 0;
},
{
segmentType = line;
smooth = 0;
x = 225;
y = 38;
},
{
segmentType = line;
smooth = 0;
x = 113;
y = 57;
},
{
segmentType = line;
smooth = 0;
x = 177;
y = 230;
},
{
segmentType = line;
smooth = 0;
x = 447;
y = 230;
},
{
segmentType = line;
smooth = 0;
x = 512;
y = 70;
},
{
segmentType = line;
smooth = 0;
x = 408;
y = 31;
},
{
segmentType = line;
smooth = 0;
x = 408;
y = 0;
},
{
segmentType = line;
smooth = 0;
x = 691;
y = 0;
},
{
segmentType = line;
smooth = 0;
x = 691;
y = 38;
}
);
},
{
points = (
{
segmentType = line;
smooth = 0;
x = 308;
y = 575;
},
{
segmentType = line;
smooth = 0;
x = 425;
y = 284;
},
{
segmentType = line;
smooth = 0;
x = 197;
y = 284;
},
{
segmentType = line;
smooth = 0;
x = 305;
y = 575;
}
);
}
);
lib = {
};
name = A;
unicodes = (
);
width = 629;
};
layer_01 = {
anchors = (
);
components = (
);
contours = (
);
lib = {
};
name = A;
unicodes = (
);
width = 629;
};
layer_02 = {
anchors = (
);
components = (
);
contours = (
);
lib = {
};
name = A;
unicodes = (
);
width = 629;
};
};
};
},
{
glyphname = AE;
lastChange = "2015-03-04 20:31:46 +0000";
layers = (
{
anchors = (
{
name = top;
position = "{550, 730}";
}
);
layerId = "E777F328-EA17-4AE7-9EBA-8002E537BA4F";
name = Light;
paths = (
{
closed = 1;
nodes = (
"90 0 LINE",
"553 680 LINE",
"495 680 LINE",
"25 0 LINE"
);
},
{
closed = 1;
nodes = (
"919 0 LINE",
"919 46 LINE",
"549 46 LINE",
"549 0 LINE"
);
},
{
closed = 1;
nodes = (
"576 0 LINE",
"576 680 LINE",
"520 680 LINE",
"520 0 LINE"
);
},
{
closed = 1;
nodes = (
"534 307 LINE",
"556 307 LINE",
"859 307 LINE",
"859 353 LINE",
"554.99 353 LINE",
"533 353 LINE",
"289 353 LINE",
"289 307 LINE"
);
},
{
closed = 1;
nodes = (
"899 634 LINE",
"899 680 LINE",
"539 680 LINE",
"539 634 LINE"
);
}
);
width = 979;
},
{
anchors = (
{
name = top;
position = "{592, 730}";
}
);
layerId = "AE81D269-4BA9-4AA4-8188-ACE3070EB296";
name = Bold;
paths = (
{
closed = 1;
nodes = (
"166 0 LINE",
"562 680 LINE",
"405 680 LINE",
"-15 0 LINE"
);
},
{
closed = 1;
nodes = (
"963 0 LINE",
"963 125 LINE",
"593 125 LINE",
"593 0 LINE"
);
},
{
closed = 1;
nodes = (
"682 0 LINE",
"682 680 LINE",
"502 680 LINE",
"502 0 LINE"
);
},
{
closed = 1;
nodes = (
"535 217 LINE",
"592 282 LINE",
"903 282 LINE",
"903 407 LINE",
"613 407 LINE",
"541 342 LINE",
"293 342 LINE",
"293 217 LINE"
);
},
{
closed = 1;
nodes = (
"943 555 LINE",
"943 680 LINE",
"593 680 LINE",
"593 555 LINE"
);
}
);
width = 1013;
}
);
leftKerningGroup = AE;
rightKerningGroup = E;
unicode = 00C6;
userData = {
com.typemytype.robofont.layerData = {
background = {
anchors = (
);
components = (
);
contours = (
);
lib = {
};
name = AE;
unicodes = (
);
width = 979;
};
layer_01 = {
anchors = (
);
components = (
);
contours = (
);
lib = {
};
name = AE;
unicodes = (
);
width = 979;
};
layer_02 = {
anchors = (
);
components = (
);
contours = (
);
lib = {
};
name = AE;
unicodes = (
);
width = 979;
};
};
};
},
{
glyphname = B;
lastChange = "2015-03-04 20:31:46 +0000";
layers = (
{
layerId = "E777F328-EA17-4AE7-9EBA-8002E537BA4F";
name = Light;
paths = (
{
closed = 1;
nodes = (
"330 0 LINE",
"481 0 OFFCURVE",
"558 83 OFFCURVE",
"558 189 CURVE",
"558 292 OFFCURVE",
"488 365 OFFCURVE",
"350 365 CURVE",
"149 365 LINE",
"149 334 LINE",
"330 334 LINE",
"441 334 OFFCURVE",
"502 286 OFFCURVE",
"502 190 CURVE",
"502 104 OFFCURVE",
"441 46 OFFCURVE",
"330 46 CURVE",
"149 46 LINE",
"149 0 LINE"
);
},
{
closed = 1;
nodes = (
"176 0 LINE",
"176 680 LINE",
"120 680 LINE",
"120 0 LINE"
);
},
{
closed = 1;
nodes = (
"350 349 LINE",
"468 349 OFFCURVE",
"528 418 OFFCURVE",
"528 504 CURVE",
"528 607 OFFCURVE",
"461 680 OFFCURVE",
"330 680 CURVE",
"149 680 LINE",
"149 634 LINE",
"330 634 LINE",
"422 634 OFFCURVE",
"472 591 OFFCURVE",
"472 505 CURVE",
"472 430 OFFCURVE",
"422 380 OFFCURVE",
"330 380 CURVE",
"149 380 LINE",
"149 349 LINE"
);
}
);
width = 608;
},
{
layerId = "AE81D269-4BA9-4AA4-8188-ACE3070EB296";
name = Bold;
paths = (
{
closed = 1;
nodes = (
"362 0 LINE",
"552 0 OFFCURVE",
"652 61 OFFCURVE",
"652 184 CURVE",
"652 291 OFFCURVE",
"571 367 OFFCURVE",
"412 367 CURVE",
"181 367 LINE",
"181 297 LINE",
"362 297 LINE",
"431 297 OFFCURVE",
"472 273 OFFCURVE",
"472 211 CURVE",
"472 149 OFFCURVE",
"431 125 OFFCURVE",
"362 125 CURVE",
"181 125 LINE",
"181 0 LINE"
);
},
{
closed = 1;
nodes = (
"270 0 LINE",
"270 680 LINE",
"90 680 LINE",
"90 0 LINE"
);
},
{
closed = 1;
nodes = (
"412 351 LINE",
"551 351 OFFCURVE",
"622 423 OFFCURVE",
"622 514 CURVE SMOOTH",
"622 632 OFFCURVE",
"532 680 OFFCURVE",
"362 680 CURVE",
"181 680 LINE",
"181 555 LINE",
"362 555 LINE",
"411 555 OFFCURVE",
"442 541 OFFCURVE",
"442 491 CURVE",
"442 441 OFFCURVE",
"411 422 OFFCURVE",
"362 422 CURVE",
"181 422 LINE",
"181 351 LINE"
);
}
);
width = 692;
}
);
leftKerningGroup = StraightsUC;
rightKerningGroup = B;
unicode = 0042;
userData = {
com.typemytype.robofont.layerData = {
background = {
anchors = (
);
components = (
);
contours = (
{
points = (
{
segmentType = line;
smooth = 0;
x = 393;
y = 365;
},
{
smooth = 0;
x = 489;
y = 387;
},
{
smooth = 0;
x = 550;
y = 439;
},
{
segmentType = curve;
smooth = 1;
x = 550;
y = 525;
},
{
smooth = 0;
x = 550;
y = 651;
},
{
smooth = 0;
x = 444;
y = 688;
},
{
segmentType = curve;
smooth = 1;
x = 289;
y = 688;
},
{
smooth = 0;
x = 252;
y = 688;
},
{
smooth = 0;
x = 200;
y = 685;
},
{
segmentType = curve;
smooth = 1;
x = 156;
y = 683;
},
{
smooth = 0;
x = 107;
y = 681;
},
{
smooth = 0;
x = 46;
y = 680;
},
{
segmentType = curve;
smooth = 0;
x = "-13";
y = 680;
},
{
segmentType = line;
smooth = 0;
x = "-13";
y = 649;
},
{
segmentType = line;
smooth = 0;
x = 91;
y = 610;
},
{
segmentType = line;
smooth = 0;
x = 91;
y = 70;
},
{
segmentType = line;
smooth = 0;
x = "-13";
y = 31;
},
{
segmentType = line;
smooth = 0;
x = "-13";
y = 0;
},
{
segmentType = line;
smooth = 1;
x = 275;
y = 0;
},
{
smooth = 0;
x = 486;
y = 0;
},
{
smooth = 0;
x = 597;
y = 62;
},
{
segmentType = curve;
smooth = 1;
x = 597;
y = 196;
},
{
smooth = 0;
x = 597;
y = 288;
},
{
smooth = 0;
x = 508;
y = 351;
},
{
segmentType = curve;
smooth = 0;
x = 393;
y = 363;
}
);
},
{
points = (
{
segmentType = line;
smooth = 0;
x = 206;
y = 45;
},
{
segmentType = line;
smooth = 0;
x = 206;
y = 338;
},
{
segmentType = line;
smooth = 1;
x = 245;
y = 338;
},
{
smooth = 0;
x = 414;
y = 338;
},
{
smooth = 0;
x = 464;
y = 257;
},
{
segmentType = curve;
smooth = 1;
x = 464;
y = 170;
},
{
smooth = 0;
x = 464;
y = 61;
},
{
smooth = 0;
x = 371;
y = 46;
},
{
segmentType = curve;
smooth = 1;
x = 301;
y = 46;
}
);
},
{
points = (
{
segmentType = line;
smooth = 0;
x = 206;
y = 638;
},
{
smooth = 0;
x = 218;
y = 640;
},
{
smooth = 0;
x = 254;
y = 642;
},
{
segmentType = curve;
smooth = 1;
x = 275;
y = 642;
},
{
smooth = 0;
x = 375;
y = 642;
},
{
smooth = 0;
x = 415;
y = 581;
},
{
segmentType = curve;
smooth = 1;
x = 415;
y = 501;
},
{
smooth = 0;
x = 415;
y = 429;
},
{
smooth = 0;
x = 375;
y = 383;
},
{
segmentType = curve;
smooth = 1;
x = 253;
y = 383;
},
{
segmentType = line;
smooth = 0;
x = 206;
y = 383;
}
);
}
);
lib = {
};
name = B;
unicodes = (
);
width = 608;
};
layer_01 = {
anchors = (
);
components = (
);
contours = (
);
lib = {
};
name = B;
unicodes = (
);
width = 608;
};
layer_02 = {
anchors = (
);
components = (
);
contours = (
);
lib = {
};
name = B;
unicodes = (
);
width = 608;
};
};
};
},
{
glyphname = C;
lastChange = "2015-03-04 20:31:46 +0000";
layers = (
{
anchors = (
{
name = bottom;
position = "{395, -10}";
},
{
name = top;
position = "{389, 730}";
}
);
layerId = "E777F328-EA17-4AE7-9EBA-8002E537BA4F";
name = Light;
paths = (
{
closed = 1;
nodes = (
"508 -16 OFFCURVE",
"593 45 OFFCURVE",
"648 113 CURVE",
"614 146 LINE",
"562 81 OFFCURVE",
"491 30 OFFCURVE",
"387 30 CURVE",
"210 30 OFFCURVE",
"116 164 OFFCURVE",
"116 340 CURVE",
"116 513 OFFCURVE",
"214 647 OFFCURVE",
"401 647 CURVE",
"474 647 OFFCURVE",
"552 616 OFFCURVE",
"596 562 CURVE",
"634 596 LINE",
"579 659 OFFCURVE",
"493 694 OFFCURVE",
"401 694 CURVE",
"170 694 OFFCURVE",
"60 527 OFFCURVE",
"60 341 CURVE",
"60 154 OFFCURVE",
"165 -16 OFFCURVE",
"387 -16 CURVE"
);
}
);
width = 698;
},
{
anchors = (
{
name = bottom;
position = "{425, -10}";
},
{
name = top;
position = "{419, 730}";
}
);
layerId = "AE81D269-4BA9-4AA4-8188-ACE3070EB296";
name = Bold;
paths = (
{
closed = 1;
nodes = (
"507 -12 OFFCURVE",
"587 9 OFFCURVE",
"639 35 CURVE",
"605 158 LINE",
"565 141 OFFCURVE",
"499 117 OFFCURVE",
"426 117 CURVE SMOOTH",
"292 117 OFFCURVE",
"225 215 OFFCURVE",
"225 340 CURVE",
"225 462 OFFCURVE",
"299 562 OFFCURVE",
"434 562 CURVE SMOOTH",
"510 562 OFFCURVE",
"564 539 OFFCURVE",
"602 520 CURVE",
"638 646 LINE",
"587 672 OFFCURVE",
"517 691 OFFCURVE",
"434 691 CURVE SMOOTH",
"176 691 OFFCURVE",
"45 524 OFFCURVE",
"45 341 CURVE",
"45 157 OFFCURVE",
"167 -12 OFFCURVE",
"426 -12 CURVE"
);
}
);
width = 682;
}
);
leftKerningGroup = RoundsUC;
rightKerningGroup = C;
unicode = 0043;
userData = {
com.typemytype.robofont.layerData = {
background = {
anchors = (
);
components = (
);
contours = (
);
lib = {
};
name = C;
unicodes = (
);
width = 698;
};
layer_01 = {
anchors = (
);
components = (
);
contours = (
);
lib = {
};
name = C;
unicodes = (
);
width = 698;
};
layer_02 = {
anchors = (
);
components = (
);
contours = (
);
lib = {
};
name = C;
unicodes = (
);
width = 698;
};
};
};
},
{
glyphname = D;
lastChange = "2015-03-04 20:31:46 +0000";
layers = (
{
anchors = (
{
name = top;
position = "{353, 730}";
}
);
layerId = "E777F328-EA17-4AE7-9EBA-8002E537BA4F";
name = Light;
paths = (
{
closed = 1;
nodes = (
"340 0 LINE",
"550 0 OFFCURVE",
"658 145 OFFCURVE",
"658 341 CURVE",
"658 532 OFFCURVE",
"550 680 OFFCURVE",
"340 680 CURVE",
"149 680 LINE",
"149 634 LINE",
"340 634 LINE",
"510 634 OFFCURVE",
"602 515 OFFCURVE",
"602 340 CURVE",
"602 162 OFFCURVE",
"510 46 OFFCURVE",
"340 46 CURVE",
"149 46 LINE",
"149 0 LINE"
);
},
{
closed = 1;
nodes = (
"176 0 LINE",
"176 680 LINE",
"120 680 LINE",
"120 0 LINE"
);
}
);
width = 718;
},
{
anchors = (
{
name = top;
position = "{363, 730}";
}
);
layerId = "AE81D269-4BA9-4AA4-8188-ACE3070EB296";
name = Bold;
paths = (
{
closed = 1;
nodes = (
"372 0 LINE",
"608 0 OFFCURVE",
"732 145 OFFCURVE",
"732 341 CURVE",
"732 532 OFFCURVE",
"608 680 OFFCURVE",
"372 680 CURVE",
"181 680 LINE",
"181 553 LINE",
"372 553 LINE",
"487 553 OFFCURVE",
"552 465 OFFCURVE",
"552 340 CURVE",
"552 213 OFFCURVE",
"487 127 OFFCURVE",
"372 127 CURVE",
"181 127 LINE",
"181 0 LINE"
);
},
{
closed = 1;
nodes = (
"270 0 LINE",
"270 680 LINE",
"90 680 LINE",
"90 0 LINE"
);
}
);
width = 777;
}
);
leftKerningGroup = StraightsUC;
rightKerningGroup = RoundsUC;
unicode = 0044;
userData = {
com.typemytype.robofont.layerData = {
background = {
anchors = (
);
components = (
);
contours = (
);
lib = {
};
name = D;
unicodes = (
);
width = 718;
};
layer_01 = {
anchors = (
);
components = (
);
contours = (
);
lib = {
};
name = D;
unicodes = (
);
width = 718;
};
layer_02 = {
anchors = (
);
components = (
);
contours = (
);
lib = {
};
name = D;
unicodes = (
);
width = 718;
};
};
};
},
{
glyphname = Eth;
lastChange = "2015-03-04 20:31:46 +0000";
layers = (
{
components = (
{
name = D;
}
);
layerId = "E777F328-EA17-4AE7-9EBA-8002E537BA4F";
name = Light;
paths = (
{
closed = 1;
nodes = (
"393 319 LINE",
"393 361 LINE",
"3 361 LINE",
"3 319 LINE"
);
}
);
width = 718;
},
{
components = (
{
name = D;
}
);
layerId = "AE81D269-4BA9-4AA4-8188-ACE3070EB296";
name = Bold;
paths = (
{
closed = 1;
nodes = (
"393 299 LINE",
"393 421 LINE",
"3 421 LINE",
"3 299 LINE"
);
}
);
width = 777;
}
);
leftKerningGroup = StraightsUC;
rightKerningGroup = RoundsUC;
unicode = 00D0;
userData = {
com.typemytype.robofont.layerData = {
background = {
anchors = (
);
components = (
);
contours = (
);
lib = {
};
name = Eth;
unicodes = (
);
width = 800;
};
layer_01 = {
anchors = (
);
components = (
);
contours = (
);
lib = {
};
name = Eth;
unicodes = (
);
width = 800;
};
layer_02 = {
anchors = (
);
components = (
);
contours = (
);
lib = {
};
name = Eth;
unicodes = (
);
width = 800;
};
};
};
},
{
glyphname = Dcroat;
lastChange = "2015-03-04 20:31:46 +0000";
layers = (
{
components = (
{
name = D;
}
);
layerId = "E777F328-EA17-4AE7-9EBA-8002E537BA4F";
name = Light;
paths = (
{
closed = 1;
nodes = (
"393 319 LINE",
"393 361 LINE",
"3 361 LINE",
"3 319 LINE"
);
}
);
width = 718;
},
{
components = (
{
name = D;
}
);
layerId = "AE81D269-4BA9-4AA4-8188-ACE3070EB296";
name = Bold;
paths = (
{
closed = 1;
nodes = (
"393 299 LINE",
"393 421 LINE",
"3 421 LINE",
"3 299 LINE"
);
}
);
width = 777;
}
);
leftKerningGroup = StraightsUC;
rightKerningGroup = RoundsUC;
unicode = 0110;
userData = {
com.typemytype.robofont.layerData = {
background = {
anchors = (
);
components = (
);
contours = (
);
lib = {
};
name = Dcroat;
unicodes = (
);
width = 800;
};
layer_01 = {
anchors = (
);
components = (
);
contours = (
);
lib = {
};
name = Dcroat;
unicodes = (
);
width = 800;
};
layer_02 = {
anchors = (
);
components = (
);
contours = (
);
lib = {
};
name = Dcroat;
unicodes = (
);
width = 800;
};
};
};
},
{
glyphname = E;
lastChange = "2015-03-04 20:31:46 +0000";
layers = (
{
anchors = (
{
name = bottom;
position = "{463, -10}";
},
{
name = top;
position = "{314, 730}";
}
);
layerId = "E777F328-EA17-4AE7-9EBA-8002E537BA4F";
name = Light;
paths = (
{
closed = 1;
nodes = (
"176 0 LINE",
"176 680 LINE",
"120 680 LINE",
"120 0 LINE"
);
},
{
closed = 1;
nodes = (
"519 0 LINE",
"519 46 LINE",
"149 46 LINE",
"149 0 LINE"
);
},
{
closed = 1;
nodes = (
"459 337 LINE",
"459 383 LINE",
"149 383 LINE",
"149 337 LINE"
);
},
{
closed = 1;
nodes = (
"499 634 LINE",
"499 680 LINE",
"149 680 LINE",
"149 634 LINE"
);
}
);
width = 579;
},
{
anchors = (
{
name = bottom;
position = "{401, -10}";
},
{
name = top;
position = "{314, 730}";
}
);
layerId = "AE81D269-4BA9-4AA4-8188-ACE3070EB296";
name = Bold;
paths = (
{
closed = 1;
nodes = (
"270 0 LINE",
"270 680 LINE",
"90 680 LINE",
"90 0 LINE"
);
},
{
closed = 1;
nodes = (
"551 0 LINE",
"551 125 LINE",
"181 125 LINE",
"181 0 LINE"
);
},
{
closed = 1;
nodes = (
"491 297 LINE",
"491 422 LINE",
"181 422 LINE",
"181 297 LINE"
);
},
{
closed = 1;
nodes = (
"531 555 LINE",
"531 680 LINE",
"181 680 LINE",
"181 555 LINE"
);
}
);
width = 601;
}
);
leftKerningGroup = StraightsUC;
rightKerningGroup = E;
unicode = 0045;
userData = {
com.typemytype.robofont.guides = (
{
angle = 90;
isGlobal = 0;
magnetic = 5;
x = 519;
y = "-28";
}
);
com.typemytype.robofont.layerData = {
background = {
anchors = (
);
components = (
);
contours = (
);
lib = {
};
name = E;
unicodes = (
);
width = 579;
};
layer_01 = {
anchors = (
);
components = (
);
contours = (
);
lib = {
};
name = E;
unicodes = (
);
width = 579;
};
layer_02 = {
anchors = (
);
components = (
);
contours = (
);
lib = {
};
name = E;
unicodes = (
);
width = 579;
};
};
};
},
{
glyphname = F;
lastChange = "2015-03-04 20:31:46 +0000";
layers = (
{
layerId = "E777F328-EA17-4AE7-9EBA-8002E537BA4F";
name = Light;
paths = (
{
closed = 1;
nodes = (
"176 0 LINE",
"176 680 LINE",
"120 680 LINE",
"120 0 LINE"
);
},
{
closed = 1;
nodes = (
"459 327 LINE",
"459 373 LINE",
"149 373 LINE",
"149 327 LINE"
);
},
{
closed = 1;
nodes = (
"499 634 LINE",
"499 680 LINE",
"149 680 LINE",
"149 634 LINE"
);
}
);
width = 529;
},
{
layerId = "AE81D269-4BA9-4AA4-8188-ACE3070EB296";
name = Bold;
paths = (
{
closed = 1;
nodes = (
"270 0 LINE",
"270 680 LINE",
"90 680 LINE",
"90 0 LINE"
);
},
{
closed = 1;
nodes = (
"491 256 LINE",
"491 383 LINE",
"181 383 LINE",
"181 256 LINE"
);
},
{
closed = 1;
nodes = (
"531 553 LINE",
"531 680 LINE",
"181 680 LINE",
"181 553 LINE"
);
}
);
width = 551;
}
);
leftKerningGroup = StraightsUC;
rightKerningGroup = F;
unicode = 0046;
userData = {
com.typemytype.robofont.layerData = {
background = {
anchors = (
);
components = (
);
contours = (
{
points = (
{
segmentType = line;
smooth = 0;
x = 386;
y = 635;
},
{
segmentType = line;
smooth = 0;
x = 481;
y = 499;
},
{
segmentType = line;
smooth = 0;
x = 512;
y = 508;
},
{
segmentType = line;
smooth = 0;
x = 493;
y = 680;
},
{
segmentType = line;
smooth = 0;
x = "-13";
y = 680;
},
{
segmentType = line;
smooth = 0;
x = "-13";
y = 649;
},
{
segmentType = line;
smooth = 0;
x = 91;
y = 610;
},
{
segmentType = line;
smooth = 0;
x = 91;
y = 70;
},
{
segmentType = line;
smooth = 0;
x = "-13";
y = 31;
},
{
segmentType = line;
smooth = 0;
x = "-13";
y = 0;
},
{
segmentType = line;
smooth = 0;
x = 309;
y = 0;
},
{
segmentType = line;
smooth = 0;
x = 309;
y = 38;
},
{
segmentType = line;
smooth = 0;
x = 206;
y = 57;
},
{
segmentType = line;
smooth = 0;
x = 206;
y = 323;
},
{
segmentType = line;
smooth = 0;
x = 360;
y = 323;
},
{
segmentType = line;
smooth = 0;
x = 406;
y = 245;
},
{
segmentType = line;
smooth = 0;
x = 429;
y = 249;
},
{
segmentType = line;
smooth = 0;
x = 444;
y = 412;
},
{
segmentType = line;
smooth = 0;
x = 426;
y = 417;
},
{
segmentType = line;
smooth = 0;
x = 378;
y = 378;
},
{
segmentType = line;
smooth = 0;
x = 206;
y = 378;
},
{
segmentType = line;
smooth = 0;
x = 206;
y = 635;
}
);
}
);
lib = {
};
name = F;
unicodes = (
);
width = 529;
};
layer_01 = {
anchors = (
);
components = (
);
contours = (
);
lib = {
};
name = F;
unicodes = (
);
width = 529;
};
layer_02 = {
anchors = (
);
components = (
);
contours = (
);
lib = {
};
name = F;
unicodes = (
);
width = 529;
};
};
};
},
{
glyphname = G;
lastChange = "2015-03-04 20:31:46 +0000";
layers = (
{
anchors = (
{
name = bottom;
position = "{391, -10}";
},
{
name = top;
position = "{388, 730}";
}
);
layerId = "E777F328-EA17-4AE7-9EBA-8002E537BA4F";
name = Light;
paths = (
{
closed = 1;
nodes = (
"499 -16 OFFCURVE",
"583 8 OFFCURVE",
"629 40 CURVE",
"595 74 LINE",
"555 47 OFFCURVE",
"482 30 OFFCURVE",
"387 30 CURVE",
"210 30 OFFCURVE",
"116 164 OFFCURVE",
"116 340 CURVE",
"116 513 OFFCURVE",
"214 647 OFFCURVE",
"401 647 CURVE",
"474 647 OFFCURVE",
"552 616 OFFCURVE",
"596 562 CURVE",
"634 596 LINE",
"579 659 OFFCURVE",
"493 694 OFFCURVE",
"401 694 CURVE",
"170 694 OFFCURVE",
"60 527 OFFCURVE",
"60 341 CURVE",
"60 154 OFFCURVE",
"165 -16 OFFCURVE",
"387 -16 CURVE"
);
},
{
closed = 1;
nodes = (
"629 40 LINE",
"629 311 LINE",
"575 311 LINE",
"575 40 LINE"
);
}
);
width = 714;
},
{
anchors = (
{
name = bottom;
position = "{425, -10}";
},
{
name = top;
position = "{419, 730}";
}
);
layerId = "AE81D269-4BA9-4AA4-8188-ACE3070EB296";
name = Bold;
paths = (
{
closed = 1;
nodes = (
"517 -12 OFFCURVE",
"606 9 OFFCURVE",
"666 35 CURVE",
"632 158 LINE",
"584 141 OFFCURVE",
"509 117 OFFCURVE",
"426 117 CURVE SMOOTH",
"292 117 OFFCURVE",
"225 215 OFFCURVE",
"225 340 CURVE",
"225 462 OFFCURVE",
"299 562 OFFCURVE",
"434 562 CURVE SMOOTH",
"510 562 OFFCURVE",
"564 539 OFFCURVE",
"602 520 CURVE",
"638 646 LINE",
"587 672 OFFCURVE",
"517 691 OFFCURVE",
"434 691 CURVE SMOOTH",
"176 691 OFFCURVE",
"45 524 OFFCURVE",
"45 341 CURVE",
"45 157 OFFCURVE",
"167 -12 OFFCURVE",
"426 -12 CURVE"
);
},
{
closed = 1;
nodes = (
"666 35 LINE",
"666 336 LINE",
"492 336 LINE",
"492 35 LINE"
);
}
);
width = 711;
}
);
leftKerningGroup = RoundsUC;
rightKerningGroup = G;
unicode = 0047;
userData = {
com.typemytype.robofont.layerData = {
background = {
anchors = (
);
components = (
);
contours = (
{
points = (
{
segmentType = line;
smooth = 0;
x = 607;
y = 479;
},
{
segmentType = line;
smooth = 0;
x = 639;
y = 489;
},
{
segmentType = line;
smooth = 0;
x = 625;
y = 642;
},
{
smooth = 0;
x = 579;
y = 667;
},
{
smooth = 0;
x = 498;
y = 695;
},
{
segmentType = curve;
smooth = 1;
x = 403;
y = 695;
},
{
smooth = 0;
x = 179;
y = 695;
},
{
smooth = 0;
x = 22;
y = 549;
},
{
segmentType = curve;
smooth = 1;
x = 22;
y = 326;
},
{
smooth = 0;
x = 22;
y = 120;
},
{
smooth = 0;
x = 168;
y = "-22";
},
{
segmentType = curve;
smooth = 1;
x = 378;
y = "-22";
},
{
smooth = 0;
x = 501;
y = "-22";
},
{
smooth = 0;
x = 596;
y = 18;
},
{
segmentType = curve;
smooth = 0;
x = 644;
y = 43;
},
{
segmentType = line;
smooth = 0;
x = 644;
y = 254;
},
{
segmentType = line;
smooth = 0;
x = 701;
y = 273;
},
{
segmentType = line;
smooth = 0;
x = 701;
y = 311;
},
{
segmentType = line;
smooth = 0;
x = 426;
y = 311;
},
{
segmentType = line;
smooth = 0;
x = 426;
y = 280;
},
{
segmentType = line;
smooth = 0;
x = 530;
y = 241;
},
{
segmentType = line;
smooth = 0;
x = 530;
y = 65;
},
{
smooth = 0;
x = 504;
y = 51;
},
{
smooth = 0;
x = 451;
y = 35;
},
{
segmentType = curve;
smooth = 1;
x = 393;
y = 35;
},
{
smooth = 0;
x = 207;
y = 35;
},
{
smooth = 0;
x = 157;
y = 181;
},
{
segmentType = curve;
smooth = 1;
x = 157;
y = 371;
},
{
smooth = 0;
x = 157;
y = 503;
},
{
smooth = 0;
x = 233;
y = 642;
},
{
segmentType = curve;
smooth = 1;
x = 386;
y = 642;
},
{
smooth = 0;
x = 429;
y = 642;
},
{
smooth = 0;
x = 483;
y = 630;
},
{
segmentType = curve;
smooth = 0;
x = 517;
y = 614;
}
);
}
);
lib = {
};
name = G;
unicodes = (
);
width = 714;
};
layer_01 = {
anchors = (
);
components = (
);
contours = (
);
lib = {
};
name = G;
unicodes = (
);
width = 714;
};
layer_02 = {
anchors = (
);
components = (
);
contours = (
);
lib = {
};
name = G;
unicodes = (
);
width = 714;
};
};
};
},
{
glyphname = H;
lastChange = "2015-03-04 20:31:46 +0000";
layers = (
{
anchors = (
{
name = bottom;
position = "{378, -10}";
},
{
name = top;
position = "{378, 730}";
}
);
layerId = "E777F328-EA17-4AE7-9EBA-8002E537BA4F";
name = Light;
paths = (
{
closed = 1;
nodes = (
"635 0 LINE",
"635 680 LINE",
"579 680 LINE",
"579 0 LINE"
);
},
{
closed = 1;
nodes = (
"176 0 LINE",
"176 680 LINE",
"120 680 LINE",
"120 0 LINE"
);
},
{
closed = 1;
nodes = (
"609 337 LINE",
"609 383 LINE",
"149 383 LINE",
"149 337 LINE"
);
}
);
width = 755;
},
{
anchors = (
{
name = bottom;
position = "{409, -10}";
},
{
name = top;
position = "{409, 730}";
}
);
layerId = "AE81D269-4BA9-4AA4-8188-ACE3070EB296";
name = Bold;
paths = (
{
closed = 1;
nodes = (
"729 0 LINE",
"729 680 LINE",
"549 680 LINE",
"549 0 LINE"
);
},
{
closed = 1;
nodes = (
"270 0 LINE",
"270 680 LINE",
"90 680 LINE",
"90 0 LINE"
);
},
{
closed = 1;
nodes = (
"641 296 LINE",
"641 423 LINE",
"181 423 LINE",
"181 296 LINE"
);
}
);
width = 819;
}
);
leftKerningGroup = StraightsUC;
rightKerningGroup = StraightsUC;
unicode = 0048;
userData = {
com.typemytype.robofont.guides = (
);
com.typemytype.robofont.layerData = {
background = {
anchors = (
);
components = (
);
contours = (
{
points = (
{
segmentType = line;
smooth = 0;
x = 661;
y = 623;
},
{
segmentType = line;
smooth = 0;
x = 765;
y = 642;
},
{
segmentType = line;
smooth = 0;
x = 765;
y = 680;
},
{
segmentType = line;
smooth = 0;
x = 443;
y = 680;
},
{
segmentType = line;
smooth = 0;
x = 443;
y = 649;
},
{
segmentType = line;
smooth = 0;
x = 546;
y = 610;
},
{
segmentType = line;
smooth = 0;
x = 546;
y = 387;
},
{
segmentType = line;
smooth = 0;
x = 206;
y = 387;
},
{
segmentType = line;
smooth = 0;
x = 206;
y = 623;
},
{
segmentType = line;
smooth = 0;
x = 309;
y = 642;
},
{
segmentType = line;
smooth = 0;
x = 309;
y = 680;
},
{
segmentType = line;
smooth = 0;
x = "-13";
y = 680;
},
{
segmentType = line;
smooth = 0;
x = "-13";
y = 649;
},
{
segmentType = line;
smooth = 0;
x = 91;
y = 610;
},
{
segmentType = line;
smooth = 0;
x = 91;
y = 70;
},
{
segmentType = line;
smooth = 0;
x = "-13";
y = 31;
},
{
segmentType = line;
smooth = 0;
x = "-13";
y = 0;
},
{
segmentType = line;
smooth = 0;
x = 309;
y = 0;
},
{
segmentType = line;
smooth = 0;
x = 309;
y = 38;
},
{
segmentType = line;
smooth = 0;
x = 206;
y = 57;
},
{
segmentType = line;
smooth = 0;
x = 206;
y = 332;
},
{
segmentType = line;
smooth = 0;
x = 546;
y = 332;
},
{
segmentType = line;
smooth = 0;
x = 546;
y = 70;
},
{
segmentType = line;
smooth = 0;
x = 443;
y = 31;
},
{
segmentType = line;
smooth = 0;
x = 443;
y = 0;
},
{
segmentType = line;
smooth = 0;
x = 765;
y = 0;
},
{
segmentType = line;
smooth = 0;
x = 765;
y = 38;
},
{
segmentType = line;
smooth = 0;
x = 661;
y = 57;
}
);
}
);
lib = {
};
name = H;
unicodes = (
);
width = 755;
};
layer_01 = {
anchors = (
);
components = (
);
contours = (
);
lib = {
};
name = H;
unicodes = (
);
width = 755;
};
layer_02 = {
anchors = (
);
components = (
);
contours = (
);
lib = {
};
name = H;
unicodes = (
);
width = 755;
};
};
};
},
{
glyphname = Hbar;
lastChange = "2015-03-04 20:31:46 +0000";
layers = (
{
components = (
{
name = H;
}
);
layerId = "E777F328-EA17-4AE7-9EBA-8002E537BA4F";
name = Light;
paths = (
{
closed = 1;
nodes = (
"754 511 LINE",
"754 553 LINE",
"3 553 LINE",
"3 511 LINE"
);
}
);
width = 755;
},
{
components = (
{
name = H;
}
);
layerId = "AE81D269-4BA9-4AA4-8188-ACE3070EB296";
name = Bold;
paths = (
{
closed = 1;
nodes = (
"816 494 LINE",
"816 616 LINE",
"3 616 LINE",
"3 494 LINE"
);
}
);
width = 819;
}
);
leftKerningGroup = StraightsUC;
rightKerningGroup = StraightsUC;
unicode = 0126;
userData = {
com.typemytype.robofont.guides = (
);
com.typemytype.robofont.layerData = {
background = {
anchors = (
);
components = (
);
contours = (
);
lib = {
};
name = Hbar;
unicodes = (
);
width = 755;
};
layer_01 = {
anchors = (
);
components = (
);
contours = (
);
lib = {
};
name = Hbar;
unicodes = (
);
width = 755;
};
layer_02 = {
anchors = (
);
components = (
);
contours = (
);
lib = {
};
name = Hbar;
unicodes = (
);
width = 755;
};
};
};
},
{
glyphname = I;
lastChange = "2015-03-04 20:31:46 +0000";
layers = (
{
anchors = (
{
name = bottom;
position = "{128, -10}";
},
{
name = top;
position = "{148, 730}";
}
);
layerId = "E777F328-EA17-4AE7-9EBA-8002E537BA4F";
name = Light;
paths = (
{
closed = 1;
nodes = (
"176 0 LINE",
"176 680 LINE",
"120 680 LINE",
"120 0 LINE"
);
}
);
width = 296;
},
{
anchors = (
{
name = bottom;
position = "{146, -10}";
},
{
name = top;
position = "{180, 730}";
}
);
layerId = "AE81D269-4BA9-4AA4-8188-ACE3070EB296";
name = Bold;
paths = (
{
closed = 1;
nodes = (
"270 0 LINE",
"270 680 LINE",
"90 680 LINE",
"90 0 LINE"
);
}
);
width = 360;
}
);
leftKerningGroup = StraightsUC;
rightKerningGroup = StraightsUC;
unicode = 0049;
userData = {
com.typemytype.robofont.layerData = {
background = {
anchors = (
);
components = (
);
contours = (
);
lib = {
};
name = I;
unicodes = (
);
width = 296;
};
layer_01 = {
anchors = (
);
components = (
);
contours = (
);
lib = {
};
name = I;
unicodes = (
);
width = 296;
};
layer_02 = {
anchors = (
);
components = (
);
contours = (
);
lib = {
};
name = I;
unicodes = (
);
width = 296;
};
};
};
},
{
glyphname = J;
lastChange = "2015-03-04 20:31:46 +0000";
layers = (
{
anchors = (
{
name = top;
position = "{148, 730}";
}
);
layerId = "E777F328-EA17-4AE7-9EBA-8002E537BA4F";
name = Light;
paths = (
{
closed = 1;
nodes = (
"124 -245 OFFCURVE",
"176 -164 OFFCURVE",
"176 -26 CURVE SMOOTH",
"176 680 LINE",
"120 680 LINE",
"120 -24 LINE SMOOTH",
"120 -140 OFFCURVE",
"89 -196 OFFCURVE",
"6 -196 CURVE SMOOTH",
"-9 -196 OFFCURVE",
"-20 -194 OFFCURVE",
"-31 -191 CURVE",
"-42 -237 LINE",
"-27 -242 OFFCURVE",
"-10 -245 OFFCURVE",
"6 -245 CURVE SMOOTH"
);
}
);
width = 296;
},
{
anchors = (
{
name = top;
position = "{180, 730}";
}
);
layerId = "AE81D269-4BA9-4AA4-8188-ACE3070EB296";
name = Bold;
paths = (
{
closed = 1;
nodes = (
"197 -239 OFFCURVE",
"270 -154 OFFCURVE",
"270 -10 CURVE SMOOTH",
"270 680 LINE",
"90 680 LINE",
"90 -8 LINE SMOOTH",
"90 -76 OFFCURVE",
"66 -110 OFFCURVE",
"8 -110 CURVE SMOOTH",
"-17 -110 OFFCURVE",
"-34 -108 OFFCURVE",
"-58 -105 CURVE",
"-69 -231 LINE",
"-28 -236 OFFCURVE",
"6 -239 OFFCURVE",
"39 -239 CURVE SMOOTH"
);
}
);
width = 360;
}
);
leftKerningGroup = J;
rightKerningGroup = StraightsUC;
unicode = 004A;
userData = {
com.typemytype.robofont.layerData = {
background = {
anchors = (
);
components = (
);
contours = (
);
lib = {
};
name = J;
unicodes = (
);
width = 296;
};
layer_01 = {
anchors = (
);
components = (
);
contours = (
);
lib = {
};
name = J;
unicodes = (
);
width = 296;
};
layer_02 = {
anchors = (
);
components = (
);
contours = (
);
lib = {
};
name = J;
unicodes = (
);
width = 296;
};
};
};
},
{
glyphname = K;
lastChange = "2015-03-04 20:31:46 +0000";
layers = (
{
anchors = (
{
name = bottom;
position = "{330, -10}";
},
{
name = top;
position = "{330, 730}";
}
);
layerId = "E777F328-EA17-4AE7-9EBA-8002E537BA4F";
name = Light;
paths = (
{
closed = 1;
nodes = (
"625 0 LINE",
"249 380 LINE",
"253 360 LINE",
"578 680 LINE",
"511 680 LINE",
"202 375 LINE",
"202 355 LINE",
"556 0 LINE"
);
},
{
closed = 1;
nodes = (
"176 0 LINE",
"176 680 LINE",
"120 680 LINE",
"120 0 LINE"
);
}
);
width = 660;
},
{
anchors = (
{
name = bottom;
position = "{390, -10}";
},
{
name = top;
position = "{390, 730}";
}
);
layerId = "AE81D269-4BA9-4AA4-8188-ACE3070EB296";
name = Bold;
paths = (
{
closed = 1;
nodes = (
"734 0 LINE",
"428 380 LINE",
"432 360 LINE",
"709 680 LINE",
"502 680 LINE",
"262 375 LINE",
"262 355 LINE",
"517 0 LINE"
);
},
{
closed = 1;
nodes = (
"270 0 LINE",
"270 680 LINE",
"90 680 LINE",
"90 0 LINE"
);
}
);
width = 739;
}
);
leftKerningGroup = StraightsUC;
rightKerningGroup = K;
unicode = 004B;
userData = {
com.typemytype.robofont.layerData = {
background = {
anchors = (
);
components = (
);
contours = (
{
points = (
{
segmentType = line;
smooth = 0;
x = 196;
y = 623;
},
{
segmentType = line;
smooth = 0;
x = 299;
y = 642;
},
{
segmentType = line;
smooth = 0;
x = 299;
y = 680;
},
{
segmentType = line;
smooth = 0;
x = "-23";
y = 680;
},
{
segmentType = line;
smooth = 0;
x = "-23";
y = 649;
},
{
segmentType = line;
smooth = 0;
x = 81;
y = 610;
},
{
segmentType = line;
smooth = 0;
x = 81;
y = 70;
},
{
segmentType = line;
smooth = 0;
x = "-23";
y = 31;
},
{
segmentType = line;
smooth = 0;
x = "-23";
y = 0;
},
{
segmentType = line;
smooth = 0;
x = 299;
y = 0;
},
{
segmentType = line;
smooth = 0;
x = 299;
y = 38;
},
{
segmentType = line;
smooth = 0;
x = 196;
y = 57;
}
);
},
{
points = (
{
segmentType = line;
smooth = 0;
x = 485;
y = 610;
},
{
segmentType = line;
smooth = 0;
x = 225;
y = 354;
},
{
segmentType = line;
smooth = 0;
x = 225;
y = 350;
},
{
segmentType = line;
smooth = 0;
x = 508;
y = 0;
},
{
segmentType = line;
smooth = 0;
x = 695;
y = 0;
},
{
segmentType = line;
smooth = 0;
x = 695;
y = 38;
},
{
segmentType = line;
smooth = 0;
x = 615;
y = 57;
},
{
segmentType = line;
smooth = 0;
x = 339;
y = 388;
},
{
segmentType = line;
smooth = 0;
x = 586;
y = 623;
},
{
segmentType = line;
smooth = 0;
x = 638;
y = 642;
},
{
segmentType = line;
smooth = 0;
x = 638;
y = 680;
},
{
segmentType = line;
smooth = 0;
x = 387;
y = 680;
},
{
segmentType = line;
smooth = 0;
x = 387;
y = 649;
}
);
}
);
lib = {
};
name = K;
unicodes = (
);
width = 660;
};
layer_01 = {
anchors = (
);
components = (
);
contours = (
);
lib = {
};
name = K;
unicodes = (
);
width = 660;
};
layer_02 = {
anchors = (
);
components = (
);
contours = (
);
lib = {
};
name = K;
unicodes = (
);
width = 660;
};
};
};
},
{
glyphname = L;
lastChange = "2015-03-04 20:31:46 +0000";
layers = (
{
anchors = (
{
name = bottom;
position = "{332, -10}";
},
{
name = caronSlovak;
position = "{226, 469}";
},
{
name = dot;
position = "{410, 364}";
},
{
name = top;
position = "{156, 730}";
}
);
layerId = "E777F328-EA17-4AE7-9EBA-8002E537BA4F";
name = Light;
paths = (
{
closed = 1;
nodes = (
"176 0 LINE",
"176 680 LINE",
"120 680 LINE",
"120 0 LINE"
);
},
{
closed = 1;
nodes = (
"519 0 LINE",
"519 46 LINE",
"149 46 LINE",
"149 0 LINE"
);
}
);
width = 559;
},
{
anchors = (
{
name = bottom;
position = "{332, -10}";
},
{
name = caronSlovak;
position = "{336, 315}";
},
{
name = dot;
position = "{451, 364}";
},
{
name = top;
position = "{180, 730}";
}
);
layerId = "AE81D269-4BA9-4AA4-8188-ACE3070EB296";
name = Bold;
paths = (
{
closed = 1;
nodes = (
"270 0 LINE",
"270 680 LINE",
"90 680 LINE",
"90 0 LINE"
);
},
{
closed = 1;
nodes = (
"551 0 LINE",
"551 125 LINE",
"181 125 LINE",
"181 0 LINE"
);
}
);
width = 561;
}
);
leftKerningGroup = StraightsUC;
rightKerningGroup = L;
unicode = 004C;
userData = {
com.typemytype.robofont.layerData = {
background = {
anchors = (
);
components = (
);
contours = (
{
points = (
{
segmentType = line;
smooth = 0;
x = 206;
y = 623;
},
{
segmentType = line;
smooth = 0;
x = 309;
y = 642;
},
{
segmentType = line;
smooth = 0;
x = 309;
y = 680;
},
{
segmentType = line;
smooth = 0;
x = "-13";
y = 680;
},
{
segmentType = line;
smooth = 0;
x = "-13";
y = 649;
},
{
segmentType = line;
smooth = 0;
x = 91;
y = 610;
},
{
segmentType = line;
smooth = 0;
x = 91;
y = 70;
},
{
segmentType = line;
smooth = 0;
x = "-13";
y = 31;
},
{
segmentType = line;
smooth = 0;
x = "-13";
y = 0;
},
{
segmentType = line;
smooth = 0;
x = 522;
y = 0;
},
{
segmentType = line;
smooth = 0;
x = 547;
y = 196;
},
{
segmentType = line;
smooth = 0;
x = 507;
y = 196;
},
{
segmentType = line;
smooth = 0;
x = 396;
y = 45;
},
{
segmentType = line;
smooth = 0;
x = 206;
y = 45;
}
);
}
);
lib = {
};
name = L;
unicodes = (
);
width = 559;
};
layer_01 = {
anchors = (
);
components = (
);
contours = (
);
lib = {
};
name = L;
unicodes = (
);
width = 559;
};
layer_02 = {
anchors = (
);
components = (
);
contours = (
);
lib = {
};
name = L;
unicodes = (
);
width = 559;
};
};
};
},
{
glyphname = Lslash;
lastChange = "2015-03-04 20:31:46 +0000";
layers = (
{
components = (
{
name = L;
}
);
layerId = "E777F328-EA17-4AE7-9EBA-8002E537BA4F";
name = Light;
paths = (
{
closed = 1;
nodes = (
"364 395 LINE",
"341 430 LINE",
"12 221 LINE",
"35 185 LINE"
);
}
);
width = 559;
},
{
components = (
{
name = L;
}
);
layerId = "AE81D269-4BA9-4AA4-8188-ACE3070EB296";
name = Bold;
paths = (
{
closed = 1;
nodes = (
"497 429 LINE",
"430 535 LINE",
"-19 251 LINE",
"48 145 LINE"
);
}
);
width = 561;
}
);
leftKerningGroup = StraightsUC;
rightKerningGroup = L;
unicode = 0141;
userData = {
com.typemytype.robofont.layerData = {
background = {
anchors = (
);
components = (
);
contours = (
);
lib = {
};
name = Lslash;
unicodes = (
);
width = 559;
};
layer_01 = {
anchors = (
);
components = (
);
contours = (
);
lib = {
};
name = Lslash;
unicodes = (
);
width = 559;
};
layer_02 = {
anchors = (
);
components = (
);
contours = (
);
lib = {
};
name = Lslash;
unicodes = (
);
width = 559;
};
};
};
},
{
glyphname = M;
lastChange = "2015-03-04 20:31:46 +0000";
layers = (
{
layerId = "E777F328-EA17-4AE7-9EBA-8002E537BA4F";
name = Light;
paths = (
{
closed = 1;
nodes = (
"176 0 LINE",
"176 261 LINE",
"176 597 LINE",
"165 593 LINE",
"413 242 LINE",
"445 242 LINE",
"693 593 LINE",
"682 597 LINE",
"682 261 LINE",
"682 0 LINE",
"738 0 LINE",
"738 680 LINE",
"692 680 LINE",
"418 292 LINE",
"440 292 LINE",
"166 680 LINE",
"120 680 LINE",
"120 0 LINE"
);
}
);
width = 858;
},
{
layerId = "AE81D269-4BA9-4AA4-8188-ACE3070EB296";
name = Bold;
paths = (
{
closed = 1;
nodes = (
"265 0 LINE",
"265 180 LINE",
"240 597 LINE",
"155 566 LINE",
"393 165 LINE",
"529 165 LINE",
"767 566 LINE",
"677 597 LINE",
"657 180 LINE",
"657 0 LINE",
"832 0 LINE",
"832 680 LINE",
"662 680 LINE",
"398 242 LINE",
"524 242 LINE",
"260 680 LINE",
"90 680 LINE",
"90 0 LINE"
);
}
);
width = 922;
}
);
leftKerningGroup = StraightsUC;
rightKerningGroup = StraightsUC;
unicode = 004D;
userData = {
com.typemytype.robofont.layerData = {
background = {
anchors = (
);
components = (
);
contours = (
{
points = (
{
segmentType = line;
smooth = 0;
x = "-812";
y = 70;
},
{
segmentType = line;
smooth = 0;
x = "-897";
y = 31;
},
{
segmentType = line;
smooth = 0;
x = "-897";
y = 0;
},
{
segmentType = line;
smooth = 0;
x = "-643";
y = 0;
},
{
segmentType = line;
smooth = 0;
x = "-643";
y = 38;
},
{
segmentType = line;
smooth = 0;
x = "-750";
y = 57;
},
{
segmentType = line;
smooth = 0;
x = "-719";
y = 536;
},
{
segmentType = line;
smooth = 0;
x = "-716";
y = 536;
},
{
segmentType = line;
smooth = 0;
x = "-500";
y = 23;
},
{
segmentType = line;
smooth = 0;
x = "-464";
y = 23;
},
{
segmentType = line;
smooth = 0;
x = "-236";
y = 570;
},
{
segmentType = line;
smooth = 0;
x = "-234";
y = 570;
},
{
segmentType = line;
smooth = 0;
x = "-209";
y = 70;
},
{
segmentType = line;
smooth = 0;
x = "-307";
y = 31;
},
{
segmentType = line;
smooth = 0;
x = "-307";
y = 0;
},
{
segmentType = line;
smooth = 0;
x = "-14";
y = 0;
},
{
segmentType = line;
smooth = 0;
x = "-14";
y = 38;
},
{
segmentType = line;
smooth = 0;
x = "-97";
y = 57;
},
{
segmentType = line;
smooth = 0;
x = "-135";
y = 623;
},
{
segmentType = line;
smooth = 0;
x = "-62";
y = 642;
},
{
segmentType = line;
smooth = 0;
x = "-62";
y = 680;
},
{
segmentType = line;
smooth = 0;
x = "-245";
y = 680;
},
{
segmentType = line;
smooth = 0;
x = "-448";
y = 183;
},
{
segmentType = line;
smooth = 0;
x = "-453";
y = 183;
},
{
segmentType = line;
smooth = 0;
x = "-654";
y = 680;
},
{
segmentType = line;
smooth = 0;
x = "-855";
y = 680;
},
{
segmentType = line;
smooth = 0;
x = "-855";
y = 649;
},
{
segmentType = line;
smooth = 0;
x = "-771";
y = 610;
}
);
},
{
points = (
{
segmentType = line;
smooth = 0;
x = 693;
y = 586;
},
{
segmentType = line;
smooth = 0;
x = 682;
y = 590;
},
{
segmentType = line;
smooth = 0;
x = 682;
y = 0;
},
{
segmentType = line;
smooth = 0;
x = 738;
y = 0;
},
{
segmentType = line;
smooth = 0;
x = 738;
y = 680;
},
{
segmentType = line;
smooth = 0;
x = 692;
y = 680;
},
{
segmentType = line;
smooth = 0;
x = 418;
y = 299;
},
{
segmentType = line;
smooth = 0;
x = 440;
y = 299;
},
{
segmentType = line;
smooth = 0;
x = 166;
y = 680;
},
{
segmentType = line;
smooth = 0;
x = 120;
y = 680;
},
{
segmentType = line;
smooth = 0;
x = 120;
y = 0;
},
{
segmentType = line;
smooth = 0;
x = 176;
y = 0;
},
{
segmentType = line;
smooth = 0;
x = 176;
y = 590;
},
{
segmentType = line;
smooth = 0;
x = 165;
y = 586;
},
{
segmentType = line;
smooth = 0;
x = 413;
y = 242;
},
{
segmentType = line;
smooth = 0;
x = 445;
y = 242;
}
);
}
);
lib = {
};
name = M;
unicodes = (
);
width = 858;
};
layer_01 = {
anchors = (
);
components = (
);
contours = (
);
lib = {
};
name = M;
unicodes = (
);
width = 858;
};
layer_02 = {
anchors = (
);
components = (
);
contours = (
);
lib = {
};
name = M;
unicodes = (
);
width = 858;
};
};
};
},
{
glyphname = N;
lastChange = "2015-03-04 20:31:46 +0000";
layers = (
{
anchors = (
{
name = bottom;
position = "{378, -10}";
},
{
name = top;
position = "{378, 730}";
}
);
layerId = "E777F328-EA17-4AE7-9EBA-8002E537BA4F";
name = Light;
paths = (
{
closed = 1;
nodes = (
"635 0 LINE",
"635 680 LINE",
"579 680 LINE",
"579 383 LINE",
"579 64 LINE",
"600 71 LINE",
"166 680 LINE",
"120 680 LINE",
"120 0 LINE",
"176 0 LINE",
"176 334 LINE",
"176 613 LINE",
"155 606 LINE",
"589 -1 LINE"
);
}
);
width = 755;
},
{
anchors = (
{
name = bottom;
position = "{408, -10}";
},
{
name = top;
position = "{408, 730}";
}
);
layerId = "AE81D269-4BA9-4AA4-8188-ACE3070EB296";
name = Bold;
paths = (
{
closed = 1;
nodes = (
"729 0 LINE",
"729 680 LINE",
"549 680 LINE",
"549 475 LINE",
"574 64 LINE",
"690 83 LINE",
"252 680 LINE",
"90 680 LINE",
"90 0 LINE",
"270 0 LINE",
"270 204 LINE",
"245 613 LINE",
"133 594 LINE",
"567 -1 LINE"
);
}
);
width = 819;
}
);
leftKerningGroup = StraightsUC;
rightKerningGroup = StraightsUC;
unicode = 004E;
userData = {
com.typemytype.robofont.layerData = {
background = {
anchors = (
);
components = (
);
contours = (
{
points = (
{
segmentType = line;
smooth = 0;
x = 626;
y = "-17";
},
{
segmentType = line;
smooth = 0;
x = 675;
y = "-17";
},
{
segmentType = line;
smooth = 0;
x = 675;
y = 623;
},
{
segmentType = line;
smooth = 0;
x = 779;
y = 642;
},
{
segmentType = line;
smooth = 0;
x = 779;
y = 680;
},
{
segmentType = line;
smooth = 0;
x = 504;
y = 680;
},
{
segmentType = line;
smooth = 0;
x = 504;
y = 649;
},
{
segmentType = line;
smooth = 0;
x = 608;
y = 610;
},
{
segmentType = line;
smooth = 0;
x = 608;
y = 180;
},
{
segmentType = line;
smooth = 0;
x = 605;
y = 180;
},
{
segmentType = line;
smooth = 0;
x = 211;
y = 680;
},
{
segmentType = line;
smooth = 0;
x = "-13";
y = 680;
},
{
segmentType = line;
smooth = 0;
x = "-13";
y = 649;
},
{
segmentType = line;
smooth = 0;
x = 91;
y = 610;
},
{
segmentType = line;
smooth = 0;
x = 91;
y = 70;
},
{
segmentType = line;
smooth = 0;
x = "-13";
y = 31;
},
{
segmentType = line;
smooth = 0;
x = "-13";
y = 0;
},
{
segmentType = line;
smooth = 0;
x = 262;
y = 0;
},
{
segmentType = line;
smooth = 0;
x = 262;
y = 38;
},
{
segmentType = line;
smooth = 0;
x = 158;
y = 57;
},
{
segmentType = line;
smooth = 0;
x = 158;
y = 570;
},
{
segmentType = line;
smooth = 0;
x = 161;
y = 570;
}
);
}
);
lib = {
};
name = N;
unicodes = (
);
width = 755;
};
layer_01 = {
anchors = (
);
components = (
);
contours = (
);
lib = {
};
name = N;
unicodes = (
);
width = 755;
};
layer_02 = {
anchors = (
);
components = (
);
contours = (
);
lib = {
};
name = N;
unicodes = (
);
width = 755;
};
};
};
},
{
glyphname = O;
lastChange = "2015-03-04 20:31:46 +0000";
layers = (
{
anchors = (
{
name = bottom;
position = "{378, -10}";
},
{
name = top;
position = "{378, 730}";
}
);
layerId = "E777F328-EA17-4AE7-9EBA-8002E537BA4F";
name = Light;
paths = (
{
closed = 1;
nodes = (
"588 -17 OFFCURVE",
"696 146 OFFCURVE",
"696 340 CURVE",
"696 530 OFFCURVE",
"588 694 OFFCURVE",
"378 694 CURVE",
"167 694 OFFCURVE",
"60 530 OFFCURVE",
"60 338 CURVE",
"60 146 OFFCURVE",
"167 -17 OFFCURVE",
"378 -17 CURVE"
);
},
{
closed = 1;
nodes = (
"208 30 OFFCURVE",
"116 163 OFFCURVE",
"116 339 CURVE",
"116 512 OFFCURVE",
"208 647 OFFCURVE",
"378 647 CURVE",
"548 647 OFFCURVE",
"640 512 OFFCURVE",
"640 339 CURVE",
"640 163 OFFCURVE",
"548 30 OFFCURVE",
"378 30 CURVE"
);
}
);
width = 756;
},
{
anchors = (
{
name = bottom;
position = "{414, -10}";
},
{
name = top;
position = "{414, 730}";
}
);
layerId = "AE81D269-4BA9-4AA4-8188-ACE3070EB296";
name = Bold;
paths = (
{
closed = 1;
nodes = (
"657 -12 OFFCURVE",
"783 149 OFFCURVE",
"783 340 CURVE SMOOTH",
"783 529 OFFCURVE",
"657 691 OFFCURVE",
"414 691 CURVE SMOOTH",
"171 691 OFFCURVE",
"45 530 OFFCURVE",
"45 340 CURVE SMOOTH",
"45 150 OFFCURVE",
"171 -12 OFFCURVE",
"414 -12 CURVE SMOOTH"
);
},
{
closed = 1;
nodes = (
"293 117 OFFCURVE",
"225 214 OFFCURVE",
"225 340 CURVE SMOOTH",
"225 466 OFFCURVE",
"293 562 OFFCURVE",
"414 562 CURVE SMOOTH",
"535 562 OFFCURVE",
"603 466 OFFCURVE",
"603 340 CURVE SMOOTH",
"603 214 OFFCURVE",
"535 117 OFFCURVE",
"414 117 CURVE SMOOTH"
);
}
);
width = 828;
}
);
leftKerningGroup = RoundsUC;
rightKerningGroup = RoundsUC;
unicode = 004F;
userData = {
com.typemytype.robofont.guides = (
);
com.typemytype.robofont.layerData = {
background = {
anchors = (
);
components = (
);
contours = (
);
lib = {
};
name = O;
unicodes = (
);
width = 756;
};
layer_01 = {
anchors = (
);
components = (
);
contours = (
);
lib = {
};
name = O;
unicodes = (
);
width = 756;
};
layer_02 = {
anchors = (
);
components = (
);
contours = (
);
lib = {
};
name = O;
unicodes = (
);
width = 756;
};
};
};
},
{
glyphname = Oslash;
lastChange = "2015-03-04 20:31:46 +0000";
layers = (
{
components = (
{
name = O;
}
);
layerId = "E777F328-EA17-4AE7-9EBA-8002E537BA4F";
name = Light;
paths = (
{
closed = 1;
nodes = (
"696 667 LINE",
"665 695 LINE",
"60 6 LINE",
"92 -22 LINE"
);
}
);
width = 805;
},
{
components = (
{
name = O;
}
);
guideLines = (
{
position = "{641, 743}";
},
{
position = "{641, -70}";
}
);
layerId = "AE81D269-4BA9-4AA4-8188-ACE3070EB296";
name = Bold;
paths = (
{
closed = 1;
nodes = (
"773 661 LINE",
"677 743 LINE",
"55 12 LINE",
"151 -70 LINE"
);
}
);
width = 828;
}
);
leftKerningGroup = RoundsUC;
rightKerningGroup = RoundsUC;
unicode = 00D8;
userData = {
com.typemytype.robofont.guides = (
{
angle = 90;
isGlobal = 0;
magnetic = 5;
x = 60;
y = 303;
},
{
angle = 90;
isGlobal = 0;
magnetic = 5;
x = 696;
y = 301;
}
);
com.typemytype.robofont.layerData = {
background = {
anchors = (
);
components = (
);
contours = (
);
lib = {
};
name = Oslash;
unicodes = (
);
width = 805;
};
layer_01 = {
anchors = (
);
components = (
);
contours = (
);
lib = {
};
name = Oslash;
unicodes = (
);
width = 805;
};
layer_02 = {
anchors = (
);
components = (
);
contours = (
);
lib = {
};
name = Oslash;
unicodes = (
);
width = 805;
};
};
};
},
{
glyphname = OE;
lastChange = "2015-03-04 20:31:46 +0000";
layers = (
{
layerId = "E777F328-EA17-4AE7-9EBA-8002E537BA4F";
name = Light;
paths = (
{
closed = 1;
nodes = (
"569 0 LINE",
"569 46 LINE",
"378 46 LINE",
"208 46 OFFCURVE",
"116 165 OFFCURVE",
"116 340 CURVE",
"116 518 OFFCURVE",
"208 634 OFFCURVE",
"378 634 CURVE",
"569 634 LINE",
"569 680 LINE",
"378 680 LINE",
"168 680 OFFCURVE",
"60 535 OFFCURVE",
"60 339 CURVE",
"60 148 OFFCURVE",
"168 0 OFFCURVE",
"378 0 CURVE"
);
},
{
closed = 1;
nodes = (
"941 0 LINE",
"941 46 LINE",
"571 46 LINE",
"571 0 LINE"
);
},
{
closed = 1;
nodes = (
"598 0 LINE",
"598 680 LINE",
"542 680 LINE",
"542 0 LINE"
);
},
{
closed = 1;
nodes = (
"881 337 LINE",
"881 383 LINE",
"571 383 LINE",
"571 337 LINE"
);
},
{
closed = 1;
nodes = (
"921 634 LINE",
"921 680 LINE",
"571 680 LINE",
"571 634 LINE"
);
}
);
width = 1001;
},
{
layerId = "AE81D269-4BA9-4AA4-8188-ACE3070EB296";
name = Bold;
paths = (
{
closed = 1;
nodes = (
"596 0 LINE",
"596 127 LINE",
"405 127 LINE",
"290 127 OFFCURVE",
"225 215 OFFCURVE",
"225 340 CURVE",
"225 467 OFFCURVE",
"290 553 OFFCURVE",
"405 553 CURVE",
"596 553 LINE",
"596 680 LINE",
"405 680 LINE",
"169 680 OFFCURVE",
"45 535 OFFCURVE",
"45 339 CURVE",
"45 148 OFFCURVE",
"169 0 OFFCURVE",
"405 0 CURVE"
);
},
{
closed = 1;
nodes = (
"968 0 LINE",
"968 125 LINE",
"598 125 LINE",
"598 0 LINE"
);
},
{
closed = 1;
nodes = (
"687 0 LINE",
"687 680 LINE",
"507 680 LINE",
"507 0 LINE"
);
},
{
closed = 1;
nodes = (
"908 297 LINE",
"908 422 LINE",
"598 422 LINE",
"598 297 LINE"
);
},
{
closed = 1;
nodes = (
"948 555 LINE",
"948 680 LINE",
"598 680 LINE",
"598 555 LINE"
);
}
);
width = 1018;
}
);
leftKerningGroup = RoundsUC;
rightKerningGroup = E;
unicode = 0152;
userData = {
com.typemytype.robofont.layerData = {
background = {
anchors = (
);
components = (
);
contours = (
);
lib = {
};
name = OE;
unicodes = (
);
width = 1001;
};
layer_01 = {
anchors = (
);
components = (
);
contours = (
);
lib = {
};
name = OE;
unicodes = (
);
width = 1001;
};
layer_02 = {
anchors = (
);
components = (
);
contours = (
);
lib = {
};
name = OE;
unicodes = (
);
width = 1001;
};
};
};
},
{
glyphname = P;
lastChange = "2015-03-04 20:31:46 +0000";
layers = (
{
layerId = "E777F328-EA17-4AE7-9EBA-8002E537BA4F";
name = Light;
paths = (
{
closed = 1;
nodes = (
"330 300 LINE",
"481 300 OFFCURVE",
"558 379 OFFCURVE",
"558 491 CURVE",
"558 597 OFFCURVE",
"481 680 OFFCURVE",
"330 680 CURVE",
"149 680 LINE",
"149 634 LINE",
"330 634 LINE",
"441 634 OFFCURVE",
"502 576 OFFCURVE",
"502 490 CURVE",
"502 394 OFFCURVE",
"441 346 OFFCURVE",
"330 346 CURVE",
"149 346 LINE",
"149 300 LINE"
);
},
{
closed = 1;
nodes = (
"176 0 LINE",
"176 680 LINE",
"120 680 LINE",
"120 0 LINE"
);
}
);
width = 588;
},
{
layerId = "AE81D269-4BA9-4AA4-8188-ACE3070EB296";
name = Bold;
paths = (
{
closed = 1;
nodes = (
"372 230 LINE SMOOTH",
"568 230 OFFCURVE",
"652 300 OFFCURVE",
"652 455 CURVE SMOOTH",
"652 610 OFFCURVE",
"568 680 OFFCURVE",
"372 680 CURVE SMOOTH",
"181 680 LINE",
"181 555 LINE",
"372 555 LINE SMOOTH",
"444 555 OFFCURVE",
"472 525 OFFCURVE",
"472 455 CURVE SMOOTH",
"472 386 OFFCURVE",
"444 356 OFFCURVE",
"372 355 CURVE SMOOTH",
"181 355 LINE",
"181 230 LINE"
);
},
{
closed = 1;
nodes = (
"270 0 LINE",
"270 680 LINE",
"90 680 LINE",
"90 0 LINE"
);
}
);
width = 682;
}
);
leftKerningGroup = StraightsUC;
rightKerningGroup = P;
unicode = 0050;
userData = {
com.typemytype.robofont.layerData = {
background = {
anchors = (
);
components = (
);
contours = (
{
points = (
{
segmentType = curve;
smooth = 1;
x = 289;
y = 295;
},
{
smooth = 0;
x = 464;
y = 295;
},
{
smooth = 0;
x = 569;
y = 402;
},
{
segmentType = curve;
smooth = 1;
x = 569;
y = 506;
},
{
smooth = 0;
x = 569;
y = 651;
},
{
smooth = 0;
x = 454;
y = 688;
},
{
segmentType = curve;
smooth = 1;
x = 289;
y = 688;
},
{
smooth = 0;
x = 252;
y = 688;
},
{
smooth = 0;
x = 200;
y = 685;
},
{
segmentType = curve;
smooth = 1;
x = 156;
y = 683;
},
{
smooth = 0;
x = 107;
y = 681;
},
{
smooth = 0;
x = 46;
y = 680;
},
{
segmentType = curve;
smooth = 0;
x = "-13";
y = 680;
},
{
segmentType = line;
smooth = 0;
x = "-13";
y = 649;
},
{
segmentType = line;
smooth = 0;
x = 91;
y = 610;
},
{
segmentType = line;
smooth = 0;
x = 91;
y = 70;
},
{
segmentType = line;
smooth = 0;
x = "-13";
y = 31;
},
{
segmentType = line;
smooth = 0;
x = "-13";
y = 0;
},
{
segmentType = line;
smooth = 0;
x = 309;
y = 0;
},
{
segmentType = line;
smooth = 0;
x = 309;
y = 38;
},
{
segmentType = line;
smooth = 0;
x = 206;
y = 57;
},
{
segmentType = line;
smooth = 0;
x = 206;
y = 298;
},
{
smooth = 0;
x = 227;
y = 296;
},
{
smooth = 0;
x = 257;
y = 295;
}
);
},
{
points = (
{
segmentType = line;
smooth = 0;
x = 206;
y = 638;
},
{
smooth = 0;
x = 218;
y = 640;
},
{
smooth = 0;
x = 254;
y = 642;
},
{
segmentType = curve;
smooth = 1;
x = 275;
y = 642;
},
{
smooth = 0;
x = 384;
y = 642;
},
{
smooth = 0;
x = 434;
y = 571;
},
{
segmentType = curve;
smooth = 1;
x = 434;
y = 482;
},
{
smooth = 0;
x = 434;
y = 411;
},
{
smooth = 0;
x = 384;
y = 340;
},
{
segmentType = curve;
smooth = 1;
x = 275;
y = 340;
},
{
smooth = 0;
x = 257;
y = 340;
},
{
smooth = 0;
x = 228;
y = 341;
},
{
segmentType = curve;
smooth = 0;
x = 206;
y = 344;
}
);
}
);
lib = {
};
name = P;
unicodes = (
);
width = 588;
};
layer_01 = {
anchors = (
);
components = (
);
contours = (
);
lib = {
};
name = P;
unicodes = (
);
width = 588;
};
layer_02 = {
anchors = (
);
components = (
);
contours = (
);
lib = {
};
name = P;
unicodes = (
);
width = 588;
};
};
};
},
{
glyphname = Thorn;
lastChange = "2015-03-04 20:31:46 +0000";
layers = (
{
layerId = "E777F328-EA17-4AE7-9EBA-8002E537BA4F";
name = Light;
paths = (
{
closed = 1;
nodes = (
"330 160 LINE",
"481 160 OFFCURVE",
"558 239 OFFCURVE",
"558 351 CURVE",
"558 457 OFFCURVE",
"481 540 OFFCURVE",
"330 540 CURVE",
"149 540 LINE",
"149 494 LINE",
"330 494 LINE",
"441 494 OFFCURVE",
"502 436 OFFCURVE",
"502 350 CURVE",
"502 254 OFFCURVE",
"441 206 OFFCURVE",
"330 206 CURVE",
"149 206 LINE",
"149 160 LINE"
);
},
{
closed = 1;
nodes = (
"176 0 LINE",
"176 680 LINE",
"120 680 LINE",
"120 0 LINE"
);
}
);
width = 641;
},
{
layerId = "AE81D269-4BA9-4AA4-8188-ACE3070EB296";
name = Bold;
paths = (
{
closed = 1;
nodes = (
"372 125 LINE SMOOTH",
"568 125 OFFCURVE",
"652 195 OFFCURVE",
"652 350 CURVE SMOOTH",
"652 505 OFFCURVE",
"568 575 OFFCURVE",
"372 575 CURVE SMOOTH",
"181 575 LINE",
"181 450 LINE",
"372 450 LINE SMOOTH",
"444 450 OFFCURVE",
"472 420 OFFCURVE",
"472 350 CURVE SMOOTH",
"472 281 OFFCURVE",
"444 251 OFFCURVE",
"372 250 CURVE SMOOTH",
"181 250 LINE",
"181 125 LINE"
);
},
{
closed = 1;
nodes = (
"270 0 LINE",
"270 680 LINE",
"90 680 LINE",
"90 0 LINE"
);
}
);
width = 705;
}
);
leftKerningGroup = StraightsUC;
rightKerningGroup = Thorn;
unicode = 00DE;
userData = {
com.typemytype.robofont.layerData = {
background = {
anchors = (
);
components = (
);
contours = (
{
points = (
{
segmentType = line;
smooth = 0;
x = 264;
y = 623;
},
{
segmentType = line;
smooth = 0;
x = 367;
y = 642;
},
{
segmentType = line;
smooth = 0;
x = 367;
y = 680;
},
{
segmentType = line;
smooth = 0;
x = 45;
y = 680;
},
{
segmentType = line;
smooth = 0;
x = 45;
y = 649;
},
{
segmentType = line;
smooth = 0;
x = 149;
y = 610;
},
{
segmentType = line;
smooth = 0;
x = 149;
y = 70;
},
{
segmentType = line;
smooth = 0;
x = 45;
y = 31;
},
{
segmentType = line;
smooth = 0;
x = 45;
y = 0;
},
{
segmentType = line;
smooth = 0;
x = 367;
y = 0;
},
{
segmentType = line;
smooth = 0;
x = 367;
y = 38;
},
{
segmentType = line;
smooth = 0;
x = 264;
y = 57;
},
{
segmentType = line;
smooth = 0;
x = 264;
y = 180;
},
{
smooth = 0;
x = 285;
y = 179;
},
{
smooth = 0;
x = 315;
y = 178;
},
{
segmentType = curve;
smooth = 1;
x = 347;
y = 178;
},
{
smooth = 0;
x = 508;
y = 178;
},
{
smooth = 0;
x = 613;
y = 285;
},
{
segmentType = curve;
smooth = 1;
x = 613;
y = 370;
},
{
smooth = 0;
x = 613;
y = 496;
},
{
smooth = 0;
x = 493;
y = 533;
},
{
segmentType = curve;
smooth = 1;
x = 347;
y = 533;
},
{
smooth = 0;
x = 323;
y = 533;
},
{
smooth = 0;
x = 293;
y = 531;
},
{
segmentType = curve;
smooth = 0;
x = 264;
y = 530;
}
);
},
{
points = (
{
segmentType = line;
smooth = 0;
x = 264;
y = 483;
},
{
smooth = 0;
x = 276;
y = 485;
},
{
smooth = 0;
x = 312;
y = 487;
},
{
segmentType = curve;
smooth = 1;
x = 333;
y = 487;
},
{
smooth = 0;
x = 433;
y = 487;
},
{
smooth = 0;
x = 473;
y = 426;
},
{
segmentType = curve;
smooth = 1;
x = 473;
y = 346;
},
{
smooth = 0;
x = 473;
y = 284;
},
{
smooth = 0;
x = 433;
y = 223;
},
{
segmentType = curve;
smooth = 1;
x = 333;
y = 223;
},
{
smooth = 0;
x = 315;
y = 223;
},
{
smooth = 0;
x = 286;
y = 224;
},
{
segmentType = curve;
smooth = 0;
x = 264;
y = 227;
}
);
}
);
lib = {
};
name = Thorn;
unicodes = (
);
width = 641;
};
layer_01 = {
anchors = (
);
components = (
);
contours = (
);
lib = {
};
name = Thorn;
unicodes = (
);
width = 641;
};
layer_02 = {
anchors = (
);
components = (
);
contours = (
);
lib = {
};
name = Thorn;
unicodes = (
);
width = 641;
};
};
};
},
{
glyphname = Q;
lastChange = "2015-03-04 20:31:46 +0000";
layers = (
{
layerId = "E777F328-EA17-4AE7-9EBA-8002E537BA4F";
name = Light;
paths = (
{
closed = 1;
nodes = (
"588 -17 OFFCURVE",
"696 146 OFFCURVE",
"696 340 CURVE",
"696 530 OFFCURVE",
"588 694 OFFCURVE",
"378 694 CURVE",
"167 694 OFFCURVE",
"60 530 OFFCURVE",
"60 338 CURVE",
"60 146 OFFCURVE",
"167 -17 OFFCURVE",
"378 -17 CURVE"
);
},
{
closed = 1;
nodes = (
"764 -239 OFFCURVE",
"797 -225 OFFCURVE",
"832 -196 CURVE",
"816 -154 LINE",
"793 -173 OFFCURVE",
"764 -187 OFFCURVE",
"732 -187 CURVE SMOOTH",
"692 -187 OFFCURVE",
"650 -157 OFFCURVE",
"602 -101 CURVE SMOOTH",
"484 38 LINE",
"433 13 LINE",
"560 -138 LINE SMOOTH",
"615 -203 OFFCURVE",
"671 -239 OFFCURVE",
"727 -239 CURVE SMOOTH"
);
},
{
closed = 1;
nodes = (
"208 30 OFFCURVE",
"116 163 OFFCURVE",
"116 339 CURVE",
"116 512 OFFCURVE",
"208 647 OFFCURVE",
"378 647 CURVE",
"548 647 OFFCURVE",
"640 512 OFFCURVE",
"640 339 CURVE",
"640 163 OFFCURVE",
"548 30 OFFCURVE",
"378 30 CURVE"
);
}
);
width = 756;
},
{
layerId = "AE81D269-4BA9-4AA4-8188-ACE3070EB296";
name = Bold;
paths = (
{
closed = 1;
nodes = (
"657 -12 OFFCURVE",
"783 149 OFFCURVE",
"783 340 CURVE SMOOTH",
"783 529 OFFCURVE",
"657 691 OFFCURVE",
"414 691 CURVE SMOOTH",
"171 691 OFFCURVE",
"45 530 OFFCURVE",
"45 340 CURVE SMOOTH",
"45 150 OFFCURVE",
"171 -12 OFFCURVE",
"414 -12 CURVE SMOOTH"
);
},
{
closed = 1;
nodes = (
"834 -239 OFFCURVE",
"878 -226 OFFCURVE",
"930 -196 CURVE",
"914 -74 LINE",
"876 -95 OFFCURVE",
"835 -107 OFFCURVE",
"788 -107 CURVE SMOOTH",
"741 -107 OFFCURVE",
"691 -90 OFFCURVE",
"634 -22 CURVE SMOOTH",
"551 75 LINE",
"407 13 LINE",
"534 -138 LINE SMOOTH",
"598 -214 OFFCURVE",
"680 -239 OFFCURVE",
"783 -239 CURVE SMOOTH"
);
},
{
closed = 1;
nodes = (
"293 117 OFFCURVE",
"225 214 OFFCURVE",
"225 340 CURVE SMOOTH",
"225 466 OFFCURVE",
"293 562 OFFCURVE",
"414 562 CURVE SMOOTH",
"535 562 OFFCURVE",
"603 466 OFFCURVE",
"603 340 CURVE SMOOTH",
"603 214 OFFCURVE",
"535 117 OFFCURVE",
"414 117 CURVE SMOOTH"
);
}
);
width = 828;
}
);
leftKerningGroup = RoundsUC;
rightKerningGroup = Q;
unicode = 0051;
userData = {
com.typemytype.robofont.layerData = {
background = {
anchors = (
);
components = (
);
contours = (
{
points = (
{
segmentType = curve;
smooth = 1;
x = 37;
y = 332;
},
{
smooth = 0;
x = 37;
y = 121;
},
{
smooth = 0;
x = 183;
y = "-22";
},
{
segmentType = curve;
smooth = 1;
x = 361;
y = "-22";
},
{
smooth = 0;
x = 380;
y = "-22";
},
{
smooth = 0;
x = 398;
y = "-21";
},
{
segmentType = curve;
smooth = 0;
x = 416;
y = "-18";
},
{
smooth = 0;
x = 444;
y = "-55";
},
{
smooth = 0;
x = 470;
y = "-89";
},
{
segmentType = curve;
smooth = 1;
x = 499;
y = "-123";
},
{
smooth = 0;
x = 553;
y = "-187";
},
{
smooth = 0;
x = 633;
y = "-239";
},
{
segmentType = curve;
smooth = 1;
x = 720;
y = "-239";
},
{
smooth = 0;
x = 766;
y = "-239";
},
{
smooth = 0;
x = 827;
y = "-207";
},
{
segmentType = curve;
smooth = 0;
x = 863;
y = "-179";
},
{
segmentType = line;
smooth = 0;
x = 849;
y = "-147";
},
{
smooth = 0;
x = 821;
y = "-159";
},
{
smooth = 0;
x = 798;
y = "-165";
},
{
segmentType = curve;
smooth = 1;
x = 781;
y = "-165";
},
{
smooth = 0;
x = 693;
y = "-165";
},
{
smooth = 0;
x = 636;
y = "-97";
},
{
segmentType = curve;
smooth = 1;
x = 587;
y = "-44";
},
{
segmentType = line;
smooth = 0;
x = 534;
y = 17;
},
{
smooth = 0;
x = 652;
y = 75;
},
{
smooth = 0;
x = 728;
y = 195;
},
{
segmentType = curve;
smooth = 1;
x = 728;
y = 354;
},
{
smooth = 0;
x = 728;
y = 558;
},
{
smooth = 0;
x = 582;
y = 695;
},
{
segmentType = curve;
smooth = 1;
x = 405;
y = 695;
},
{
smooth = 0;
x = 210;
y = 695;
},
{
smooth = 0;
x = 37;
y = 564;
}
);
},
{
points = (
{
segmentType = curve;
smooth = 1;
x = 172;
y = 364;
},
{
smooth = 0;
x = 172;
y = 517;
},
{
smooth = 0;
x = 240;
y = 642;
},
{
segmentType = curve;
smooth = 1;
x = 371;
y = 642;
},
{
smooth = 0;
x = 548;
y = 642;
},
{
smooth = 0;
x = 593;
y = 502;
},
{
segmentType = curve;
smooth = 1;
x = 593;
y = 309;
},
{
smooth = 0;
x = 593;
y = 174;
},
{
smooth = 0;
x = 540;
y = 35;
},
{
segmentType = curve;
smooth = 1;
x = 397;
y = 35;
},
{
smooth = 0;
x = 261;
y = 35;
},
{
smooth = 0;
x = 172;
y = 140;
}
);
}
);
lib = {
};
name = Q;
unicodes = (
);
width = 756;
};
layer_01 = {
anchors = (
);
components = (
);
contours = (
);
lib = {
};
name = Q;
unicodes = (
);
width = 756;
};
layer_02 = {
anchors = (
);
components = (
);
contours = (
);
lib = {
};
name = Q;
unicodes = (
);
width = 756;
};
};
};
},
{
glyphname = R;
lastChange = "2015-03-04 20:31:46 +0000";
layers = (
{
anchors = (
{
name = bottom;
position = "{328, -10}";
},
{
name = top;
position = "{298, 730}";
}
);
layerId = "E777F328-EA17-4AE7-9EBA-8002E537BA4F";
name = Light;
paths = (
{
closed = 1;
nodes = (
"330 320 LINE",
"337 323 LINE",
"476 325 OFFCURVE",
"548 397 OFFCURVE",
"548 501 CURVE",
"548 601 OFFCURVE",
"474 680 OFFCURVE",
"330 680 CURVE",
"149 680 LINE",
"149 634 LINE",
"330 634 LINE",
"435 634 OFFCURVE",
"492 580 OFFCURVE",
"492 500 CURVE",
"492 410 OFFCURVE",
"435 366 OFFCURVE",
"330 366 CURVE",
"149 366 LINE",
"149 320 LINE"
);
},
{
closed = 1;
nodes = (
"176 0 LINE",
"176 680 LINE",
"120 680 LINE",
"120 0 LINE"
);
},
{
closed = 1;
nodes = (
"606 0 LINE",
"359 339 LINE",
"295 339 LINE",
"542 0 LINE"
);
}
);
width = 656;
},
{
anchors = (
{
name = bottom;
position = "{378, -10}";
},
{
name = top;
position = "{348, 730}";
}
);
layerId = "AE81D269-4BA9-4AA4-8188-ACE3070EB296";
name = Bold;
paths = (
{
closed = 1;
nodes = (
"381 250 LINE",
"395 263 LINE",
"558 263 OFFCURVE",
"642 329 OFFCURVE",
"642 475 CURVE SMOOTH",
"642 616 OFFCURVE",
"558 680 OFFCURVE",
"362 680 CURVE SMOOTH",
"181 680 LINE",
"181 555 LINE",
"362 555 LINE SMOOTH",
"434 555 OFFCURVE",
"462 528 OFFCURVE",
"462 465 CURVE SMOOTH",
"462 404 OFFCURVE",
"434 375 OFFCURVE",
"362 375 CURVE SMOOTH",
"181 375 LINE",
"181 250 LINE"
);
},
{
closed = 1;
nodes = (
"270 0 LINE",
"270 680 LINE",
"90 680 LINE",
"90 0 LINE"
);
},
{
closed = 1;
nodes = (
"732 0 LINE",
"508 339 LINE SMOOTH",
"310 339 LINE",
"524 0 LINE"
);
}
);
width = 742;
}
);
leftKerningGroup = StraightsUC;
rightKerningGroup = R;
unicode = 0052;
userData = {
com.typemytype.robofont.layerData = {
background = {
anchors = (
);
components = (
);
contours = (
{
points = (
{
segmentType = line;
smooth = 0;
x = 206;
y = 318;
},
{
segmentType = line;
smooth = 0;
x = 291;
y = 318;
},
{
segmentType = line;
smooth = 0;
x = 504;
y = 0;
},
{
segmentType = line;
smooth = 0;
x = 699;
y = 0;
},
{
segmentType = line;
smooth = 0;
x = 699;
y = 38;
},
{
segmentType = line;
smooth = 0;
x = 618;
y = 57;
},
{
smooth = 0;
x = 582;
y = 98;
},
{
smooth = 0;
x = 529;
y = 167;
},
{
segmentType = curve;
smooth = 1;
x = 496;
y = 213;
},
{
smooth = 0;
x = 465;
y = 254;
},
{
smooth = 0;
x = 431;
y = 304;
},
{
segmentType = curve;
smooth = 0;
x = 407;
y = 340;
},
{
smooth = 0;
x = 490;
y = 368;
},
{
smooth = 0;
x = 569;
y = 426;
},
{
segmentType = curve;
smooth = 1;
x = 569;
y = 511;
},
{
smooth = 0;
x = 569;
y = 651;
},
{
smooth = 0;
x = 454;
y = 688;
},
{
segmentType = curve;
smooth = 1;
x = 289;
y = 688;
},
{
smooth = 0;
x = 252;
y = 688;
},
{
smooth = 0;
x = 200;
y = 685;
},
{
segmentType = curve;
smooth = 1;
x = 156;
y = 683;
},
{
smooth = 0;
x = 107;
y = 681;
},
{
smooth = 0;
x = 46;
y = 680;
},
{
segmentType = curve;
smooth = 0;
x = "-13";
y = 680;
},
{
segmentType = line;
smooth = 0;
x = "-13";
y = 649;
},
{
segmentType = line;
smooth = 0;
x = 91;
y = 610;
},
{
segmentType = line;
smooth = 0;
x = 91;
y = 70;
},
{
segmentType = line;
smooth = 0;
x = "-13";
y = 31;
},
{
segmentType = line;
smooth = 0;
x = "-13";
y = 0;
},
{
segmentType = line;
smooth = 0;
x = 309;
y = 0;
},
{
segmentType = line;
smooth = 0;
x = 309;
y = 38;
},
{
segmentType = line;
smooth = 0;
x = 206;
y = 57;
}
);
},
{
points = (
{
segmentType = line;
smooth = 0;
x = 206;
y = 638;
},
{
smooth = 0;
x = 218;
y = 640;
},
{
smooth = 0;
x = 254;
y = 642;
},
{
segmentType = curve;
smooth = 1;
x = 275;
y = 642;
},
{
smooth = 0;
x = 384;
y = 642;
},
{
smooth = 0;
x = 434;
y = 574;
},
{
segmentType = curve;
smooth = 1;
x = 434;
y = 491;
},
{
smooth = 0;
x = 434;
y = 413;
},
{
smooth = 0;
x = 393;
y = 364;
},
{
segmentType = curve;
smooth = 1;
x = 253;
y = 364;
},
{
segmentType = line;
smooth = 0;
x = 206;
y = 364;
}
);
}
);
lib = {
};
name = R;
unicodes = (
);
width = 656;
};
layer_01 = {
anchors = (
);
components = (
);
contours = (
);
lib = {
};
name = R;
unicodes = (
);
width = 656;
};
layer_02 = {
anchors = (
);
components = (
);
contours = (
);
lib = {
};
name = R;
unicodes = (
);
width = 656;
};
};
};
},
{
glyphname = S;
lastChange = "2015-03-04 20:31:46 +0000";
layers = (
{
anchors = (
{
name = bottom;
position = "{301, -10}";
},
{
name = top;
position = "{290, 730}";
}
);
layerId = "E777F328-EA17-4AE7-9EBA-8002E537BA4F";
name = Light;
paths = (
{
closed = 1;
nodes = (
"421 -17 OFFCURVE",
"521 57 OFFCURVE",
"521 176 CURVE SMOOTH",
"521 409 OFFCURVE",
"144 335 OFFCURVE",
"144 516 CURVE SMOOTH",
"144 607 OFFCURVE",
"214 647 OFFCURVE",
"293 647 CURVE SMOOTH",
"362 647 OFFCURVE",
"425 623 OFFCURVE",
"475 580 CURVE",
"505 623 LINE",
"446 669 OFFCURVE",
"383 694 OFFCURVE",
"293 694 CURVE SMOOTH",
"183 694 OFFCURVE",
"89 636 OFFCURVE",
"89 515 CURVE",
"89 283 OFFCURVE",
"465 358 OFFCURVE",
"465 176 CURVE",
"465 84 OFFCURVE",
"392 30 OFFCURVE",
"294 30 CURVE SMOOTH",
"208 30 OFFCURVE",
"139 53 OFFCURVE",
"91 98 CURVE",
"60 54 LINE",
"121 7 OFFCURVE",
"183 -17 OFFCURVE",
"294 -17 CURVE SMOOTH"
);
}
);
width = 581;
},
{
anchors = (
{
name = bottom;
position = "{316, -10}";
},
{
name = top;
position = "{325, 730}";
}
);
layerId = "AE81D269-4BA9-4AA4-8188-ACE3070EB296";
name = Bold;
paths = (
{
closed = 1;
nodes = (
"472 -12 OFFCURVE",
"574 68 OFFCURVE",
"574 199 CURVE",
"574 410 OFFCURVE",
"234 390 OFFCURVE",
"234 492 CURVE",
"234 536 OFFCURVE",
"281 562 OFFCURVE",
"350 562 CURVE",
"405 562 OFFCURVE",
"455 547 OFFCURVE",
"509 524 CURVE",
"544 646 LINE",
"488 675 OFFCURVE",
"413 691 OFFCURVE",
"344 691 CURVE",
"170 691 OFFCURVE",
"58 614 OFFCURVE",
"58 480 CURVE",
"58 272 OFFCURVE",
"398 303 OFFCURVE",
"398 187 CURVE",
"398 137 OFFCURVE",
"336 117 OFFCURVE",
"271 117 CURVE",
"205 117 OFFCURVE",
"146 130 OFFCURVE",
"72 158 CURVE",
"38 35 LINE",
"97 6 OFFCURVE",
"185 -12 OFFCURVE",
"273 -12 CURVE"
);
}
);
width = 614;
}
);
leftKerningGroup = S;
rightKerningGroup = S;
unicode = 0053;
userData = {
com.typemytype.robofont.layerData = {
background = {
anchors = (
);
components = (
);
contours = (
{
points = (
{
segmentType = line;
smooth = 0;
x = 94;
y = 225;
},
{
segmentType = line;
smooth = 0;
x = 63;
y = 225;
},
{
segmentType = line;
smooth = 0;
x = 77;
y = 27;
},
{
smooth = 0;
x = 137;
y = 0;
},
{
smooth = 0;
x = 206;
y = "-22";
},
{
segmentType = curve;
smooth = 1;
x = 295;
y = "-22";
},
{
smooth = 0;
x = 393;
y = "-22";
},
{
smooth = 0;
x = 539;
y = 45;
},
{
segmentType = curve;
smooth = 1;
x = 539;
y = 188;
},
{
smooth = 0;
x = 539;
y = 306;
},
{
smooth = 0;
x = 438;
y = 356;
},
{
segmentType = curve;
smooth = 1;
x = 345;
y = 402;
},
{
segmentType = line;
smooth = 1;
x = 327;
y = 411;
},
{
smooth = 0;
x = 253;
y = 447;
},
{
smooth = 0;
x = 188;
y = 484;
},
{
segmentType = curve;
smooth = 1;
x = 188;
y = 554;
},
{
smooth = 0;
x = 188;
y = 621;
},
{
smooth = 0;
x = 244;
y = 652;
},
{
segmentType = curve;
smooth = 1;
x = 309;
y = 652;
},
{
smooth = 0;
x = 342;
y = 652;
},
{
smooth = 0;
x = 369;
y = 645;
},
{
segmentType = curve;
smooth = 0;
x = 393;
y = 635;
},
{
segmentType = line;
smooth = 0;
x = 475;
y = 518;
},
{
segmentType = line;
smooth = 0;
x = 505;
y = 527;
},
{
segmentType = line;
smooth = 0;
x = 489;
y = 668;
},
{
smooth = 0;
x = 446;
y = 682;
},
{
smooth = 0;
x = 381;
y = 695;
},
{
segmentType = curve;
smooth = 1;
x = 328;
y = 695;
},
{
smooth = 0;
x = 163;
y = 695;
},
{
smooth = 0;
x = 81;
y = 609;
},
{
segmentType = curve;
smooth = 1;
x = 81;
y = 499;
},
{
smooth = 0;
x = 81;
y = 402;
},
{
smooth = 0;
x = 169;
y = 360;
},
{
segmentType = curve;
smooth = 1;
x = 258;
y = 317;
},
{
segmentType = line;
smooth = 1;
x = 276;
y = 308;
},
{
smooth = 0;
x = 357;
y = 268;
},
{
smooth = 0;
x = 432;
y = 226;
},
{
segmentType = curve;
smooth = 1;
x = 432;
y = 140;
},
{
smooth = 0;
x = 432;
y = 79;
},
{
smooth = 0;
x = 389;
y = 26;
},
{
segmentType = curve;
smooth = 1;
x = 284;
y = 26;
},
{
smooth = 0;
x = 260;
y = 26;
},
{
smooth = 0;
x = 238;
y = 29;
},
{
segmentType = curve;
smooth = 0;
x = 222;
y = 36;
}
);
}
);
lib = {
};
name = S;
unicodes = (
);
width = 581;
};
layer_01 = {
anchors = (
);
components = (
);
contours = (
);
lib = {
};
name = S;
unicodes = (
);
width = 581;
};
layer_02 = {
anchors = (
);
components = (
);
contours = (
);
lib = {
};
name = S;
unicodes = (
);
width = 581;
};
};
};
},
{
glyphname = T;
lastChange = "2015-03-04 20:31:46 +0000";
layers = (
{
anchors = (
{
name = bottom;
position = "{315, -10}";
},
{
name = top;
position = "{315, 730}";
}
);
layerId = "E777F328-EA17-4AE7-9EBA-8002E537BA4F";
name = Light;
paths = (
{
closed = 1;
nodes = (
"343 0 LINE",
"343 680 LINE",
"287 680 LINE",
"287 0 LINE"
);
},
{
closed = 1;
nodes = (
"590 634 LINE",
"590 680 LINE",
"40 680 LINE",
"40 634 LINE"
);
}
);
width = 630;
},
{
anchors = (
{
name = bottom;
position = "{295, -10}";
},
{
name = top;
position = "{295, 730}";
}
);
layerId = "AE81D269-4BA9-4AA4-8188-ACE3070EB296";
name = Bold;
paths = (
{
closed = 1;
nodes = (
"385 0 LINE",
"385 680 LINE",
"205 680 LINE",
"205 0 LINE"
);
},
{
closed = 1;
nodes = (
"570 553 LINE",
"570 680 LINE",
"20 680 LINE",
"20 553 LINE"
);
}
);
width = 590;
}
);
leftKerningGroup = T;
rightKerningGroup = T;
unicode = 0054;
userData = {
com.typemytype.robofont.layerData = {
background = {
anchors = (
);
components = (
);
contours = (
);
lib = {
};
name = T;
unicodes = (
);
width = 630;
};
layer_01 = {
anchors = (
);
components = (
);
contours = (
);
lib = {
};
name = T;
unicodes = (
);
width = 630;
};
layer_02 = {
anchors = (
);
components = (
);
contours = (
);
lib = {
};
name = T;
unicodes = (
);
width = 630;
};
};
};
},
{
glyphname = U;
lastChange = "2015-03-04 20:31:46 +0000";
layers = (
{
anchors = (
{
name = bottom;
position = "{449, -10}";
},
{
name = top;
position = "{368, 730}";
}
);
layerId = "E777F328-EA17-4AE7-9EBA-8002E537BA4F";
name = Light;
paths = (
{
closed = 1;
nodes = (
"538 -17 OFFCURVE",
"625 95 OFFCURVE",
"625 249 CURVE SMOOTH",
"625 680 LINE",
"569 680 LINE",
"569 248 LINE SMOOTH",
"569 115 OFFCURVE",
"498 30 OFFCURVE",
"368 30 CURVE",
"237 30 OFFCURVE",
"166 115 OFFCURVE",
"166 248 CURVE SMOOTH",
"166 680 LINE",
"110 680 LINE",
"110 247 LINE SMOOTH",
"110 95 OFFCURVE",
"197 -17 OFFCURVE",
"368 -17 CURVE"
);
}
);
width = 735;
},
{
anchors = (
{
name = bottom;
position = "{441, -10}";
},
{
name = top;
position = "{400, 730}";
}
);
layerId = "AE81D269-4BA9-4AA4-8188-ACE3070EB296";
name = Bold;
paths = (
{
closed = 1;
nodes = (
"610 -12 OFFCURVE",
"719 98 OFFCURVE",
"719 274 CURVE SMOOTH",
"719 680 LINE",
"539 680 LINE",
"539 273 LINE SMOOTH",
"539 160 OFFCURVE",
"488 117 OFFCURVE",
"400 117 CURVE",
"311 117 OFFCURVE",
"260 160 OFFCURVE",
"260 273 CURVE SMOOTH",
"260 680 LINE",
"80 680 LINE",
"80 272 LINE SMOOTH",
"80 98 OFFCURVE",
"189 -12 OFFCURVE",
"400 -12 CURVE"
);
}
);
width = 799;
}
);
leftKerningGroup = U;
rightKerningGroup = U;
unicode = 0055;
userData = {
com.typemytype.robofont.layerData = {
background = {
anchors = (
);
components = (
);
contours = (
);
lib = {
};
name = U;
unicodes = (
);
width = 735;
};
layer_01 = {
anchors = (
);
components = (
);
contours = (
);
lib = {
};
name = U;
unicodes = (
);
width = 735;
};
layer_02 = {
anchors = (
);
components = (
);
contours = (
);
lib = {
};
name = U;
unicodes = (
);
width = 735;
};
};
};
},
{
glyphname = V;
lastChange = "2015-03-04 20:31:46 +0000";
layers = (
{
layerId = "E777F328-EA17-4AE7-9EBA-8002E537BA4F";
name = Light;
paths = (
{
closed = 1;
nodes = (
"349 -9 LINE",
"614 680 LINE",
"559 680 LINE",
"322 61 LINE",
"330 61 LINE",
"92 680 LINE",
"35 680 LINE",
"301 -9 LINE"
);
}
);
width = 649;
},
{
layerId = "AE81D269-4BA9-4AA4-8188-ACE3070EB296";
name = Bold;
paths = (
{
closed = 1;
nodes = (
"456 -5 LINE",
"715 680 LINE",
"534 680 LINE",
"327 50 LINE",
"401 50 LINE",
"193 680 LINE",
"10 680 LINE",
"270 -5 LINE"
);
}
);
width = 725;
}
);
leftKerningGroup = VW;
rightKerningGroup = VW;
unicode = 0056;
userData = {
com.typemytype.robofont.layerData = {
background = {
anchors = (
);
components = (
);
contours = (
{
points = (
{
segmentType = line;
smooth = 0;
x = 710;
y = 623;
},
{
segmentType = line;
smooth = 0;
x = 763;
y = 642;
},
{
segmentType = line;
smooth = 0;
x = 763;
y = 680;
},
{
segmentType = line;
smooth = 0;
x = 528;
y = 680;
},
{
segmentType = line;
smooth = 0;
x = 528;
y = 649;
},
{
segmentType = line;
smooth = 0;
x = 638;
y = 610;
},
{
smooth = 0;
x = 638;
y = 610;
},
{
smooth = 0;
x = 459;
y = 145;
},
{
segmentType = curve;
smooth = 0;
x = 455;
y = 135;
},
{
segmentType = line;
smooth = 0;
x = 451;
y = 135;
},
{
segmentType = line;
smooth = 0;
x = 261;
y = 623;
},
{
segmentType = line;
smooth = 0;
x = 368;
y = 642;
},
{
segmentType = line;
smooth = 0;
x = 368;
y = 680;
},
{
segmentType = line;
smooth = 0;
x = 69;
y = 680;
},
{
segmentType = line;
smooth = 0;
x = 69;
y = 649;
},
{
segmentType = line;
smooth = 0;
x = 139;
y = 610;
},
{
segmentType = line;
smooth = 0;
x = 394;
y = "-20";
},
{
segmentType = line;
smooth = 0;
x = 452;
y = "-20";
}
);
}
);
lib = {
};
name = V;
unicodes = (
);
width = 649;
};
layer_01 = {
anchors = (
);
components = (
);
contours = (
);
lib = {
};
name = V;
unicodes = (
);
width = 649;
};
layer_02 = {
anchors = (
);
components = (
);
contours = (
);
lib = {
};
name = V;
unicodes = (
);
width = 649;
};
};
};
},
{
glyphname = W;
lastChange = "2015-03-04 20:31:46 +0000";
layers = (
{
anchors = (
{
name = bottom;
position = "{494, -10}";
},
{
name = top;
position = "{494, 730}";
}
);
layerId = "E777F328-EA17-4AE7-9EBA-8002E537BA4F";
name = Light;
paths = (
{
closed = 1;
nodes = (
"289 -9 LINE",
"497 607 LINE",
"483 607 LINE",
"690 -9 LINE",
"738 -9 LINE",
"953 680 LINE",
"898 680 LINE",
"711 61 LINE",
"719 61 LINE",
"511 680 LINE",
"469 680 LINE",
"262 61 LINE",
"270 61 LINE",
"92 680 LINE",
"35 680 LINE",
"241 -9 LINE"
);
}
);
width = 988;
},
{
anchors = (
{
name = bottom;
position = "{548, -10}";
},
{
name = top;
position = "{548, 730}";
}
);
guideLines = (
{
angle = 90;
position = "{548, 413}";
}
);
layerId = "AE81D269-4BA9-4AA4-8188-ACE3070EB296";
name = Bold;
paths = (
{
closed = 1;
nodes = (
"414 -5 LINE",
"585 590 LINE",
"511 590 LINE",
"683 -5 LINE",
"866 -5 LINE",
"1102 680 LINE",
"915 680 LINE",
"750 85 LINE",
"800 85 LINE",
"636 680 LINE",
"462 680 LINE",
"299 85 LINE",
"349 85 LINE",
"193 680 LINE",
"10 680 LINE",
"231 -5 LINE"
);
}
);
width = 1112;
}
);
leftKerningGroup = VW;
rightKerningGroup = VW;
unicode = 0057;
userData = {
com.typemytype.robofont.layerData = {
background = {
anchors = (
);
components = (
);
contours = (
);
lib = {
};
name = W;
unicodes = (
);
width = 988;
};
layer_01 = {
anchors = (
);
components = (
);
contours = (
);
lib = {
};
name = W;
unicodes = (
);
width = 988;
};
layer_02 = {
anchors = (
);
components = (
);
contours = (
);
lib = {
};
name = W;
unicodes = (
);
width = 988;
};
};
};
},
{
glyphname = X;
lastChange = "2015-03-04 20:31:46 +0000";
layers = (
{
layerId = "E777F328-EA17-4AE7-9EBA-8002E537BA4F";
name = Light;
paths = (
{
closed = 1;
nodes = (
"114 0 LINE",
"351 323 LINE",
"373 339 LINE",
"623 680 LINE",
"555 680 LINE",
"337 384 LINE",
"318 371 LINE",
"45 0 LINE"
);
},
{
closed = 1;
nodes = (
"642 0 LINE",
"370 371 LINE",
"351 384 LINE",
"133 680 LINE",
"65 680 LINE",
"315 339 LINE",
"337 323 LINE",
"573 0 LINE"
);
}
);
width = 687;
},
{
layerId = "AE81D269-4BA9-4AA4-8188-ACE3070EB296";
name = Bold;
paths = (
{
closed = 1;
nodes = (
"223 0 LINE",
"429 323 LINE",
"462 339 LINE",
"712 680 LINE",
"504 680 LINE",
"326 384 LINE",
"285 371 LINE",
"15 0 LINE"
);
},
{
closed = 1;
nodes = (
"731 0 LINE",
"458 371 LINE",
"418 384 LINE",
"239 680 LINE",
"28 680 LINE",
"276 339 LINE",
"313 323 LINE",
"520 0 LINE"
);
}
);
width = 746;
}
);
leftKerningGroup = X;
rightKerningGroup = X;
unicode = 0058;
userData = {
com.typemytype.robofont.layerData = {
background = {
anchors = (
);
components = (
);
contours = (
);
lib = {
};
name = X;
unicodes = (
);
width = 687;
};
layer_01 = {
anchors = (
);
components = (
);
contours = (
);
lib = {
};
name = X;
unicodes = (
);
width = 687;
};
layer_02 = {
anchors = (
);
components = (
);
contours = (
);
lib = {
};
name = X;
unicodes = (
);
width = 687;
};
};
};
},
{
glyphname = Y;
lastChange = "2015-03-04 20:31:46 +0000";
layers = (
{
anchors = (
{
name = bottom;
position = "{314, -10}";
},
{
name = top;
position = "{314, 730}";
}
);
layerId = "E777F328-EA17-4AE7-9EBA-8002E537BA4F";
name = Light;
paths = (
{
closed = 1;
nodes = (
"326 308 LINE",
"100 680 LINE",
"35 680 LINE",
"293 265 LINE"
);
},
{
closed = 1;
nodes = (
"342 0 LINE",
"342 310 LINE",
"286 310 LINE",
"286 0 LINE"
);
},
{
closed = 1;
nodes = (
"593 680 LINE",
"530 680 LINE",
"303 309 LINE",
"334 266 LINE"
);
}
);
width = 628;
},
{
anchors = (
{
name = bottom;
position = "{346, -10}";
},
{
name = top;
position = "{346, 730}";
}
);
layerId = "AE81D269-4BA9-4AA4-8188-ACE3070EB296";
name = Bold;
paths = (
{
closed = 1;
nodes = (
"401 303 LINE",
"194 680 LINE",
"5 680 LINE",
"263 260 LINE"
);
},
{
closed = 1;
nodes = (
"436 0 LINE",
"436 305 LINE",
"256 305 LINE",
"256 0 LINE"
);
},
{
closed = 1;
nodes = (
"687 680 LINE",
"500 680 LINE",
"292 304 LINE",
"428 261 LINE"
);
}
);
width = 692;
}
);
leftKerningGroup = Y;
rightKerningGroup = Y;
unicode = 0059;
userData = {
com.typemytype.robofont.layerData = {
background = {
anchors = (
);
components = (
);
contours = (
);
lib = {
};
name = Y;
unicodes = (
);
width = 628;
};
layer_01 = {
anchors = (
);
components = (
);
contours = (
);
lib = {
};
name = Y;
unicodes = (
);
width = 628;
};
layer_02 = {
anchors = (
);
components = (
);
contours = (
);
lib = {
};
name = Y;
unicodes = (
);
width = 628;
};
};
};
},
{
glyphname = Z;
lastChange = "2015-03-04 20:31:46 +0000";
layers = (
{
anchors = (
{
name = bottom;
position = "{356, -10}";
},
{
name = top;
position = "{335, 730}";
}
);
layerId = "E777F328-EA17-4AE7-9EBA-8002E537BA4F";
name = Light;
paths = (
{
closed = 1;
nodes = (
"589 0 LINE",
"589 46 LINE",
"134 46 LINE",
"141 33 LINE",
"575 641 LINE",
"575 680 LINE",
"93 680 LINE",
"93 634 LINE",
"527 634 LINE",
"521 647 LINE",
"80 31 LINE",
"80 0 LINE"
);
}
);
width = 649;
},
{
anchors = (
{
name = bottom;
position = "{386, -10}";
},
{
name = top;
position = "{365, 730}";
}
);
layerId = "AE81D269-4BA9-4AA4-8188-ACE3070EB296";
name = Bold;
paths = (
{
closed = 1;
nodes = (
"679 0 LINE",
"679 127 LINE",
"104 127 LINE",
"201 33 LINE",
"665 573 LINE",
"665 680 LINE",
"63 680 LINE",
"63 553 LINE",
"605 553 LINE",
"514 647 LINE",
"50 99 LINE",
"50 0 LINE"
);
}
);
width = 709;
}
);
leftKerningGroup = Z;
rightKerningGroup = Z;
unicode = 005A;
userData = {
com.typemytype.robofont.layerData = {
background = {
anchors = (
);
components = (
);
contours = (
{
points = (
{
segmentType = line;
smooth = 0;
x = 523;
y = 45;
},
{
segmentType = line;
smooth = 0;
x = 228;
y = 45;
},
{
segmentType = line;
smooth = 0;
x = 666;
y = 638;
},
{
segmentType = line;
smooth = 0;
x = 666;
y = 680;
},
{
segmentType = line;
smooth = 0;
x = 283;
y = 680;
},
{
segmentType = line;
smooth = 0;
x = 163;
y = 695;
},
{
segmentType = line;
smooth = 0;
x = 144;
y = 695;
},
{
segmentType = line;
smooth = 0;
x = 125;
y = 489;
},
{
segmentType = line;
smooth = 0;
x = 158;
y = 479;
},
{
segmentType = line;
smooth = 0;
x = 262;
y = 635;
},
{
segmentType = line;
smooth = 0;
x = 530;
y = 635;
},
{
segmentType = line;
smooth = 0;
x = 87;
y = 31;
},
{
segmentType = line;
smooth = 0;
x = 87;
y = 0;
},
{
segmentType = line;
smooth = 0;
x = 660;
y = 0;
},
{
segmentType = line;
smooth = 0;
x = 685;
y = 196;
},
{
segmentType = line;
smooth = 0;
x = 654;
y = 196;
}
);
}
);
lib = {
};
name = Z;
unicodes = (
);
width = 649;
};
layer_01 = {
anchors = (
);
components = (
);
contours = (
);
lib = {
};
name = Z;
unicodes = (
);
width = 649;
};
layer_02 = {
anchors = (
);
components = (
);
contours = (
);
lib = {
};
name = Z;
unicodes = (
);
width = 649;
};
};
};
},
{
glyphname = a;
lastChange = "2015-03-04 20:31:46 +0000";
layers = (
{
anchors = (
{
name = bottom;
position = "{410, -10}";
},
{
name = top;
position = "{257, 580}";
}
);
layerId = "E777F328-EA17-4AE7-9EBA-8002E537BA4F";
name = Light;
paths = (
{
closed = 1;
nodes = (
"467 -15 OFFCURVE",
"483 -10 OFFCURVE",
"505 -1 CURVE",
"498 41 LINE",
"480 33 OFFCURVE",
"466 29 OFFCURVE",
"454 29 CURVE SMOOTH",
"432 29 OFFCURVE",
"423 41 OFFCURVE",
"423 70 CURVE SMOOTH",
"423 360 LINE SMOOTH",
"423 487 OFFCURVE",
"386 540 OFFCURVE",
"274 540 CURVE SMOOTH",
"187 540 OFFCURVE",
"115 494 OFFCURVE",
"53 416 CURVE",
"91 387 LINE",
"162 474 OFFCURVE",
"208 493 OFFCURVE",
"275 493 CURVE SMOOTH",
"355 493 OFFCURVE",
"369 425 OFFCURVE",
"369 361 CURVE SMOOTH",
"369 63 LINE SMOOTH",
"369 0 OFFCURVE",
"405 -15 OFFCURVE",
"447 -15 CURVE SMOOTH"
);
},
{
closed = 1;
nodes = (
"255 -16 OFFCURVE",
"328 28 OFFCURVE",
"392 85 CURVE",
"388 129 LINE",
"310 68 OFFCURVE",
"252 29 OFFCURVE",
"190 29 CURVE SMOOTH",
"145 29 OFFCURVE",
"106 49 OFFCURVE",
"106 107 CURVE SMOOTH",
"106 170 OFFCURVE",
"161 204 OFFCURVE",
"295 242 CURVE SMOOTH",
"384 267 LINE",
"386 312 LINE",
"276 281 LINE SMOOTH",
"138 242 OFFCURVE",
"52 203 OFFCURVE",
"52 107 CURVE SMOOTH",
"52 36 OFFCURVE",
"107 -16 OFFCURVE",
"189 -16 CURVE SMOOTH"
);
}
);
width = 530;
},
{
anchors = (
{
name = bottom;
position = "{480, -10}";
},
{
name = top;
position = "{313, 620}";
}
);
layerId = "AE81D269-4BA9-4AA4-8188-ACE3070EB296";
name = Bold;
paths = (
{
closed = 1;
nodes = (
"548 -6 OFFCURVE",
"577 -2 OFFCURVE",
"613 6 CURVE",
"607 124 LINE",
"592 120 OFFCURVE",
"581 119 OFFCURVE",
"569 119 CURVE SMOOTH",
"542 119 OFFCURVE",
"531 131 OFFCURVE",
"531 160 CURVE SMOOTH",
"531 350 LINE SMOOTH",
"531 527 OFFCURVE",
"450 580 OFFCURVE",
"332 580 CURVE SMOOTH",
"219 580 OFFCURVE",
"125 543 OFFCURVE",
"44 497 CURVE",
"77 377 LINE",
"160 432 OFFCURVE",
"220 453 OFFCURVE",
"273 453 CURVE SMOOTH",
"325 453 OFFCURVE",
"357 426 OFFCURVE",
"357 361 CURVE SMOOTH",
"357 137 LINE SMOOTH",
"357 20 OFFCURVE",
"422 -8 OFFCURVE",
"505 -7 CURVE SMOOTH"
);
},
{
closed = 1;
nodes = (
"297 -8 OFFCURVE",
"364 43 OFFCURVE",
"440 109 CURVE",
"436 207 LINE",
"366 158 OFFCURVE",
"313 117 OFFCURVE",
"258 117 CURVE SMOOTH",
"227 117 OFFCURVE",
"214 129 OFFCURVE",
"214 155 CURVE SMOOTH",
"214 196 OFFCURVE",
"242 218 OFFCURVE",
"342 254 CURVE SMOOTH",
"436 287 LINE",
"436 379 LINE",
"327 348 LINE SMOOTH",
"146 296 OFFCURVE",
"40 265 OFFCURVE",
"40 132 CURVE SMOOTH",
"40 55 OFFCURVE",
"104 -8 OFFCURVE",
"197 -8 CURVE SMOOTH"
);
}
);
width = 616;
}
);
leftKerningGroup = a;
rightKerningGroup = a;
unicode = 0061;
userData = {
com.typemytype.robofont.layerData = {
background = {
anchors = (
);
components = (
);
contours = (
{
points = (
{
segmentType = line;
smooth = 0;
x = "-566";
y = 79;
},
{
smooth = 0;
x = "-594";
y = 67;
},
{
smooth = 0;
x = "-617";
y = 57;
},
{
segmentType = curve;
smooth = 1;
x = "-634";
y = 57;
},
{
smooth = 0;
x = "-664";
y = 57;
},
{
smooth = 0;
x = "-665";
y = 93;
},
{
segmentType = curve;
smooth = 1;
x = "-665";
y = 138;
},
{
segmentType = line;
smooth = 1;
x = "-665";
y = 331;
},
{
smooth = 0;
x = "-665";
y = 415;
},
{
smooth = 0;
x = "-670";
y = 472;
},
{
segmentType = curve;
smooth = 1;
x = "-702";
y = 505;
},
{
smooth = 0;
x = "-726";
y = 531;
},
{
smooth = 0;
x = "-767";
y = 542;
},
{
segmentType = curve;
smooth = 1;
x = "-834";
y = 542;
},
{
smooth = 0;
x = "-866";
y = 542;
},
{
smooth = 0;
x = "-901";
y = 526;
},
{
segmentType = curve;
smooth = 1;
x = "-942";
y = 504;
},
{
smooth = 0;
x = "-993";
y = 476;
},
{
smooth = 0;
x = "-1046";
y = 436;
},
{
segmentType = curve;
smooth = 1;
x = "-1046";
y = 406;
},
{
smooth = 0;
x = "-1046";
y = 385;
},
{
smooth = 0;
x = "-1037";
y = 360;
},
{
segmentType = curve;
smooth = 1;
x = "-1000";
y = 360;
},
{
smooth = 0;
x = "-978";
y = 360;
},
{
smooth = 0;
x = "-963";
y = 365;
},
{
segmentType = curve;
smooth = 0;
x = "-948";
y = 369;
},
{
segmentType = line;
smooth = 0;
x = "-948";
y = 451;
},
{
smooth = 0;
x = "-933";
y = 462;
},
{
smooth = 0;
x = "-912";
y = 468;
},
{
segmentType = curve;
smooth = 1;
x = "-885";
y = 468;
},
{
smooth = 0;
x = "-775";
y = 468;
},
{
smooth = 0;
x = "-770";
y = 398;
},
{
segmentType = curve;
smooth = 1;
x = "-770";
y = 332;
},
{
segmentType = line;
smooth = 0;
x = "-770";
y = 312;
},
{
smooth = 0;
x = "-817";
y = 295;
},
{
smooth = 0;
x = "-884";
y = 269;
},
{
segmentType = curve;
smooth = 1;
x = "-943";
y = 241;
},
{
smooth = 0;
x = "-1010";
y = 209;
},
{
smooth = 0;
x = "-1056";
y = 175;
},
{
segmentType = curve;
smooth = 1;
x = "-1056";
y = 107;
},
{
smooth = 0;
x = "-1056";
y = 36;
},
{
smooth = 0;
x = "-992";
y = "-17";
},
{
segmentType = curve;
smooth = 1;
x = "-919";
y = "-17";
},
{
smooth = 0;
x = "-898";
y = "-17";
},
{
smooth = 0;
x = "-866";
y = "-3";
},
{
segmentType = curve;
smooth = 1;
x = "-838";
y = 12;
},
{
smooth = 0;
x = "-812";
y = 26;
},
{
smooth = 0;
x = "-789";
y = 43;
},
{
segmentType = curve;
smooth = 0;
x = "-766";
y = 60;
},
{
smooth = 0;
x = "-759";
y = 20;
},
{
smooth = 0;
x = "-742";
y = "-17";
},
{
segmentType = curve;
smooth = 1;
x = "-694";
y = "-17";
},
{
smooth = 0;
x = "-658";
y = "-17";
},
{
smooth = 0;
x = "-597";
y = 20;
},
{
segmentType = curve;
smooth = 0;
x = "-552";
y = 48;
}
);
},
{
points = (
{
segmentType = curve;
smooth = 1;
x = "-891";
y = 215;
},
{
smooth = 0;
x = "-863";
y = 231;
},
{
smooth = 0;
x = "-819";
y = 250;
},
{
segmentType = curve;
smooth = 0;
x = "-770";
y = 264;
},
{
segmentType = line;
smooth = 0;
x = "-770";
y = 94;
},
{
smooth = 0;
x = "-801";
y = 75;
},
{
smooth = 0;
x = "-840";
y = 57;
},
{
segmentType = curve;
smooth = 1;
x = "-874";
y = 57;
},
{
smooth = 0;
x = "-902";
y = 57;
},
{
smooth = 0;
x = "-952";
y = 75;
},
{
segmentType = curve;
smooth = 1;
x = "-952";
y = 132;
},
{
smooth = 0;
x = "-952";
y = 166;
},
{
smooth = 0;
x = "-929";
y = 193;
}
);
},
{
points = (
{
segmentType = line;
smooth = 1;
x = "-185";
y = 102;
},
{
smooth = 0;
x = "-185";
y = 21;
},
{
smooth = 0;
x = "-150";
y = "-15";
},
{
segmentType = curve;
smooth = 1;
x = "-94";
y = "-15";
},
{
smooth = 0;
x = "-70";
y = "-15";
},
{
smooth = 0;
x = "-28";
y = 7;
},
{
segmentType = curve;
smooth = 0;
x = 2;
y = 49;
},
{
segmentType = line;
smooth = 0;
x = "-12";
y = 80;
},
{
smooth = 0;
x = "-53";
y = 45;
},
{
smooth = 0;
x = "-73";
y = 29;
},
{
segmentType = curve;
smooth = 1;
x = "-94";
y = 29;
},
{
smooth = 0;
x = "-130";
y = 29;
},
{
smooth = 0;
x = "-131";
y = 63;
},
{
segmentType = curve;
smooth = 1;
x = "-131";
y = 106;
},
{
segmentType = line;
smooth = 1;
x = "-131";
y = 331;
},
{
smooth = 0;
x = "-131";
y = 479;
},
{
smooth = 0;
x = "-158";
y = 540;
},
{
segmentType = curve;
smooth = 1;
x = "-280";
y = 540;
},
{
smooth = 0;
x = "-363";
y = 540;
},
{
smooth = 0;
x = "-428";
y = 487;
},
{
segmentType = curve;
smooth = 0;
x = "-492";
y = 406;
},
{
segmentType = line;
smooth = 0;
x = "-454";
y = 377;
},
{
smooth = 0;
x = "-380";
y = 467;
},
{
smooth = 0;
x = "-348";
y = 493;
},
{
segmentType = curve;
smooth = 1;
x = "-279";
y = 493;
},
{
smooth = 0;
x = "-189";
y = 493;
},
{
smooth = 0;
x = "-185";
y = 2.110459821;
},
{
segmentType = curve;
smooth = 1;
x = "-185";
y = 332;
}
);
},
{
points = (
{
segmentType = line;
smooth = 0;
x = "-166";
y = 99;
},
{
smooth = 0;
x = "-248.687644368834";
y = 0;
},
{
smooth = 0;
x = "-315";
y = 29;
},
{
segmentType = curve;
smooth = 1;
x = "-364";
y = 29;
},
{
smooth = 0;
x = "-409";
y = 29;
},
{
smooth = 0;
x = "-448";
y = 49;
},
{
segmentType = curve;
smooth = 1;
x = "-448";
y = 107;
},
{
smooth = 0;
x = "-448";
y = 183;
},
{
smooth = 0;
x = "-367";
y = 217;
},
{
segmentType = curve;
smooth = 0;
x = "-166";
y = 267;
},
{
segmentType = line;
smooth = 0;
x = "-166";
y = 315;
},
{
smooth = 0;
x = "-375";
y = 255;
},
{
smooth = 0;
x = "-502";
y = 226;
},
{
segmentType = curve;
smooth = 1;
x = "-502";
y = 107;
},
{
smooth = 0;
x = "-502";
y = 36;
},
{
smooth = 0;
x = "-447";
y = "-16";
},
{
segmentType = curve;
smooth = 1;
x = "-365";
y = "-16";
},
{
smooth = 0;
x = "-307";
y = "-16";
},
{
smooth = 0;
x = "-221";
y = 22;
},
{
segmentType = curve;
smooth = 0;
x = "-162";
y = 65;
}
);
},
{
points = (
{
segmentType = line;
smooth = 0;
x = "-130";
y = 4;
},
{
segmentType = line;
smooth = 0;
x = "-130";
y = 524;
},
{
segmentType = line;
smooth = 0;
x = "-184";
y = 524;
},
{
segmentType = line;
smooth = 0;
x = "-184";
y = 4;
}
);
},
{
points = (
{
segmentType = line;
smooth = 0;
x = "-182";
y = 116;
},
{
smooth = 0;
x = "-252";
y = 59;
},
{
smooth = 0;
x = "-308";
y = 31;
},
{
segmentType = curve;
smooth = 1;
x = "-364";
y = 31;
},
{
smooth = 0;
x = "-432";
y = 31;
},
{
smooth = 0;
x = "-456";
y = 68;
},
{
segmentType = curve;
smooth = 1;
x = "-456";
y = 145;
},
{
segmentType = line;
smooth = 0;
x = "-456";
y = 524;
},
{
segmentType = line;
smooth = 0;
x = "-510";
y = 524;
},
{
segmentType = line;
smooth = 1;
x = "-510";
y = 143;
},
{
smooth = 0;
x = "-510";
y = 50;
},
{
smooth = 0;
x = "-485";
y = "-16";
},
{
segmentType = curve;
smooth = 1;
x = "-372";
y = "-16";
},
{
smooth = 0;
x = "-306";
y = "-16";
},
{
smooth = 0;
x = "-237";
y = 16;
},
{
segmentType = curve;
smooth = 0;
x = "-170";
y = 75;
}
);
},
{
points = (
{
segmentType = line;
smooth = 1;
x = 369;
y = 66;
},
{
smooth = 0;
x = 369;
y = 1;
},
{
smooth = 0;
x = 399.625;
y = "-15";
},
{
segmentType = curve;
smooth = 1;
x = 439;
y = "-15";
},
{
smooth = 0;
x = 0;
y = "-15";
},
{
smooth = 0;
x = 510;
y = 6;
},
{
segmentType = curve;
smooth = 0;
x = 556;
y = 49;
},
{
segmentType = line;
smooth = 0;
x = 540;
y = 84;
},
{
smooth = 0;
x = 493;
y = 46;
},
{
smooth = 0;
x = 469;
y = 29;
},
{
segmentType = curve;
smooth = 1;
x = 444;
y = 29;
},
{
smooth = 0;
x = 424;
y = 29;
},
{
smooth = 0;
x = 423;
y = 0;
},
{
segmentType = curve;
smooth = 1;
x = 423;
y = 70;
},
{
segmentType = line;
smooth = 1;
x = 423;
y = 331;
},
{
smooth = 0;
x = 423;
y = 479;
},
{
smooth = 0;
x = 396;
y = 540;
},
{
segmentType = curve;
smooth = 1;
x = 274;
y = 540;
},
{
smooth = 0;
x = "-0.0001958662492";
y = 540;
},
{
smooth = 0;
x = 0;
y = "-0.001889794793";
},
{
segmentType = curve;
smooth = 0;
x = 53;
y = 416;
},
{
segmentType = line;
smooth = 0;
x = 91;
y = 387;
},
{
smooth = 0;
x = 0;
y = 0;
},
{
smooth = 0;
x = 208;
y = 493;
},
{
segmentType = curve;
smooth = 1;
x = 275;
y = 493;
},
{
smooth = 0;
x = 365;
y = 493;
},
{
smooth = 0;
x = 369;
y = 410;
},
{
segmentType = curve;
smooth = 1;
x = 369;
y = 332;
}
);
},
{
points = (
{
segmentType = line;
smooth = 0;
x = 388;
y = 109;
},
{
smooth = 0;
x = 316;
y = 62;
},
{
smooth = 0;
x = 252;
y = 29;
},
{
segmentType = curve;
smooth = 1;
x = 190;
y = 29;
},
{
smooth = 0;
x = 145;
y = 29;
},
{
smooth = 0;
x = 106;
y = 49;
},
{
segmentType = curve;
smooth = 1;
x = 106;
y = 107;
},
{
smooth = 0;
x = 106;
y = 183;
},
{
smooth = 0;
x = 187;
y = 217;
},
{
segmentType = curve;
smooth = 0;
x = 388;
y = 267;
},
{
segmentType = line;
smooth = 0;
x = 388;
y = 315;
},
{
smooth = 0;
x = 179;
y = 255;
},
{
smooth = 0;
x = 52;
y = 226;
},
{
segmentType = curve;
smooth = 1;
x = 52;
y = 107;
},
{
smooth = 0;
x = 52;
y = 36;
},
{
smooth = 0;
x = 107;
y = "-16";
},
{
segmentType = curve;
smooth = 1;
x = 189;
y = "-16";
},
{
smooth = 0;
x = 255;
y = "-16";
},
{
smooth = 0;
x = 333;
y = 22;
},
{
segmentType = curve;
smooth = 0;
x = 392;
y = 65;
}
);
}
);
lib = {
};
name = a;
unicodes = (
);
width = 530;
};
layer_01 = {
anchors = (
);
components = (
);
contours = (
);
lib = {
};
name = a;
unicodes = (
);
width = 530;
};
layer_02 = {
anchors = (
);
components = (
);
contours = (
);
lib = {
};
name = a;
unicodes = (
);
width = 530;
};
};
};
},
{
glyphname = ae;
lastChange = "2015-03-04 20:31:46 +0000";
layers = (
{
anchors = (
{
name = top;
position = "{425, 580}";
}
);
layerId = "E777F328-EA17-4AE7-9EBA-8002E537BA4F";
name = Light;
paths = (
{
closed = 1;
nodes = (
"697 -20 OFFCURVE",
"759 29 OFFCURVE",
"800 83 CURVE",
"772 117 LINE",
"734 67 OFFCURVE",
"683 25 OFFCURVE",
"608 25 CURVE",
"489 25 OFFCURVE",
"425 126 OFFCURVE",
"425 260 CURVE",
"425 392 OFFCURVE",
"489 495 OFFCURVE",
"608 495 CURVE",
"671 495 OFFCURVE",
"741 454 OFFCURVE",
"741 361 CURVE SMOOTH",
"741 346 OFFCURVE",
"739 330 OFFCURVE",
"735 312 CURVE",
"791 312 LINE",
"794 329 OFFCURVE",
"796 345 OFFCURVE",
"796 360 CURVE SMOOTH",
"796 475 OFFCURVE",
"707 540 OFFCURVE",
"608 540 CURVE",
"446 540 OFFCURVE",
"369 407 OFFCURVE",
"369 259 CURVE",
"369 112 OFFCURVE",
"446 -20 OFFCURVE",
"608 -20 CURVE"
);
},
{
closed = 1;
nodes = (
"262 -16 OFFCURVE",
"343 37 OFFCURVE",
"415 104 CURVE",
"408 149 LINE",
"321 77 OFFCURVE",
"258 29 OFFCURVE",
"190 29 CURVE SMOOTH",
"145 29 OFFCURVE",
"106 49 OFFCURVE",
"106 107 CURVE SMOOTH",
"106 170 OFFCURVE",
"161 204 OFFCURVE",
"295 242 CURVE SMOOTH",
"388 267 LINE",
"388 312 LINE",
"276 281 LINE SMOOTH",
"138 242 OFFCURVE",
"52 203 OFFCURVE",
"52 107 CURVE SMOOTH",
"52 36 OFFCURVE",
"107 -16 OFFCURVE",
"189 -16 CURVE SMOOTH"
);
},
{
closed = 1;
nodes = (
"423 259 LINE",
"423 360 LINE SMOOTH",
"423 487 OFFCURVE",
"386 540 OFFCURVE",
"274 540 CURVE SMOOTH",
"187 540 OFFCURVE",
"115 494 OFFCURVE",
"53 416 CURVE",
"91 387 LINE",
"162 474 OFFCURVE",
"208 493 OFFCURVE",
"275 493 CURVE SMOOTH",
"355 493 OFFCURVE",
"369 425 OFFCURVE",
"369 361 CURVE SMOOTH",
"369 259 LINE"
);
},
{
closed = 1;
nodes = (
"764 312 LINE",
"764 356 LINE",
"405 356 LINE",
"405 312 LINE"
);
}
);
width = 850;
},
{
anchors = (
{
name = top;
position = "{504, 620}";
}
);
layerId = "AE81D269-4BA9-4AA4-8188-ACE3070EB296";
name = Bold;
paths = (
{
closed = 1;
nodes = (
"745 -12 OFFCURVE",
"809 13 OFFCURVE",
"879 69 CURVE",
"832 179 LINE",
"775 142 OFFCURVE",
"723 113 OFFCURVE",
"656 113 CURVE",
"562 113 OFFCURVE",
"528 172 OFFCURVE",
"528 286 CURVE",
"528 384 OFFCURVE",
"552 465 OFFCURVE",
"645 465 CURVE SMOOTH",
"694 465 OFFCURVE",
"724 436 OFFCURVE",
"725 381 CURVE SMOOTH",
"725 354 OFFCURVE",
"714 283 OFFCURVE",
"708 252 CURVE",
"880 252 LINE",
"889 282 OFFCURVE",
"893 315 OFFCURVE",
"893 340 CURVE SMOOTH",
"892 492 OFFCURVE",
"811 580 OFFCURVE",
"655 580 CURVE SMOOTH",
"457 580 OFFCURVE",
"362 457 OFFCURVE",
"362 283 CURVE",
"362 118 OFFCURVE",
"453 -12 OFFCURVE",
"655 -12 CURVE"
);
},
{
closed = 1;
nodes = (
"297 -8 OFFCURVE",
"364 43 OFFCURVE",
"440 109 CURVE",
"436 207 LINE",
"366 158 OFFCURVE",
"313 117 OFFCURVE",
"258 117 CURVE SMOOTH",
"227 117 OFFCURVE",
"214 129 OFFCURVE",
"214 155 CURVE SMOOTH",
"214 196 OFFCURVE",
"242 218 OFFCURVE",
"342 254 CURVE SMOOTH",
"436 287 LINE",
"436 379 LINE",
"327 348 LINE SMOOTH",
"146 296 OFFCURVE",
"40 265 OFFCURVE",
"40 132 CURVE SMOOTH",
"40 55 OFFCURVE",
"104 -8 OFFCURVE",
"197 -8 CURVE SMOOTH"
);
},
{
closed = 1;
nodes = (
"511 315 LINE",
"511 350 LINE SMOOTH",
"511 527 OFFCURVE",
"438 580 OFFCURVE",
"332 580 CURVE SMOOTH",
"219 580 OFFCURVE",
"125 543 OFFCURVE",
"44 497 CURVE",
"77 377 LINE",
"160 432 OFFCURVE",
"220 453 OFFCURVE",
"273 453 CURVE SMOOTH",
"325 453 OFFCURVE",
"357 426 OFFCURVE",
"357 361 CURVE SMOOTH",
"357 313 LINE"
);
},
{
closed = 1;
nodes = (
"807 252 LINE",
"807 365 LINE",
"457 365 LINE",
"457 252 LINE"
);
}
);
width = 933;
}
);
leftKerningGroup = a;
rightKerningGroup = e;
unicode = 00E6;
userData = {
com.typemytype.robofont.layerData = {
background = {
anchors = (
);
components = (
);
contours = (
);
lib = {
};
name = ae;
unicodes = (
);
width = 850;
};
layer_01 = {
anchors = (
);
components = (
);
contours = (
);
lib = {
};
name = ae;
unicodes = (
);
width = 850;
};
layer_02 = {
anchors = (
);
components = (
);
contours = (
);
lib = {
};
name = ae;
unicodes = (
);
width = 850;
};
};
};
},
{
glyphname = b;
lastChange = "2015-03-04 20:31:46 +0000";
layers = (
{
layerId = "E777F328-EA17-4AE7-9EBA-8002E537BA4F";
name = Light;
paths = (
{
closed = 1;
nodes = (
"411 -18 OFFCURVE",
"515 82 OFFCURVE",
"515 277 CURVE SMOOTH",
"515 443 OFFCURVE",
"432 541 OFFCURVE",
"312 541 CURVE SMOOTH",
"240 541 OFFCURVE",
"183 509 OFFCURVE",
"142 468 CURVE",
"142 422 LINE",
"204 472 OFFCURVE",
"244 494 OFFCURVE",
"312 494 CURVE SMOOTH",
"382 494 OFFCURVE",
"459 439 OFFCURVE",
"459 277 CURVE SMOOTH",
"459 135 OFFCURVE",
"402 27 OFFCURVE",
"263 27 CURVE SMOOTH",
"204 27 OFFCURVE",
"164 43 OFFCURVE",
"136 66 CURVE",
"114 31 LINE",
"146 8 OFFCURVE",
"193 -18 OFFCURVE",
"264 -18 CURVE SMOOTH"
);
},
{
closed = 1;
nodes = (
"124 -1 LINE",
"154 37 LINE",
"154 800 LINE",
"100 800 LINE",
"100 -1 LINE"
);
}
);
width = 565;
},
{
layerId = "AE81D269-4BA9-4AA4-8188-ACE3070EB296";
name = Bold;
paths = (
{
closed = 1;
nodes = (
"520 -12 OFFCURVE",
"655 71 OFFCURVE",
"655 285 CURVE SMOOTH",
"655 481 OFFCURVE",
"543 580 OFFCURVE",
"387 580 CURVE SMOOTH",
"299 580 OFFCURVE",
"231 540 OFFCURVE",
"182 487 CURVE",
"182 368 LINE",
"249 429 OFFCURVE",
"293 455 OFFCURVE",
"367 455 CURVE SMOOTH",
"426 455 OFFCURVE",
"479 420 OFFCURVE",
"479 285 CURVE SMOOTH",
"479 169 OFFCURVE",
"442 113 OFFCURVE",
"358 113 CURVE SMOOTH",
"284 113 OFFCURVE",
"236 154 OFFCURVE",
"202 182 CURVE",
"182 79 LINE",
"218 40 OFFCURVE",
"286 -12 OFFCURVE",
"379 -12 CURVE SMOOTH"
);
},
{
closed = 1;
nodes = (
"209 0 LINE",
"254 114 LINE",
"254 800 LINE",
"80 800 LINE",
"80 0 LINE"
);
}
);
width = 695;
}
);
leftKerningGroup = straightslc;
rightKerningGroup = roundslc;
unicode = 0062;
userData = {
com.typemytype.robofont.layerData = {
background = {
anchors = (
);
components = (
);
contours = (
);
lib = {
};
name = b;
unicodes = (
);
width = 565;
};
layer_01 = {
anchors = (
);
components = (
);
contours = (
);
lib = {
};
name = b;
unicodes = (
);
width = 565;
};
layer_02 = {
anchors = (
);
components = (
);
contours = (
);
lib = {
};
name = b;
unicodes = (
);
width = 565;
};
};
};
},
{
glyphname = c;
lastChange = "2015-03-04 20:31:46 +0000";
layers = (
{
anchors = (
{
name = bottom;
position = "{292, -10}";
},
{
name = top;
position = "{299, 580}";
}
);
layerId = "E777F328-EA17-4AE7-9EBA-8002E537BA4F";
name = Light;
paths = (
{
closed = 1;
nodes = (
"378 -20 OFFCURVE",
"441 27 OFFCURVE",
"481 80 CURVE",
"453 114 LINE",
"416 65 OFFCURVE",
"364 25 OFFCURVE",
"289 25 CURVE",
"170 25 OFFCURVE",
"106 126 OFFCURVE",
"106 260 CURVE",
"106 392 OFFCURVE",
"173 495 OFFCURVE",
"299 495 CURVE",
"352 495 OFFCURVE",
"406 468 OFFCURVE",
"439 425 CURVE",
"471 465 LINE",
"431 513 OFFCURVE",
"367 540 OFFCURVE",
"299 540 CURVE",
"130 540 OFFCURVE",
"50 407 OFFCURVE",
"50 259 CURVE",
"50 112 OFFCURVE",
"127 -20 OFFCURVE",
"289 -20 CURVE"
);
}
);
width = 510;
},
{
anchors = (
{
name = bottom;
position = "{339, -10}";
},
{
name = top;
position = "{336, 620}";
}
);
layerId = "AE81D269-4BA9-4AA4-8188-ACE3070EB296";
name = Bold;
paths = (
{
closed = 1;
nodes = (
"420 -12 OFFCURVE",
"491 18 OFFCURVE",
"534 51 CURVE",
"487 161 LINE",
"440 134 OFFCURVE",
"397 113 OFFCURVE",
"339 113 CURVE SMOOTH",
"262 113 OFFCURVE",
"216 171 OFFCURVE",
"216 284 CURVE SMOOTH",
"216 397 OFFCURVE",
"267 455 OFFCURVE",
"354 455 CURVE SMOOTH",
"400 455 OFFCURVE",
"443 442 OFFCURVE",
"478 428 CURVE",
"511 548 LINE",
"474 566 OFFCURVE",
"407 580 OFFCURVE",
"354 580 CURVE SMOOTH",
"129 580 OFFCURVE",
"40 439 OFFCURVE",
"40 283 CURVE SMOOTH",
"40 118 OFFCURVE",
"133 -12 OFFCURVE",
"339 -12 CURVE SMOOTH"
);
}
);
width = 552;
}
);
leftKerningGroup = roundslc;
rightKerningGroup = c;
unicode = 0063;
userData = {
com.typemytype.robofont.guides = (
);
com.typemytype.robofont.layerData = {
background = {
anchors = (
);
components = (
);
contours = (
{
points = (
{
segmentType = curve;
smooth = 1;
x = 276;
y = 490;
},
{
smooth = 0;
x = 304;
y = 490;
},
{
smooth = 0;
x = 334;
y = 478;
},
{
segmentType = curve;
smooth = 0;
x = 346;
y = 468;
},
{
segmentType = line;
smooth = 0;
x = 346;
y = 383;
},
{
smooth = 0;
x = 358;
y = 379;
},
{
smooth = 0;
x = 377;
y = 378;
},
{
segmentType = curve;
smooth = 1;
x = 388;
y = 378;
},
{
smooth = 0;
x = 416;
y = 378;
},
{
smooth = 0;
x = 462;
y = 407;
},
{
segmentType = curve;
smooth = 1;
x = 462;
y = 450;
},
{
smooth = 0;
x = 462;
y = 497;
},
{
smooth = 0;
x = 421;
y = 542;
},
{
segmentType = curve;
smooth = 1;
x = 311;
y = 542;
},
{
smooth = 0;
x = 131;
y = 542;
},
{
smooth = 0;
x = 30;
y = 419;
},
{
segmentType = curve;
smooth = 1;
x = 30;
y = 252;
},
{
smooth = 0;
x = 30;
y = 103;
},
{
smooth = 0;
x = 115;
y = "-17";
},
{
segmentType = curve;
smooth = 1;
x = 273;
y = "-17";
},
{
smooth = 0;
x = 331;
y = "-17";
},
{
smooth = 0;
x = 383;
y = 10;
},
{
segmentType = curve;
smooth = 1;
x = 426;
y = 45;
},
{
smooth = 0;
x = 451;
y = 65;
},
{
smooth = 0;
x = 470;
y = 88;
},
{
segmentType = curve;
smooth = 0;
x = 489;
y = 110;
},
{
segmentType = line;
smooth = 0;
x = 461;
y = 138;
},
{
smooth = 0;
x = 446;
y = 120;
},
{
smooth = 0;
x = 426;
y = 100;
},
{
segmentType = curve;
smooth = 1;
x = 402;
y = 85;
},
{
smooth = 0;
x = 378;
y = 69;
},
{
smooth = 0;
x = 346;
y = 57;
},
{
segmentType = curve;
smooth = 1;
x = 314;
y = 57;
},
{
smooth = 0;
x = 225;
y = 57;
},
{
smooth = 0;
x = 138;
y = 134;
},
{
segmentType = curve;
smooth = 1;
x = 138;
y = 298;
},
{
smooth = 0;
x = 138;
y = 391;
},
{
smooth = 0;
x = 166;
y = 490;
}
);
}
);
lib = {
};
name = c;
unicodes = (
);
width = 510;
};
layer_01 = {
anchors = (
);
components = (
);
contours = (
);
lib = {
};
name = c;
unicodes = (
);
width = 510;
};
layer_02 = {
anchors = (
);
components = (
);
contours = (
);
lib = {
};
name = c;
unicodes = (
);
width = 510;
};
};
};
},
{
glyphname = d;
lastChange = "2015-03-04 20:31:46 +0000";
layers = (
{
anchors = (
{
name = bottom;
position = "{282, -10}";
},
{
name = caronSlovak;
position = "{495, 589}";
},
{
name = top;
position = "{282, 580}";
}
);
layerId = "E777F328-EA17-4AE7-9EBA-8002E537BA4F";
name = Light;
paths = (
{
closed = 1;
nodes = (
"325 -20 OFFCURVE",
"381 14 OFFCURVE",
"423 56 CURVE",
"423 102 LINE",
"360 51 OFFCURVE",
"321 27 OFFCURVE",
"253 27 CURVE SMOOTH",
"183 27 OFFCURVE",
"106 83 OFFCURVE",
"106 247 CURVE SMOOTH",
"106 388 OFFCURVE",
"163 495 OFFCURVE",
"302 495 CURVE SMOOTH",
"361 495 OFFCURVE",
"402 481 OFFCURVE",
"429 458 CURVE",
"451 493 LINE",
"419 516 OFFCURVE",
"372 540 OFFCURVE",
"301 540 CURVE SMOOTH",
"154 540 OFFCURVE",
"50 441 OFFCURVE",
"50 247 CURVE SMOOTH",
"50 79 OFFCURVE",
"133 -20 OFFCURVE",
"253 -20 CURVE SMOOTH"
);
},
{
closed = 1;
nodes = (
"465 0 LINE",
"465 800 LINE",
"411 800 LINE",
"411 78 LINE",
"421 0 LINE"
);
}
);
width = 565;
},
{
anchors = (
{
name = bottom;
position = "{332, -10}";
},
{
name = caronSlovak;
position = "{649, 435}";
},
{
name = top;
position = "{332, 580}";
}
);
layerId = "AE81D269-4BA9-4AA4-8188-ACE3070EB296";
name = Bold;
paths = (
{
closed = 1;
nodes = (
"396 -12 OFFCURVE",
"464 28 OFFCURVE",
"513 81 CURVE",
"513 200 LINE",
"446 139 OFFCURVE",
"402 113 OFFCURVE",
"328 113 CURVE SMOOTH",
"269 113 OFFCURVE",
"216 148 OFFCURVE",
"216 283 CURVE SMOOTH",
"216 399 OFFCURVE",
"267 455 OFFCURVE",
"377 455 CURVE SMOOTH",
"443 455 OFFCURVE",
"488 435 OFFCURVE",
"519 416 CURVE",
"541 529 LINE",
"504 555 OFFCURVE",
"458 580 OFFCURVE",
"366 580 CURVE SMOOTH",
"186 580 OFFCURVE",
"40 507 OFFCURVE",
"40 283 CURVE SMOOTH",
"40 87 OFFCURVE",
"152 -12 OFFCURVE",
"308 -12 CURVE SMOOTH"
);
},
{
closed = 1;
nodes = (
"615 0 LINE",
"615 800 LINE",
"441 800 LINE",
"441 114 LINE",
"486 0 LINE"
);
}
);
width = 695;
}
);
leftKerningGroup = roundslc;
rightKerningGroup = straightslc;
unicode = 0064;
userData = {
com.typemytype.robofont.layerData = {
background = {
anchors = (
);
components = (
);
contours = (
{
points = (
{
segmentType = line;
smooth = 0;
x = 376;
y = 688;
},
{
segmentType = line;
smooth = 0;
x = 376;
y = 527;
},
{
smooth = 0;
x = 344;
y = 537;
},
{
smooth = 0;
x = 314;
y = 542;
},
{
segmentType = curve;
smooth = 1;
x = 280;
y = 542;
},
{
smooth = 0;
x = 146;
y = 542;
},
{
smooth = 0;
x = 12;
y = 431;
},
{
segmentType = curve;
smooth = 1;
x = 12;
y = 235;
},
{
smooth = 0;
x = 12;
y = 89;
},
{
smooth = 0;
x = 95;
y = "-22";
},
{
segmentType = curve;
smooth = 1;
x = 215;
y = "-22";
},
{
smooth = 0;
x = 280;
y = "-22";
},
{
smooth = 0;
x = 359;
y = 43;
},
{
segmentType = curve;
smooth = 0;
x = 394;
y = 77;
},
{
segmentType = line;
smooth = 0;
x = 396;
y = 77;
},
{
segmentType = line;
smooth = 0;
x = 389;
y = "-9";
},
{
segmentType = line;
smooth = 0;
x = 393;
y = "-12";
},
{
segmentType = line;
smooth = 0;
x = 575;
y = 31;
},
{
segmentType = line;
smooth = 0;
x = 571;
y = 72;
},
{
segmentType = line;
smooth = 0;
x = 481;
y = 61;
},
{
segmentType = line;
smooth = 0;
x = 481;
y = 811;
},
{
segmentType = line;
smooth = 0;
x = 475;
y = 816;
},
{
segmentType = line;
smooth = 0;
x = 281;
y = 755;
},
{
segmentType = line;
smooth = 0;
x = 281;
y = 740;
}
);
},
{
points = (
{
segmentType = curve;
smooth = 0;
x = 376;
y = 450;
},
{
segmentType = line;
smooth = 0;
x = 376;
y = 101;
},
{
smooth = 0;
x = 348;
y = 79;
},
{
smooth = 0;
x = 304;
y = 61;
},
{
segmentType = curve;
smooth = 1;
x = 276;
y = 61;
},
{
smooth = 0;
x = 202;
y = 61;
},
{
smooth = 0;
x = 120;
y = 132;
},
{
segmentType = curve;
smooth = 1;
x = 120;
y = 281;
},
{
smooth = 0;
x = 120;
y = 410;
},
{
smooth = 0;
x = 178;
y = 489;
},
{
segmentType = curve;
smooth = 1;
x = 263;
y = 489;
},
{
smooth = 0;
x = 307;
y = 489;
},
{
smooth = 0;
x = 345;
y = 471;
}
);
}
);
lib = {
};
name = d;
unicodes = (
);
width = 565;
};
layer_01 = {
anchors = (
);
components = (
);
contours = (
);
lib = {
};
name = d;
unicodes = (
);
width = 565;
};
layer_02 = {
anchors = (
);
components = (
);
contours = (
);
lib = {
};
name = d;
unicodes = (
);
width = 565;
};
};
};
},
{
glyphname = eth;
lastChange = "2015-03-04 20:31:46 +0000";
layers = (
{
layerId = "E777F328-EA17-4AE7-9EBA-8002E537BA4F";
name = Light;
paths = (
{
closed = 1;
nodes = (
"430 -21 OFFCURVE",
"527 101 OFFCURVE",
"527 291 CURVE SMOOTH",
"527 512 OFFCURVE",
"399 732 OFFCURVE",
"135 802 CURVE",
"116 759 LINE",
"362 693 OFFCURVE",
"471 488 OFFCURVE",
"471 288 CURVE SMOOTH",
"471 120 OFFCURVE",
"400 25 OFFCURVE",
"294 25 CURVE SMOOTH",
"167 25 OFFCURVE",
"106 132 OFFCURVE",
"106 260 CURVE SMOOTH",
"106 397 OFFCURVE",
"170 494 OFFCURVE",
"287 494 CURVE SMOOTH",
"370 494 OFFCURVE",
"437 451 OFFCURVE",
"489 343 CURVE",
"501 374 LINE",
"474 460 OFFCURVE",
"396 540 OFFCURVE",
"287 540 CURVE SMOOTH",
"133 540 OFFCURVE",
"50 409 OFFCURVE",
"50 260 CURVE SMOOTH",
"50 111 OFFCURVE",
"129 -21 OFFCURVE",
"294 -21 CURVE SMOOTH"
);
},
{
closed = 1;
nodes = (
"449 766 LINE",
"431 801 LINE",
"134 627 LINE",
"153 592 LINE"
);
}
);
width = 604;
},
{
layerId = "AE81D269-4BA9-4AA4-8188-ACE3070EB296";
name = Bold;
paths = (
{
closed = 1;
nodes = (
"515 -12 OFFCURVE",
"637 108 OFFCURVE",
"637 295 CURVE SMOOTH",
"637 510 OFFCURVE",
"480 740 OFFCURVE",
"215 811 CURVE",
"114 728 LINE",
"387 636 OFFCURVE",
"461 469 OFFCURVE",
"461 292 CURVE SMOOTH",
"461 178 OFFCURVE",
"414 113 OFFCURVE",
"344 113 CURVE SMOOTH",
"258 113 OFFCURVE",
"216 182 OFFCURVE",
"216 264 CURVE SMOOTH",
"216 352 OFFCURVE",
"259 415 OFFCURVE",
"337 415 CURVE SMOOTH",
"395 415 OFFCURVE",
"452 383 OFFCURVE",
"479 304 CURVE",
"611 335 LINE",
"576 441 OFFCURVE",
"477 540 OFFCURVE",
"337 540 CURVE SMOOTH",
"144 540 OFFCURVE",
"40 411 OFFCURVE",
"40 264 CURVE SMOOTH",
"40 118 OFFCURVE",
"138 -12 OFFCURVE",
"344 -12 CURVE SMOOTH"
);
},
{
closed = 1;
nodes = (
"572 699 LINE",
"527 801 LINE",
"123 639 LINE",
"169 536 LINE"
);
}
);
width = 704;
}
);
leftKerningGroup = roundslc;
rightKerningGroup = roundslc;
unicode = 00F0;
userData = {
com.typemytype.robofont.layerData = {
background = {
anchors = (
);
components = (
);
contours = (
);
lib = {
};
name = eth;
unicodes = (
);
width = 604;
};
layer_01 = {
anchors = (
);
components = (
);
contours = (
);
lib = {
};
name = eth;
unicodes = (
);
width = 604;
};
layer_02 = {
anchors = (
);
components = (
);
contours = (
);
lib = {
};
name = eth;
unicodes = (
);
width = 604;
};
};
};
},
{
glyphname = dcroat;
lastChange = "2015-03-04 20:31:46 +0000";
layers = (
{
components = (
{
name = d;
}
);
layerId = "E777F328-EA17-4AE7-9EBA-8002E537BA4F";
name = Light;
paths = (
{
closed = 1;
nodes = (
"565 629 LINE",
"565 671 LINE",
"254 671 LINE",
"254 629 LINE"
);
}
);
width = 565;
},
{
components = (
{
name = d;
}
);
layerId = "AE81D269-4BA9-4AA4-8188-ACE3070EB296";
name = Bold;
paths = (
{
closed = 1;
nodes = (
"692 624 LINE",
"692 746 LINE",
"279 746 LINE",
"279 624 LINE"
);
}
);
width = 695;
}
);
leftKerningGroup = roundslc;
rightKerningGroup = straightslc;
unicode = 0111;
userData = {
com.typemytype.robofont.layerData = {
background = {
anchors = (
);
components = (
);
contours = (
);
lib = {
};
name = dcroat;
unicodes = (
);
width = 565;
};
layer_01 = {
anchors = (
);
components = (
);
contours = (
);
lib = {
};
name = dcroat;
unicodes = (
);
width = 565;
};
layer_02 = {
anchors = (
);
components = (
);
contours = (
);
lib = {
};
name = dcroat;
unicodes = (
);
width = 565;
};
};
};
},
{
glyphname = e;
lastChange = "2015-03-04 20:31:46 +0000";
layers = (
{
anchors = (
{
name = bottom;
position = "{357, -10}";
},
{
name = top;
position = "{278, 580}";
}
);
layerId = "E777F328-EA17-4AE7-9EBA-8002E537BA4F";
name = Light;
paths = (
{
closed = 1;
nodes = (
"378 -20 OFFCURVE",
"441 27 OFFCURVE",
"481 80 CURVE",
"453 114 LINE",
"416 65 OFFCURVE",
"364 25 OFFCURVE",
"289 25 CURVE",
"170 25 OFFCURVE",
"106 126 OFFCURVE",
"106 260 CURVE",
"106 392 OFFCURVE",
"170 495 OFFCURVE",
"289 495 CURVE",
"352 495 OFFCURVE",
"422 454 OFFCURVE",
"422 361 CURVE SMOOTH",
"422 346 OFFCURVE",
"420 330 OFFCURVE",
"416 312 CURVE",
"472 312 LINE",
"475 329 OFFCURVE",
"477 345 OFFCURVE",
"477 360 CURVE SMOOTH",
"477 475 OFFCURVE",
"388 540 OFFCURVE",
"289 540 CURVE",
"127 540 OFFCURVE",
"50 407 OFFCURVE",
"50 259 CURVE",
"50 112 OFFCURVE",
"127 -20 OFFCURVE",
"289 -20 CURVE"
);
},
{
closed = 1;
nodes = (
"447 312 LINE",
"447 356 LINE",
"88 356 LINE",
"88 312 LINE"
);
}
);
width = 531;
},
{
anchors = (
{
name = bottom;
position = "{379, -10}";
},
{
name = top;
position = "{326, 620}";
}
);
layerId = "AE81D269-4BA9-4AA4-8188-ACE3070EB296";
name = Bold;
paths = (
{
closed = 1;
nodes = (
"428 -12 OFFCURVE",
"492 13 OFFCURVE",
"562 69 CURVE",
"515 179 LINE",
"458 142 OFFCURVE",
"406 113 OFFCURVE",
"339 113 CURVE",
"245 113 OFFCURVE",
"211 172 OFFCURVE",
"211 286 CURVE",
"211 384 OFFCURVE",
"235 465 OFFCURVE",
"328 465 CURVE SMOOTH",
"377 465 OFFCURVE",
"407 436 OFFCURVE",
"408 381 CURVE SMOOTH",
"408 354 OFFCURVE",
"397 283 OFFCURVE",
"391 252 CURVE",
"563 252 LINE",
"572 282 OFFCURVE",
"576 315 OFFCURVE",
"576 340 CURVE SMOOTH",
"575 492 OFFCURVE",
"494 580 OFFCURVE",
"338 580 CURVE SMOOTH",
"137 580 OFFCURVE",
"40 457 OFFCURVE",
"40 283 CURVE",
"40 118 OFFCURVE",
"133 -12 OFFCURVE",
"338 -12 CURVE"
);
},
{
closed = 1;
nodes = (
"487 252 LINE",
"487 365 LINE",
"137 365 LINE",
"137 252 LINE"
);
}
);
width = 616;
}
);
leftKerningGroup = roundslc;
rightKerningGroup = e;
unicode = 0065;
userData = {
com.typemytype.robofont.layerData = {
background = {
anchors = (
);
components = (
);
contours = (
{
points = (
{
segmentType = curve;
smooth = 1;
x = 47;
y = 252;
},
{
smooth = 0;
x = 47;
y = 103;
},
{
smooth = 0;
x = 132;
y = "-17";
},
{
segmentType = curve;
smooth = 1;
x = 290;
y = "-17";
},
{
smooth = 0;
x = 376;
y = "-17";
},
{
smooth = 0;
x = 450;
y = 27;
},
{
segmentType = curve;
smooth = 0;
x = 503;
y = 82;
},
{
segmentType = line;
smooth = 0;
x = 480;
y = 117;
},
{
smooth = 0;
x = 449;
y = 92;
},
{
smooth = 0;
x = 396;
y = 57;
},
{
segmentType = curve;
smooth = 1;
x = 331;
y = 57;
},
{
smooth = 0;
x = 242;
y = 57;
},
{
smooth = 0;
x = 155;
y = 134;
},
{
segmentType = curve;
smooth = 1;
x = 155;
y = 298;
},
{
segmentType = line;
smooth = 0;
x = 155;
y = 312;
},
{
segmentType = line;
smooth = 0;
x = 491;
y = 312;
},
{
segmentType = line;
smooth = 0;
x = 494;
y = 315;
},
{
smooth = 0;
x = 496;
y = 329;
},
{
smooth = 0;
x = 498;
y = 343;
},
{
segmentType = curve;
smooth = 1;
x = 498;
y = 357;
},
{
smooth = 0;
x = 498;
y = 460;
},
{
smooth = 0;
x = 436;
y = 542;
},
{
segmentType = curve;
smooth = 1;
x = 328;
y = 542;
},
{
smooth = 0;
x = 148;
y = 542;
},
{
smooth = 0;
x = 47;
y = 419;
}
);
},
{
points = (
{
segmentType = curve;
smooth = 1;
x = 283;
y = 502;
},
{
smooth = 0;
x = 315;
y = 502;
},
{
smooth = 0;
x = 373;
y = 485;
},
{
segmentType = curve;
smooth = 1;
x = 373;
y = 402;
},
{
smooth = 0;
x = 373;
y = 392;
},
{
smooth = 0;
x = 372;
y = 380;
},
{
segmentType = curve;
smooth = 0;
x = 370;
y = 366;
},
{
segmentType = line;
smooth = 0;
x = 159;
y = 352;
},
{
smooth = 0;
x = 169;
y = 426;
},
{
smooth = 0;
x = 203;
y = 502;
}
);
}
);
lib = {
};
name = e;
unicodes = (
);
width = 548;
};
layer_01 = {
anchors = (
);
components = (
);
contours = (
);
lib = {
};
name = e;
unicodes = (
);
width = 548;
};
layer_02 = {
anchors = (
);
components = (
);
contours = (
);
lib = {
};
name = e;
unicodes = (
);
width = 548;
};
};
};
},
{
glyphname = f;
lastChange = "2015-03-04 20:31:46 +0000";
layers = (
{
layerId = "E777F328-EA17-4AE7-9EBA-8002E537BA4F";
name = Light;
paths = (
{
closed = 1;
nodes = (
"214 0 LINE",
"214 579 LINE SMOOTH",
"214 696 OFFCURVE",
"245 753 OFFCURVE",
"328 753 CURVE SMOOTH",
"343 753 OFFCURVE",
"354 751 OFFCURVE",
"365 748 CURVE",
"376 792 LINE",
"361 797 OFFCURVE",
"344 800 OFFCURVE",
"328 800 CURVE SMOOTH",
"211 800 OFFCURVE",
"160 719 OFFCURVE",
"160 581 CURVE SMOOTH",
"160 0 LINE"
);
},
{
closed = 1;
nodes = (
"374 476 LINE",
"374 520 LINE",
"170 520 LINE",
"75 500 LINE",
"75 476 LINE"
);
}
);
width = 384;
},
{
layerId = "AE81D269-4BA9-4AA4-8188-ACE3070EB296";
name = Bold;
paths = (
{
closed = 1;
nodes = (
"274 0 LINE",
"274 586 LINE SMOOTH",
"274 647 OFFCURVE",
"301 682 OFFCURVE",
"358 682 CURVE SMOOTH",
"385 682 OFFCURVE",
"401 680 OFFCURVE",
"425 677 CURVE",
"436 799 LINE",
"395 804 OFFCURVE",
"361 807 OFFCURVE",
"328 807 CURVE SMOOTH",
"172 807 OFFCURVE",
"100 726 OFFCURVE",
"100 588 CURVE SMOOTH",
"100 0 LINE"
);
},
{
closed = 1;
nodes = (
"434 445 LINE",
"434 568 LINE",
"140 568 LINE",
"15 518 LINE",
"15 445 LINE"
);
}
);
width = 444;
}
);
leftKerningGroup = f;
rightKerningGroup = f;
unicode = 0066;
userData = {
com.typemytype.robofont.layerData = {
background = {
anchors = (
);
components = (
);
contours = (
{
points = (
{
segmentType = curve;
smooth = 1;
x = 366;
y = 815;
},
{
smooth = 0;
x = 329;
y = 815;
},
{
smooth = 0;
x = 297;
y = 796;
},
{
segmentType = curve;
smooth = 1;
x = 269;
y = 780;
},
{
smooth = 0;
x = 178;
y = 726;
},
{
smooth = 0;
x = 136;
y = 676;
},
{
segmentType = curve;
smooth = 0;
x = 130;
y = 520;
},
{
segmentType = line;
smooth = 0;
x = 36;
y = 475;
},
{
segmentType = line;
smooth = 0;
x = 36;
y = 459;
},
{
segmentType = line;
smooth = 0;
x = 130;
y = 459;
},
{
segmentType = line;
smooth = 0;
x = 130;
y = 65;
},
{
segmentType = line;
smooth = 0;
x = 36;
y = 16;
},
{
segmentType = line;
smooth = 0;
x = 36;
y = 0;
},
{
segmentType = line;
smooth = 0;
x = 349;
y = 0;
},
{
segmentType = line;
smooth = 0;
x = 349;
y = 34;
},
{
segmentType = line;
smooth = 0;
x = 235;
y = 54;
},
{
segmentType = line;
smooth = 0;
x = 235;
y = 459;
},
{
segmentType = line;
smooth = 0;
x = 380;
y = 459;
},
{
segmentType = line;
smooth = 0;
x = 389;
y = 520;
},
{
segmentType = line;
smooth = 0;
x = 235;
y = 520;
},
{
segmentType = line;
smooth = 1;
x = 235;
y = 547;
},
{
smooth = 0;
x = 235;
y = 699;
},
{
smooth = 0;
x = 261;
y = 758;
},
{
segmentType = curve;
smooth = 0;
x = 313;
y = 758;
},
{
segmentType = line;
smooth = 0;
x = 396;
y = 692;
},
{
segmentType = line;
smooth = 0;
x = 398;
y = 692;
},
{
smooth = 0;
x = 416;
y = 704;
},
{
smooth = 0;
x = 441;
y = 735;
},
{
segmentType = curve;
smooth = 1;
x = 441;
y = 778;
},
{
smooth = 0;
x = 441;
y = 801;
},
{
smooth = 0;
x = 407;
y = 815;
}
);
}
);
lib = {
};
name = f;
unicodes = (
);
width = 384;
};
layer_01 = {
anchors = (
);
components = (
);
contours = (
);
lib = {
};
name = f;
unicodes = (
);
width = 384;
};
layer_02 = {
anchors = (
);
components = (
);
contours = (
);
lib = {
};
name = f;
unicodes = (
);
width = 384;
};
};
};
},
{
glyphname = g;
lastChange = "2015-03-04 20:31:46 +0000";
layers = (
{
anchors = (
{
name = top;
position = "{265, 580}";
}
);
layerId = "E777F328-EA17-4AE7-9EBA-8002E537BA4F";
name = Light;
paths = (
{
closed = 1;
nodes = (
"389 -246 OFFCURVE",
"508 -161 OFFCURVE",
"508 -52 CURVE SMOOTH",
"508 21 OFFCURVE",
"460 72 OFFCURVE",
"372 72 CURVE SMOOTH",
"193 72 LINE SMOOTH",
"142 72 OFFCURVE",
"116 83 OFFCURVE",
"116 117 CURVE SMOOTH",
"116 154 OFFCURVE",
"144 175 OFFCURVE",
"210 232 CURVE",
"172 256 LINE",
"96 189 OFFCURVE",
"65 157 OFFCURVE",
"65 109 CURVE SMOOTH",
"65 71 OFFCURVE",
"79 22 OFFCURVE",
"193 22 CURVE SMOOTH",
"370 22 LINE SMOOTH",
"424 22 OFFCURVE",
"458 -1 OFFCURVE",
"458 -58 CURVE SMOOTH",
"458 -126 OFFCURVE",
"363 -201 OFFCURVE",
"228 -201 CURVE SMOOTH",
"147 -201 OFFCURVE",
"91 -179 OFFCURVE",
"91 -110 CURVE SMOOTH",
"91 -47 OFFCURVE",
"139 -10 OFFCURVE",
"202 37 CURVE",
"166 60 LINE",
"80 -5 OFFCURVE",
"40 -39 OFFCURVE",
"40 -113 CURVE SMOOTH",
"40 -181 OFFCURVE",
"83 -246 OFFCURVE",
"228 -246 CURVE SMOOTH"
);
},
{
closed = 1;
nodes = (
"374 199 OFFCURVE",
"431 281 OFFCURVE",
"431 371 CURVE",
"431 460 OFFCURVE",
"373 540 OFFCURVE",
"252 540 CURVE",
"130 540 OFFCURVE",
"73 459 OFFCURVE",
"73 369 CURVE",
"73 280 OFFCURVE",
"130 199 OFFCURVE",
"252 199 CURVE"
);
},
{
closed = 1;
nodes = (
"173 244 OFFCURVE",
"129 299 OFFCURVE",
"129 370 CURVE",
"129 440 OFFCURVE",
"173 495 OFFCURVE",
"252 495 CURVE",
"332 495 OFFCURVE",
"375 440 OFFCURVE",
"375 370 CURVE",
"375 299 OFFCURVE",
"331 244 OFFCURVE",
"252 244 CURVE"
);
},
{
closed = 1;
nodes = (
"517 520 LINE",
"323 520 LINE",
"323 490 LINE",
"517 476 LINE"
);
}
);
width = 530;
},
{
anchors = (
{
name = top;
position = "{315, 620}";
}
);
layerId = "AE81D269-4BA9-4AA4-8188-ACE3070EB296";
name = Bold;
paths = (
{
closed = 1;
nodes = (
"472 -247 OFFCURVE",
"618 -143 OFFCURVE",
"618 -12 CURVE SMOOTH",
"618 74 OFFCURVE",
"546 129 OFFCURVE",
"422 129 CURVE SMOOTH",
"273 129 LINE SMOOTH",
"236 129 OFFCURVE",
"226 140 OFFCURVE",
"226 161 CURVE SMOOTH",
"226 184 OFFCURVE",
"258 216 OFFCURVE",
"299 240 CURVE",
"222 286 LINE",
"107 225 OFFCURVE",
"55 173 OFFCURVE",
"55 119 CURVE SMOOTH",
"55 60 OFFCURVE",
"109 4 OFFCURVE",
"243 4 CURVE SMOOTH",
"380 4 LINE SMOOTH",
"432 4 OFFCURVE",
"452 -12 OFFCURVE",
"452 -38 CURVE SMOOTH",
"452 -78 OFFCURVE",
"378 -122 OFFCURVE",
"278 -122 CURVE SMOOTH",
"221 -122 OFFCURVE",
"191 -109 OFFCURVE",
"191 -80 CURVE SMOOTH",
"191 -43 OFFCURVE",
"222 8 OFFCURVE",
"290 52 CURVE",
"216 100 LINE",
"110 41 OFFCURVE",
"25 -12 OFFCURVE",
"25 -93 CURVE SMOOTH",
"25 -166 OFFCURVE",
"86 -247 OFFCURVE",
"278 -247 CURVE SMOOTH"
);
},
{
closed = 1;
nodes = (
"463 199 OFFCURVE",
"541 292 OFFCURVE",
"541 391 CURVE",
"541 489 OFFCURVE",
"461 580 OFFCURVE",
"302 580 CURVE",
"141 580 OFFCURVE",
"63 488 OFFCURVE",
"63 389 CURVE",
"63 291 OFFCURVE",
"141 199 OFFCURVE",
"302 199 CURVE"
);
},
{
closed = 1;
nodes = (
"260 314 OFFCURVE",
"229 339 OFFCURVE",
"229 390 CURVE",
"229 441 OFFCURVE",
"260 465 OFFCURVE",
"302 465 CURVE",
"345 465 OFFCURVE",
"375 441 OFFCURVE",
"375 390 CURVE",
"375 339 OFFCURVE",
"344 314 OFFCURVE",
"302 314 CURVE"
);
},
{
closed = 1;
nodes = (
"627 568 LINE",
"373 568 LINE",
"373 478 LINE",
"627 444 LINE"
);
}
);
width = 630;
}
);
leftKerningGroup = g;
rightKerningGroup = g;
unicode = 0067;
userData = {
com.typemytype.robofont.layerData = {
background = {
anchors = (
);
components = (
);
contours = (
{
points = (
{
segmentType = line;
smooth = 0;
x = 408;
y = 488;
},
{
segmentType = line;
smooth = 0;
x = 533;
y = 425;
},
{
segmentType = line;
smooth = 0;
x = 538;
y = 425;
},
{
smooth = 0;
x = 547;
y = 441;
},
{
smooth = 0;
x = 554;
y = 465;
},
{
segmentType = curve;
smooth = 1;
x = 554;
y = 487;
},
{
smooth = 0;
x = 554;
y = 502;
},
{
smooth = 0;
x = 550;
y = 520;
},
{
segmentType = curve;
smooth = 1;
x = 512;
y = 520;
},
{
smooth = 0;
x = 469;
y = 520;
},
{
smooth = 0;
x = 420;
y = 516;
},
{
segmentType = curve;
smooth = 0;
x = 376;
y = 511;
},
{
smooth = 0;
x = 347;
y = 530;
},
{
smooth = 0;
x = 310;
y = 542;
},
{
segmentType = curve;
smooth = 1;
x = 267;
y = 542;
},
{
smooth = 0;
x = 142;
y = 542;
},
{
smooth = 0;
x = 48;
y = 469;
},
{
segmentType = curve;
smooth = 1;
x = 48;
y = 363;
},
{
smooth = 0;
x = 48;
y = 298;
},
{
smooth = 0;
x = 77;
y = 247;
},
{
segmentType = curve;
smooth = 0;
x = 129;
y = 219;
},
{
smooth = 0;
x = 87;
y = 185;
},
{
smooth = 0;
x = 48;
y = 141;
},
{
segmentType = curve;
smooth = 1;
x = 48;
y = 105;
},
{
smooth = 0;
x = 48;
y = 57;
},
{
smooth = 0;
x = 78;
y = 35;
},
{
segmentType = curve;
smooth = 0;
x = 123;
y = 26;
},
{
smooth = 0;
x = 60;
y = "-19";
},
{
smooth = 0;
x = 26;
y = "-60";
},
{
segmentType = curve;
smooth = 1;
x = 26;
y = "-120";
},
{
smooth = 0;
x = 26;
y = "-194";
},
{
smooth = 0;
x = 121;
y = "-247";
},
{
segmentType = curve;
smooth = 1;
x = 230;
y = "-247";
},
{
smooth = 0;
x = 363;
y = "-247";
},
{
smooth = 0;
x = 526;
y = "-169";
},
{
segmentType = curve;
smooth = 1;
x = 526;
y = 1;
},
{
smooth = 0;
x = 526;
y = 95;
},
{
smooth = 0;
x = 448;
y = 113;
},
{
segmentType = curve;
smooth = 1;
x = 362;
y = 113;
},
{
smooth = 0;
x = 311;
y = 113;
},
{
smooth = 0;
x = 256;
y = 108;
},
{
segmentType = curve;
smooth = 1;
x = 213;
y = 108;
},
{
smooth = 0;
x = 169;
y = 108;
},
{
smooth = 0;
x = 138;
y = 114;
},
{
segmentType = curve;
smooth = 1;
x = 138;
y = 144;
},
{
smooth = 0;
x = 138;
y = 162;
},
{
smooth = 0;
x = 146;
y = 185;
},
{
segmentType = curve;
smooth = 0;
x = 160;
y = 206;
},
{
smooth = 0;
x = 180;
y = 199;
},
{
smooth = 0;
x = 204;
y = 196;
},
{
segmentType = curve;
smooth = 1;
x = 230;
y = 196;
},
{
smooth = 0;
x = 368;
y = 196;
},
{
smooth = 0;
x = 449;
y = 267;
},
{
segmentType = curve;
smooth = 1;
x = 449;
y = 381;
},
{
smooth = 0;
x = 449;
y = 420;
},
{
smooth = 0;
x = 433;
y = 459;
},
{
segmentType = curve;
smooth = 0;
x = 404;
y = 488;
}
);
},
{
points = (
{
segmentType = line;
smooth = 1;
x = 193;
y = 22;
},
{
smooth = 0;
x = 240;
y = 22;
},
{
smooth = 0;
x = 294;
y = 26;
},
{
segmentType = curve;
smooth = 1;
x = 340;
y = 26;
},
{
smooth = 0;
x = 414;
y = 26;
},
{
smooth = 0;
x = 468;
y = 14;
},
{
segmentType = curve;
smooth = 1;
x = 468;
y = "-46";
},
{
smooth = 0;
x = 468;
y = "-108";
},
{
smooth = 0;
x = 393;
y = "-162";
},
{
segmentType = curve;
smooth = 1;
x = 288;
y = "-162";
},
{
smooth = 0;
x = 186;
y = "-162";
},
{
smooth = 0;
x = 111;
y = "-148";
},
{
segmentType = curve;
smooth = 1;
x = 111;
y = "-80";
},
{
smooth = 0;
x = 111;
y = "-45";
},
{
smooth = 0;
x = 124;
y = "-15";
},
{
segmentType = curve;
smooth = 0;
x = 166;
y = 22;
}
);
},
{
points = (
{
segmentType = curve;
smooth = 1;
x = 157;
y = 379;
},
{
smooth = 0;
x = 157;
y = 438;
},
{
smooth = 0;
x = 191;
y = 502;
},
{
segmentType = curve;
smooth = 1;
x = 248;
y = 502;
},
{
smooth = 0;
x = 314;
y = 502;
},
{
smooth = 0;
x = 340;
y = 445;
},
{
segmentType = curve;
smooth = 1;
x = 340;
y = 362;
},
{
smooth = 0;
x = 340;
y = 299;
},
{
smooth = 0;
x = 309;
y = 239;
},
{
segmentType = curve;
smooth = 1;
x = 250;
y = 239;
},
{
smooth = 0;
x = 189;
y = 239;
},
{
smooth = 0;
x = 157;
y = 284;
}
);
}
);
lib = {
};
name = g;
unicodes = (
);
width = 530;
};
layer_01 = {
anchors = (
);
components = (
);
contours = (
);
lib = {
};
name = g;
unicodes = (
);
width = 530;
};
layer_02 = {
anchors = (
);
components = (
);
contours = (
);
lib = {
};
name = g;
unicodes = (
);
width = 530;
};
};
};
},
{
glyphname = h;
lastChange = "2015-03-04 20:31:46 +0000";
layers = (
{
anchors = (
{
name = bottom;
position = "{288, -10}";
},
{
name = top;
position = "{128, 810}";
}
);
layerId = "E777F328-EA17-4AE7-9EBA-8002E537BA4F";
name = Light;
paths = (
{
closed = 1;
nodes = (
"480 0 LINE",
"480 381 LINE SMOOTH",
"480 474 OFFCURVE",
"455 540 OFFCURVE",
"342 540 CURVE SMOOTH",
"276 540 OFFCURVE",
"207 508 OFFCURVE",
"140 449 CURVE",
"152 408 LINE",
"222 465 OFFCURVE",
"278 493 OFFCURVE",
"334 493 CURVE SMOOTH",
"402 493 OFFCURVE",
"426 456 OFFCURVE",
"426 379 CURVE SMOOTH",
"426 0 LINE"
);
},
{
closed = 1;
nodes = (
"154 0 LINE",
"154 800 LINE",
"100 800 LINE",
"100 0 LINE"
);
}
);
width = 575;
},
{
anchors = (
{
name = bottom;
position = "{347, -10}";
},
{
name = top;
position = "{167, 810}";
}
);
layerId = "AE81D269-4BA9-4AA4-8188-ACE3070EB296";
name = Bold;
paths = (
{
closed = 1;
nodes = (
"612 0 LINE",
"612 351 LINE SMOOTH",
"612 485 OFFCURVE",
"575 580 OFFCURVE",
"416 580 CURVE SMOOTH",
"354 580 OFFCURVE",
"295 561 OFFCURVE",
"231 523 CURVE",
"252 418 LINE",
"283 438 OFFCURVE",
"321 453 OFFCURVE",
"358 453 CURVE SMOOTH",
"421 453 OFFCURVE",
"438 421 OFFCURVE",
"438 329 CURVE SMOOTH",
"438 0 LINE"
);
},
{
closed = 1;
nodes = (
"254 0 LINE",
"254 800 LINE",
"80 800 LINE",
"80 0 LINE"
);
}
);
width = 687;
}
);
leftKerningGroup = straightslc;
rightKerningGroup = n;
unicode = 0068;
userData = {
com.typemytype.robofont.layerData = {
background = {
anchors = (
);
components = (
);
contours = (
);
lib = {
};
name = h;
unicodes = (
);
width = 575;
};
layer_01 = {
anchors = (
);
components = (
);
contours = (
);
lib = {
};
name = h;
unicodes = (
);
width = 575;
};
layer_02 = {
anchors = (
);
components = (
);
contours = (
);
lib = {
};
name = h;
unicodes = (
);
width = 575;
};
};
};
},
{
glyphname = hbar;
lastChange = "2015-03-04 20:31:46 +0000";
layers = (
{
components = (
{
name = h;
}
);
layerId = "E777F328-EA17-4AE7-9EBA-8002E537BA4F";
name = Light;
paths = (
{
closed = 1;
nodes = (
"311 629 LINE",
"311 671 LINE",
"0 671 LINE",
"0 629 LINE"
);
}
);
width = 575;
},
{
components = (
{
name = h;
}
);
layerId = "AE81D269-4BA9-4AA4-8188-ACE3070EB296";
name = Bold;
paths = (
{
closed = 1;
nodes = (
"416 624 LINE",
"416 746 LINE",
"3 746 LINE",
"3 624 LINE"
);
}
);
width = 687;
}
);
leftKerningGroup = straightslc;
rightKerningGroup = n;
unicode = 0127;
userData = {
com.typemytype.robofont.layerData = {
background = {
anchors = (
);
components = (
);
contours = (
);
lib = {
};
name = hbar;
unicodes = (
);
width = 575;
};
layer_01 = {
anchors = (
);
components = (
);
contours = (
);
lib = {
};
name = hbar;
unicodes = (
);
width = 575;
};
layer_02 = {
anchors = (
);
components = (
);
contours = (
);
lib = {
};
name = hbar;
unicodes = (
);
width = 575;
};
};
};
},
{
glyphname = i;
lastChange = "2015-03-04 20:31:46 +0000";
layers = (
{
anchors = (
{
name = bottom;
position = "{116, -10}";
},
{
name = top;
position = "{136, 580}";
}
);
layerId = "E777F328-EA17-4AE7-9EBA-8002E537BA4F";
name = Light;
paths = (
{
closed = 1;
nodes = (
"162 0 LINE",
"162 520 LINE",
"108 520 LINE",
"108 0 LINE"
);
},
{
closed = 1;
nodes = (
"157 722 OFFCURVE",
"175 740 OFFCURVE",
"175 760 CURVE",
"175 782 OFFCURVE",
"157 800 OFFCURVE",
"135 800 CURVE",
"114 800 OFFCURVE",
"96 782 OFFCURVE",
"96 760 CURVE",
"96 740 OFFCURVE",
"114 722 OFFCURVE",
"135 722 CURVE"
);
}
);
width = 271;
},
{
anchors = (
{
name = bottom;
position = "{106, -10}";
},
{
name = top;
position = "{167, 580}";
}
);
layerId = "AE81D269-4BA9-4AA4-8188-ACE3070EB296";
name = Bold;
paths = (
{
closed = 1;
nodes = (
"254 0 LINE",
"254 568 LINE",
"80 568 LINE",
"80 0 LINE"
);
},
{
closed = 1;
nodes = (
"222 644 OFFCURVE",
"267 689 OFFCURVE",
"267 744 CURVE SMOOTH",
"267 799 OFFCURVE",
"222 844 OFFCURVE",
"167 844 CURVE SMOOTH",
"112 844 OFFCURVE",
"67 799 OFFCURVE",
"67 744 CURVE SMOOTH",
"67 689 OFFCURVE",
"112 644 OFFCURVE",
"167 644 CURVE SMOOTH"
);
}
);
width = 334;
}
);
leftKerningGroup = straightslc;
rightKerningGroup = straightslc;
unicode = 0069;
userData = {
com.typemytype.robofont.layerData = {
background = {
anchors = (
);
components = (
);
contours = (
{
points = (
{
segmentType = line;
smooth = 0;
x = 83;
y = 65;
},
{
segmentType = line;
smooth = 0;
x = "-11";
y = 16;
},
{
segmentType = line;
smooth = 0;
x = "-11";
y = 0;
},
{
segmentType = line;
smooth = 0;
x = 283;
y = 0;
},
{
segmentType = line;
smooth = 0;
x = 283;
y = 34;
},
{
segmentType = line;
smooth = 0;
x = 188;
y = 47;
},
{
segmentType = line;
smooth = 0;
x = 188;
y = 547;
},
{
segmentType = line;
smooth = 0;
x = 183;
y = 552;
},
{
segmentType = line;
smooth = 0;
x = "-11";
y = 490;
},
{
segmentType = line;
smooth = 0;
x = "-11";
y = 476;
},
{
segmentType = line;
smooth = 0;
x = 83;
y = 423;
}
);
},
{
points = (
{
segmentType = curve;
smooth = 1;
x = 70;
y = 726;
},
{
smooth = 0;
x = 70;
y = 688;
},
{
smooth = 0;
x = 101;
y = 656;
},
{
segmentType = curve;
smooth = 1;
x = 140;
y = 656;
},
{
smooth = 0;
x = 179;
y = 656;
},
{
smooth = 0;
x = 211;
y = 688;
},
{
segmentType = curve;
smooth = 1;
x = 211;
y = 726;
},
{
smooth = 0;
x = 211;
y = 765;
},
{
smooth = 0;
x = 179;
y = 797;
},
{
segmentType = curve;
smooth = 1;
x = 140;
y = 797;
},
{
smooth = 0;
x = 101;
y = 797;
},
{
smooth = 0;
x = 70;
y = 765;
}
);
}
);
lib = {
};
name = i;
unicodes = (
);
width = 271;
};
layer_01 = {
anchors = (
);
components = (
);
contours = (
);
lib = {
};
name = i;
unicodes = (
);
width = 271;
};
layer_02 = {
anchors = (
);
components = (
);
contours = (
);
lib = {
};
name = i;
unicodes = (
);
width = 271;
};
};
};
},
{
glyphname = idotless;
lastChange = "2015-03-04 20:31:46 +0000";
layers = (
{
anchors = (
{
name = top;
position = "{136, 580}";
}
);
layerId = "E777F328-EA17-4AE7-9EBA-8002E537BA4F";
name = Light;
paths = (
{
closed = 1;
nodes = (
"162 0 LINE",
"162 520 LINE",
"108 520 LINE",
"108 0 LINE"
);
}
);
width = 271;
},
{
anchors = (
{
name = top;
position = "{167, 620}";
}
);
layerId = "AE81D269-4BA9-4AA4-8188-ACE3070EB296";
name = Bold;
paths = (
{
closed = 1;
nodes = (
"254 0 LINE",
"254 568 LINE",
"80 568 LINE",
"80 0 LINE"
);
}
);
width = 334;
}
);
leftKerningGroup = straightslc;
rightKerningGroup = straightslc;
unicode = 0131;
userData = {
com.typemytype.robofont.layerData = {
background = {
anchors = (
);
components = (
);
contours = (
{
points = (
{
segmentType = line;
smooth = 0;
x = 83;
y = 65;
},
{
segmentType = line;
smooth = 0;
x = "-11";
y = 16;
},
{
segmentType = line;
smooth = 0;
x = "-11";
y = 0;
},
{
segmentType = line;
smooth = 0;
x = 283;
y = 0;
},
{
segmentType = line;
smooth = 0;
x = 283;
y = 34;
},
{
segmentType = line;
smooth = 0;
x = 188;
y = 47;
},
{
segmentType = line;
smooth = 0;
x = 188;
y = 547;
},
{
segmentType = line;
smooth = 0;
x = 183;
y = 552;
},
{
segmentType = line;
smooth = 0;
x = "-11";
y = 490;
},
{
segmentType = line;
smooth = 0;
x = "-11";
y = 476;
},
{
segmentType = line;
smooth = 0;
x = 83;
y = 423;
}
);
},
{
points = (
{
segmentType = curve;
smooth = 1;
x = 70;
y = 726;
},
{
smooth = 0;
x = 70;
y = 688;
},
{
smooth = 0;
x = 101;
y = 656;
},
{
segmentType = curve;
smooth = 1;
x = 140;
y = 656;
},
{
smooth = 0;
x = 179;
y = 656;
},
{
smooth = 0;
x = 211;
y = 688;
},
{
segmentType = curve;
smooth = 1;
x = 211;
y = 726;
},
{
smooth = 0;
x = 211;
y = 765;
},
{
smooth = 0;
x = 179;
y = 797;
},
{
segmentType = curve;
smooth = 1;
x = 140;
y = 797;
},
{
smooth = 0;
x = 101;
y = 797;
},
{
smooth = 0;
x = 70;
y = 765;
}
);
}
);
lib = {
};
name = dotlessi;
unicodes = (
);
width = 271;
};
layer_01 = {
anchors = (
);
components = (
);
contours = (
);
lib = {
};
name = dotlessi;
unicodes = (
);
width = 271;
};
layer_02 = {
anchors = (
);
components = (
);
contours = (
);
lib = {
};
name = dotlessi;
unicodes = (
);
width = 271;
};
};
};
},
{
glyphname = j;
lastChange = "2015-03-04 20:31:46 +0000";
layers = (
{
layerId = "E777F328-EA17-4AE7-9EBA-8002E537BA4F";
name = Light;
paths = (
{
closed = 1;
nodes = (
"103 -245 OFFCURVE",
"154 -164 OFFCURVE",
"154 -26 CURVE SMOOTH",
"154 520 LINE",
"100 520 LINE",
"100 -24 LINE SMOOTH",
"100 -141 OFFCURVE",
"69 -198 OFFCURVE",
"-14 -198 CURVE SMOOTH",
"-29 -198 OFFCURVE",
"-40 -196 OFFCURVE",
"-51 -193 CURVE",
"-62 -237 LINE",
"-47 -242 OFFCURVE",
"-30 -245 OFFCURVE",
"-14 -245 CURVE SMOOTH"
);
},
{
closed = 1;
nodes = (
"152 722 OFFCURVE",
"170 740 OFFCURVE",
"170 760 CURVE",
"170 782 OFFCURVE",
"152 800 OFFCURVE",
"130 800 CURVE",
"109 800 OFFCURVE",
"91 782 OFFCURVE",
"91 760 CURVE",
"91 740 OFFCURVE",
"109 722 OFFCURVE",
"130 722 CURVE"
);
}
);
width = 254;
},
{
layerId = "AE81D269-4BA9-4AA4-8188-ACE3070EB296";
name = Bold;
paths = (
{
closed = 1;
nodes = (
"182 -239 OFFCURVE",
"254 -158 OFFCURVE",
"254 -20 CURVE SMOOTH",
"254 568 LINE",
"80 568 LINE",
"80 -18 LINE SMOOTH",
"80 -79 OFFCURVE",
"53 -114 OFFCURVE",
"-4 -114 CURVE SMOOTH",
"-31 -114 OFFCURVE",
"-47 -112 OFFCURVE",
"-71 -109 CURVE",
"-82 -231 LINE",
"-41 -236 OFFCURVE",
"-7 -239 OFFCURVE",
"26 -239 CURVE SMOOTH"
);
},
{
closed = 1;
nodes = (
"222 644 OFFCURVE",
"267 689 OFFCURVE",
"267 744 CURVE SMOOTH",
"267 799 OFFCURVE",
"222 844 OFFCURVE",
"167 844 CURVE SMOOTH",
"112 844 OFFCURVE",
"67 799 OFFCURVE",
"67 744 CURVE SMOOTH",
"67 689 OFFCURVE",
"112 644 OFFCURVE",
"167 644 CURVE SMOOTH"
);
}
);
width = 334;
}
);
leftKerningGroup = j;
rightKerningGroup = j;
unicode = 006A;
userData = {
com.typemytype.robofont.layerData = {
background = {
anchors = (
);
components = (
);
contours = (
);
lib = {
};
name = j;
unicodes = (
);
width = 254;
};
layer_01 = {
anchors = (
);
components = (
);
contours = (
);
lib = {
};
name = j;
unicodes = (
);
width = 254;
};
layer_02 = {
anchors = (
);
components = (
);
contours = (
);
lib = {
};
name = j;
unicodes = (
);
width = 254;
};
};
};
},
{
glyphname = jdotless;
lastChange = "2015-03-04 20:31:46 +0000";
layers = (
{
anchors = (
{
name = top;
position = "{127, 580}";
}
);
layerId = "E777F328-EA17-4AE7-9EBA-8002E537BA4F";
name = Light;
paths = (
{
closed = 1;
nodes = (
"103 -245 OFFCURVE",
"154 -164 OFFCURVE",
"154 -26 CURVE SMOOTH",
"154 520 LINE",
"100 520 LINE",
"100 -24 LINE SMOOTH",
"100 -141 OFFCURVE",
"69 -198 OFFCURVE",
"-14 -198 CURVE SMOOTH",
"-29 -198 OFFCURVE",
"-40 -196 OFFCURVE",
"-51 -193 CURVE",
"-62 -237 LINE",
"-47 -242 OFFCURVE",
"-30 -245 OFFCURVE",
"-14 -245 CURVE SMOOTH"
);
}
);
width = 254;
},
{
anchors = (
{
name = top;
position = "{167, 620}";
}
);
layerId = "AE81D269-4BA9-4AA4-8188-ACE3070EB296";
name = Bold;
paths = (
{
closed = 1;
nodes = (
"182 -239 OFFCURVE",
"254 -158 OFFCURVE",
"254 -20 CURVE SMOOTH",
"254 568 LINE",
"80 568 LINE",
"80 -18 LINE SMOOTH",
"80 -79 OFFCURVE",
"53 -114 OFFCURVE",
"-4 -114 CURVE SMOOTH",
"-31 -114 OFFCURVE",
"-47 -112 OFFCURVE",
"-71 -109 CURVE",
"-82 -231 LINE",
"-41 -236 OFFCURVE",
"-7 -239 OFFCURVE",
"26 -239 CURVE SMOOTH"
);
}
);
width = 334;
}
);
leftKerningGroup = j;
rightKerningGroup = j;
unicode = 0237;
userData = {
com.typemytype.robofont.layerData = {
background = {
anchors = (
);
components = (
);
contours = (
);
lib = {
};
name = dotlessj;
unicodes = (
);
width = 254;
};
layer_01 = {
anchors = (
);
components = (
);
contours = (
);
lib = {
};
name = dotlessj;
unicodes = (
);
width = 254;
};
layer_02 = {
anchors = (
);
components = (
);
contours = (
);
lib = {
};
name = dotlessj;
unicodes = (
);
width = 254;
};
};
};
},
{
glyphname = k;
lastChange = "2015-03-04 20:31:46 +0000";
layers = (
{
anchors = (
{
name = bottom;
position = "{265, -10}";
}
);
layerId = "E777F328-EA17-4AE7-9EBA-8002E537BA4F";
name = Light;
paths = (
{
closed = 1;
nodes = (
"500 0 LINE",
"228 302 LINE",
"228 275 LINE",
"461 520 LINE",
"398 520 LINE",
"185 295 LINE",
"185 275 LINE",
"433 0 LINE"
);
},
{
closed = 1;
nodes = (
"154 0 LINE",
"154 800 LINE",
"100 800 LINE",
"100 0 LINE"
);
}
);
width = 530;
},
{
anchors = (
{
name = bottom;
position = "{355, -10}";
}
);
layerId = "AE81D269-4BA9-4AA4-8188-ACE3070EB296";
name = Bold;
paths = (
{
closed = 1;
nodes = (
"635 0 LINE",
"395 326 LINE",
"398 294 LINE",
"599 568 LINE",
"421 568 LINE",
"245 319 LINE",
"245 299 LINE",
"446 0 LINE"
);
},
{
closed = 1;
nodes = (
"254 0 LINE",
"254 800 LINE",
"80 800 LINE",
"80 0 LINE"
);
}
);
width = 640;
}
);
leftKerningGroup = straightslc;
rightKerningGroup = k;
unicode = 006B;
userData = {
com.typemytype.robofont.layerData = {
background = {
anchors = (
);
components = (
);
contours = (
{
points = (
{
segmentType = line;
smooth = 0;
x = 75;
y = 65;
},
{
segmentType = line;
smooth = 0;
x = "-19";
y = 16;
},
{
segmentType = line;
smooth = 0;
x = "-19";
y = 0;
},
{
segmentType = line;
smooth = 0;
x = 265;
y = 0;
},
{
segmentType = line;
smooth = 0;
x = 265;
y = 34;
},
{
segmentType = line;
smooth = 0;
x = 180;
y = 47;
},
{
segmentType = line;
smooth = 0;
x = 180;
y = 811;
},
{
segmentType = line;
smooth = 0;
x = 175;
y = 816;
},
{
segmentType = line;
smooth = 0;
x = "-19";
y = 755;
},
{
segmentType = line;
smooth = 0;
x = "-19";
y = 740;
},
{
segmentType = line;
smooth = 0;
x = 75;
y = 688;
}
);
},
{
points = (
{
segmentType = line;
smooth = 0;
x = 422;
y = 0;
},
{
segmentType = line;
smooth = 0;
x = 579;
y = 0;
},
{
segmentType = line;
smooth = 0;
x = 579;
y = 34;
},
{
segmentType = line;
smooth = 0;
x = 518;
y = 45;
},
{
segmentType = line;
smooth = 0;
x = 311;
y = 315;
},
{
segmentType = line;
smooth = 0;
x = 485;
y = 473;
},
{
segmentType = line;
smooth = 0;
x = 532;
y = 490;
},
{
segmentType = line;
smooth = 0;
x = 532;
y = 520;
},
{
segmentType = line;
smooth = 0;
x = 304;
y = 520;
},
{
segmentType = line;
smooth = 0;
x = 304;
y = 488;
},
{
segmentType = line;
smooth = 0;
x = 391;
y = 460;
},
{
segmentType = line;
smooth = 0;
x = 391;
y = 458;
},
{
segmentType = line;
smooth = 0;
x = 210;
y = 287;
},
{
segmentType = line;
smooth = 0;
x = 210;
y = 283;
}
);
}
);
lib = {
};
name = k;
unicodes = (
);
width = 530;
};
layer_01 = {
anchors = (
);
components = (
);
contours = (
);
lib = {
};
name = k;
unicodes = (
);
width = 530;
};
layer_02 = {
anchors = (
);
components = (
);
contours = (
);
lib = {
};
name = k;
unicodes = (
);
width = 530;
};
};
};
},
{
glyphname = kgreenlandic;
lastChange = "2015-03-04 20:31:46 +0000";
layers = (
{
layerId = "E777F328-EA17-4AE7-9EBA-8002E537BA4F";
name = Light;
paths = (
{
closed = 1;
nodes = (
"500 0 LINE",
"228 302 LINE",
"228 275 LINE",
"461 520 LINE",
"398 520 LINE",
"185 295 LINE",
"185 275 LINE",
"433 0 LINE"
);
},
{
closed = 1;
nodes = (
"154 0 LINE",
"154 520 LINE",
"100 520 LINE",
"100 0 LINE"
);
}
);
width = 530;
},
{
layerId = "AE81D269-4BA9-4AA4-8188-ACE3070EB296";
name = Bold;
paths = (
{
closed = 1;
nodes = (
"635 0 LINE",
"395 326 LINE",
"398 294 LINE",
"599 568 LINE",
"421 568 LINE",
"245 319 LINE",
"245 299 LINE",
"446 0 LINE"
);
},
{
closed = 1;
nodes = (
"254 0 LINE",
"254 568 LINE",
"80 568 LINE",
"80 0 LINE"
);
}
);
width = 640;
}
);
leftKerningGroup = straightslc;
rightKerningGroup = k;
unicode = 0138;
userData = {
com.typemytype.robofont.layerData = {
background = {
anchors = (
);
components = (
);
contours = (
);
lib = {
};
name = kgreenlandic;
unicodes = (
);
width = 624;
};
layer_01 = {
anchors = (
);
components = (
);
contours = (
);
lib = {
};
name = kgreenlandic;
unicodes = (
);
width = 624;
};
layer_02 = {
anchors = (
);
components = (
);
contours = (
);
lib = {
};
name = kgreenlandic;
unicodes = (
);
width = 624;
};
};
};
},
{
glyphname = l;
lastChange = "2015-03-04 20:31:46 +0000";
layers = (
{
anchors = (
{
name = bottom;
position = "{127, -10}";
},
{
name = caronSlovak;
position = "{184, 589}";
},
{
name = dot;
position = "{253, 264}";
},
{
name = top;
position = "{128, 810}";
}
);
layerId = "E777F328-EA17-4AE7-9EBA-8002E537BA4F";
name = Light;
paths = (
{
closed = 1;
nodes = (
"154 0 LINE",
"154 800 LINE",
"100 800 LINE",
"100 0 LINE"
);
}
);
width = 254;
},
{
anchors = (
{
name = bottom;
position = "{167, -10}";
},
{
name = caronSlovak;
position = "{288, 435}";
},
{
name = dot;
position = "{334, 264}";
},
{
name = top;
position = "{167, 810}";
}
);
layerId = "AE81D269-4BA9-4AA4-8188-ACE3070EB296";
name = Bold;
paths = (
{
closed = 1;
nodes = (
"254 0 LINE",
"254 800 LINE",
"80 800 LINE",
"80 0 LINE"
);
}
);
width = 334;
}
);
leftKerningGroup = straightslc;
rightKerningGroup = straightslc;
unicode = 006C;
userData = {
com.typemytype.robofont.guides = (
);
com.typemytype.robofont.layerData = {
background = {
anchors = (
);
components = (
);
contours = (
{
points = (
{
segmentType = line;
smooth = 0;
x = 56;
y = 65;
},
{
segmentType = line;
smooth = 0;
x = "-38";
y = 16;
},
{
segmentType = line;
smooth = 0;
x = "-38";
y = 0;
},
{
segmentType = line;
smooth = 0;
x = 246;
y = 0;
},
{
segmentType = line;
smooth = 0;
x = 246;
y = 34;
},
{
segmentType = line;
smooth = 0;
x = 161;
y = 47;
},
{
segmentType = line;
smooth = 0;
x = 161;
y = 811;
},
{
segmentType = line;
smooth = 0;
x = 156;
y = 816;
},
{
segmentType = line;
smooth = 0;
x = "-38";
y = 755;
},
{
segmentType = line;
smooth = 0;
x = "-38";
y = 740;
},
{
segmentType = line;
smooth = 0;
x = 56;
y = 688;
}
);
}
);
lib = {
};
name = l;
unicodes = (
);
width = 254;
};
layer_01 = {
anchors = (
);
components = (
);
contours = (
);
lib = {
};
name = l;
unicodes = (
);
width = 254;
};
layer_02 = {
anchors = (
);
components = (
);
contours = (
);
lib = {
};
name = l;
unicodes = (
);
width = 254;
};
};
};
},
{
glyphname = lslash;
lastChange = "2015-03-04 20:31:46 +0000";
layers = (
{
components = (
{
name = l;
}
);
layerId = "E777F328-EA17-4AE7-9EBA-8002E537BA4F";
name = Light;
paths = (
{
closed = 1;
nodes = (
"265 473 LINE",
"241 507 LINE",
"-11 327 LINE",
"13 293 LINE"
);
}
);
width = 254;
},
{
components = (
{
name = l;
}
);
layerId = "AE81D269-4BA9-4AA4-8188-ACE3070EB296";
name = Bold;
paths = (
{
closed = 1;
nodes = (
"374 498 LINE",
"302 596 LINE",
"-40 351 LINE",
"32 253 LINE"
);
}
);
width = 334;
}
);
leftKerningGroup = straightslc;
rightKerningGroup = straightslc;
unicode = 0142;
userData = {
com.typemytype.robofont.guides = (
);
com.typemytype.robofont.layerData = {
background = {
anchors = (
);
components = (
);
contours = (
);
lib = {
};
name = lslash;
unicodes = (
);
width = 254;
};
layer_01 = {
anchors = (
);
components = (
);
contours = (
);
lib = {
};
name = lslash;
unicodes = (
);
width = 254;
};
layer_02 = {
anchors = (
);
components = (
);
contours = (
);
lib = {
};
name = lslash;
unicodes = (
);
width = 254;
};
};
};
},
{
glyphname = m;
lastChange = "2015-03-04 20:31:46 +0000";
layers = (
{
anchors = (
{
name = bottom;
position = "{430, -10}";
},
{
name = top;
position = "{430, 580}";
}
);
layerId = "E777F328-EA17-4AE7-9EBA-8002E537BA4F";
name = Light;
paths = (
{
closed = 1;
nodes = (
"766 0 LINE",
"766 381 LINE SMOOTH",
"766 474 OFFCURVE",
"743 540 OFFCURVE",
"638 540 CURVE SMOOTH",
"576 540 OFFCURVE",
"511 506 OFFCURVE",
"446 449 CURVE",
"458 408 LINE",
"526 463 OFFCURVE",
"577 493 OFFCURVE",
"630 493 CURVE SMOOTH",
"690 493 OFFCURVE",
"712 456 OFFCURVE",
"712 379 CURVE SMOOTH",
"712 0 LINE"
);
},
{
closed = 1;
nodes = (
"154 0 LINE",
"154 442 LINE",
"144 520 LINE",
"100 520 LINE",
"100 0 LINE"
);
},
{
closed = 1;
nodes = (
"460 0 LINE",
"460 381 LINE SMOOTH",
"460 474 OFFCURVE",
"437 540 OFFCURVE",
"332 540 CURVE SMOOTH",
"270 540 OFFCURVE",
"205 506 OFFCURVE",
"140 449 CURVE",
"152 408 LINE",
"220 463 OFFCURVE",
"271 493 OFFCURVE",
"324 493 CURVE SMOOTH",
"384 493 OFFCURVE",
"406 456 OFFCURVE",
"406 379 CURVE SMOOTH",
"406 0 LINE"
);
}
);
width = 861;
},
{
anchors = (
{
name = bottom;
position = "{525, -10}";
},
{
name = top;
position = "{525, 620}";
}
);
layerId = "AE81D269-4BA9-4AA4-8188-ACE3070EB296";
name = Bold;
paths = (
{
closed = 1;
nodes = (
"970 0 LINE",
"970 351 LINE SMOOTH",
"970 485 OFFCURVE",
"933 580 OFFCURVE",
"774 580 CURVE SMOOTH",
"705 580 OFFCURVE",
"640 557 OFFCURVE",
"569 511 CURVE",
"610 418 LINE",
"641 438 OFFCURVE",
"679 453 OFFCURVE",
"716 453 CURVE SMOOTH",
"779 453 OFFCURVE",
"796 421 OFFCURVE",
"796 329 CURVE SMOOTH",
"796 0 LINE"
);
},
{
closed = 1;
nodes = (
"254 0 LINE",
"254 452 LINE",
"209 568 LINE",
"80 568 LINE",
"80 0 LINE"
);
},
{
closed = 1;
nodes = (
"612 0 LINE",
"612 351 LINE SMOOTH",
"612 485 OFFCURVE",
"575 580 OFFCURVE",
"416 580 CURVE SMOOTH",
"347 580 OFFCURVE",
"282 557 OFFCURVE",
"211 511 CURVE",
"252 418 LINE",
"283 438 OFFCURVE",
"321 453 OFFCURVE",
"358 453 CURVE SMOOTH",
"421 453 OFFCURVE",
"438 421 OFFCURVE",
"438 329 CURVE SMOOTH",
"438 0 LINE"
);
}
);
width = 1045;
}
);
leftKerningGroup = straightslc;
rightKerningGroup = n;
unicode = 006D;
userData = {
com.typemytype.robofont.layerData = {
background = {
anchors = (
);
components = (
);
contours = (
{
points = (
{
segmentType = curve;
smooth = 1;
x = 689;
y = 542;
},
{
smooth = 0;
x = 600;
y = 542;
},
{
smooth = 0;
x = 526;
y = 482;
},
{
segmentType = curve;
smooth = 0;
x = 494;
y = 451;
},
{
smooth = 0;
x = 482;
y = 491;
},
{
smooth = 0;
x = 457;
y = 542;
},
{
segmentType = curve;
smooth = 1;
x = 363;
y = 542;
},
{
smooth = 0;
x = 273;
y = 542;
},
{
smooth = 0;
x = 196;
y = 478;
},
{
segmentType = curve;
smooth = 0;
x = 166;
y = 449;
},
{
segmentType = line;
smooth = 0;
x = 164;
y = 450;
},
{
segmentType = line;
smooth = 0;
x = 177;
y = 536;
},
{
segmentType = line;
smooth = 0;
x = 170;
y = 542;
},
{
segmentType = line;
smooth = 0;
x = "-21";
y = 481;
},
{
segmentType = line;
smooth = 0;
x = "-21";
y = 467;
},
{
segmentType = line;
smooth = 0;
x = 73;
y = 414;
},
{
segmentType = line;
smooth = 0;
x = 73;
y = 65;
},
{
segmentType = line;
smooth = 0;
x = "-21";
y = 16;
},
{
segmentType = line;
smooth = 0;
x = "-21";
y = 0;
},
{
segmentType = line;
smooth = 0;
x = 263;
y = 0;
},
{
segmentType = line;
smooth = 0;
x = 263;
y = 34;
},
{
segmentType = line;
smooth = 0;
x = 178;
y = 47;
},
{
segmentType = line;
smooth = 0;
x = 178;
y = 419;
},
{
smooth = 0;
x = 207;
y = 442;
},
{
smooth = 0;
x = 254;
y = 459;
},
{
segmentType = curve;
smooth = 1;
x = 289;
y = 459;
},
{
smooth = 0;
x = 394;
y = 459;
},
{
smooth = 0;
x = 399;
y = 386;
},
{
segmentType = curve;
smooth = 1;
x = 399;
y = 328;
},
{
segmentType = line;
smooth = 0;
x = 399;
y = 65;
},
{
segmentType = line;
smooth = 0;
x = 333;
y = 16;
},
{
segmentType = line;
smooth = 0;
x = 333;
y = 0;
},
{
segmentType = line;
smooth = 0;
x = 598;
y = 0;
},
{
segmentType = line;
smooth = 0;
x = 598;
y = 34;
},
{
segmentType = line;
smooth = 0;
x = 504;
y = 47;
},
{
segmentType = line;
smooth = 0;
x = 504;
y = 419;
},
{
smooth = 0;
x = 532;
y = 442;
},
{
smooth = 0;
x = 580;
y = 459;
},
{
segmentType = curve;
smooth = 1;
x = 615;
y = 459;
},
{
smooth = 0;
x = 720;
y = 459;
},
{
smooth = 0;
x = 725;
y = 386;
},
{
segmentType = curve;
smooth = 1;
x = 725;
y = 328;
},
{
segmentType = line;
smooth = 0;
x = 725;
y = 65;
},
{
segmentType = line;
smooth = 0;
x = 659;
y = 16;
},
{
segmentType = line;
smooth = 0;
x = 659;
y = 0;
},
{
segmentType = line;
smooth = 0;
x = 924;
y = 0;
},
{
segmentType = line;
smooth = 0;
x = 924;
y = 34;
},
{
segmentType = line;
smooth = 0;
x = 830;
y = 47;
},
{
segmentType = line;
smooth = 1;
x = 830;
y = 326;
},
{
smooth = 0;
x = 830;
y = 435;
},
{
smooth = 0;
x = 828;
y = 542;
}
);
}
);
lib = {
};
name = m;
unicodes = (
);
width = 861;
};
layer_01 = {
anchors = (
);
components = (
);
contours = (
);
lib = {
};
name = m;
unicodes = (
);
width = 861;
};
layer_02 = {
anchors = (
);
components = (
);
contours = (
);
lib = {
};
name = m;
unicodes = (
);
width = 861;
};
};
};
},
{
glyphname = n;
lastChange = "2015-03-04 20:31:46 +0000";
layers = (
{
anchors = (
{
name = bottom;
position = "{288, -10}";
},
{
name = top;
position = "{288, 580}";
}
);
layerId = "E777F328-EA17-4AE7-9EBA-8002E537BA4F";
name = Light;
paths = (
{
closed = 1;
nodes = (
"480 0 LINE",
"480 381 LINE SMOOTH",
"480 474 OFFCURVE",
"455 540 OFFCURVE",
"342 540 CURVE SMOOTH",
"276 540 OFFCURVE",
"207 508 OFFCURVE",
"140 449 CURVE",
"152 408 LINE",
"222 465 OFFCURVE",
"278 493 OFFCURVE",
"334 493 CURVE SMOOTH",
"402 493 OFFCURVE",
"426 456 OFFCURVE",
"426 379 CURVE SMOOTH",
"426 0 LINE"
);
},
{
closed = 1;
nodes = (
"154 0 LINE",
"154 442 LINE",
"144 520 LINE",
"100 520 LINE",
"100 0 LINE"
);
}
);
width = 575;
},
{
anchors = (
{
name = bottom;
position = "{347, -10}";
},
{
name = top;
position = "{347, 620}";
}
);
layerId = "AE81D269-4BA9-4AA4-8188-ACE3070EB296";
name = Bold;
paths = (
{
closed = 1;
nodes = (
"612 0 LINE",
"612 351 LINE SMOOTH",
"612 485 OFFCURVE",
"575 580 OFFCURVE",
"416 580 CURVE SMOOTH",
"347 580 OFFCURVE",
"282 557 OFFCURVE",
"211 511 CURVE",
"252 418 LINE",
"283 438 OFFCURVE",
"321 453 OFFCURVE",
"358 453 CURVE SMOOTH",
"421 453 OFFCURVE",
"438 421 OFFCURVE",
"438 329 CURVE SMOOTH",
"438 0 LINE"
);
},
{
closed = 1;
nodes = (
"254 0 LINE",
"254 452 LINE",
"209 568 LINE",
"80 568 LINE",
"80 0 LINE"
);
}
);
width = 687;
}
);
leftKerningGroup = straightslc;
rightKerningGroup = n;
unicode = 006E;
userData = {
com.typemytype.robofont.layerData = {
background = {
anchors = (
);
components = (
);
contours = (
{
points = (
{
segmentType = curve;
smooth = 1;
x = "-307";
y = 542;
},
{
smooth = 0;
x = "-397";
y = 542;
},
{
smooth = 0;
x = "-474";
y = 478;
},
{
segmentType = curve;
smooth = 0;
x = "-504";
y = 449;
},
{
segmentType = line;
smooth = 0;
x = "-506";
y = 450;
},
{
segmentType = line;
smooth = 0;
x = "-493";
y = 536;
},
{
segmentType = line;
smooth = 0;
x = "-500";
y = 542;
},
{
segmentType = line;
smooth = 0;
x = "-691";
y = 481;
},
{
segmentType = line;
smooth = 0;
x = "-691";
y = 467;
},
{
segmentType = line;
smooth = 0;
x = "-597";
y = 414;
},
{
segmentType = line;
smooth = 0;
x = "-597";
y = 65;
},
{
segmentType = line;
smooth = 0;
x = "-691";
y = 16;
},
{
segmentType = line;
smooth = 0;
x = "-691";
y = 0;
},
{
segmentType = line;
smooth = 0;
x = "-407";
y = 0;
},
{
segmentType = line;
smooth = 0;
x = "-407";
y = 34;
},
{
segmentType = line;
smooth = 0;
x = "-492";
y = 47;
},
{
segmentType = line;
smooth = 0;
x = "-492";
y = 419;
},
{
smooth = 0;
x = "-463";
y = 442;
},
{
smooth = 0;
x = "-416";
y = 459;
},
{
segmentType = curve;
smooth = 1;
x = "-381";
y = 459;
},
{
smooth = 0;
x = "-276";
y = 459;
},
{
smooth = 0;
x = "-271";
y = 386;
},
{
segmentType = curve;
smooth = 1;
x = "-271";
y = 328;
},
{
segmentType = line;
smooth = 0;
x = "-271";
y = 65;
},
{
segmentType = line;
smooth = 0;
x = "-337";
y = 16;
},
{
segmentType = line;
smooth = 0;
x = "-337";
y = 0;
},
{
segmentType = line;
smooth = 0;
x = "-72";
y = 0;
},
{
segmentType = line;
smooth = 0;
x = "-72";
y = 34;
},
{
segmentType = line;
smooth = 0;
x = "-166";
y = 47;
},
{
segmentType = line;
smooth = 1;
x = "-166";
y = 326;
},
{
smooth = 0;
x = "-166";
y = 435;
},
{
smooth = 0;
x = "-168";
y = 542;
}
);
},
{
points = (
{
segmentType = curve;
smooth = 1;
x = 365;
y = 542;
},
{
smooth = 0;
x = 275;
y = 542;
},
{
smooth = 0;
x = 198;
y = 478;
},
{
segmentType = curve;
smooth = 0;
x = 168;
y = 449;
},
{
segmentType = line;
smooth = 0;
x = 166;
y = 450;
},
{
segmentType = line;
smooth = 0;
x = 179;
y = 536;
},
{
segmentType = line;
smooth = 0;
x = 172;
y = 542;
},
{
segmentType = line;
smooth = 0;
x = "-19";
y = 481;
},
{
segmentType = line;
smooth = 0;
x = "-19";
y = 467;
},
{
segmentType = line;
smooth = 0;
x = 75;
y = 414;
},
{
segmentType = line;
smooth = 0;
x = 75;
y = 65;
},
{
segmentType = line;
smooth = 0;
x = "-19";
y = 16;
},
{
segmentType = line;
smooth = 0;
x = "-19";
y = 0;
},
{
segmentType = line;
smooth = 0;
x = 265;
y = 0;
},
{
segmentType = line;
smooth = 0;
x = 265;
y = 34;
},
{
segmentType = line;
smooth = 0;
x = 180;
y = 47;
},
{
segmentType = line;
smooth = 0;
x = 180;
y = 419;
},
{
smooth = 0;
x = 209;
y = 442;
},
{
smooth = 0;
x = 256;
y = 459;
},
{
segmentType = curve;
smooth = 1;
x = 291;
y = 459;
},
{
smooth = 0;
x = 396;
y = 459;
},
{
smooth = 0;
x = 401;
y = 386;
},
{
segmentType = curve;
smooth = 1;
x = 401;
y = 328;
},
{
segmentType = line;
smooth = 0;
x = 401;
y = 65;
},
{
segmentType = line;
smooth = 0;
x = 335;
y = 16;
},
{
segmentType = line;
smooth = 0;
x = 335;
y = 0;
},
{
segmentType = line;
smooth = 0;
x = 600;
y = 0;
},
{
segmentType = line;
smooth = 0;
x = 600;
y = 34;
},
{
segmentType = line;
smooth = 0;
x = 506;
y = 47;
},
{
segmentType = line;
smooth = 1;
x = 506;
y = 326;
},
{
smooth = 0;
x = 506;
y = 435;
},
{
smooth = 0;
x = 504;
y = 542;
}
);
}
);
lib = {
};
name = n;
unicodes = (
);
width = 575;
};
layer_01 = {
anchors = (
);
components = (
);
contours = (
);
lib = {
};
name = n;
unicodes = (
);
width = 575;
};
layer_02 = {
anchors = (
);
components = (
);
contours = (
);
lib = {
};
name = n;
unicodes = (
);
width = 575;
};
};
};
},
{
glyphname = o;
lastChange = "2015-03-04 20:31:46 +0000";
layers = (
{
anchors = (
{
name = bottom;
position = "{289, -10}";
},
{
name = top;
position = "{289, 580}";
}
);
layerId = "E777F328-EA17-4AE7-9EBA-8002E537BA4F";
name = Light;
paths = (
{
closed = 1;
nodes = (
"451 -20 OFFCURVE",
"528 112 OFFCURVE",
"528 261 CURVE",
"528 407 OFFCURVE",
"451 540 OFFCURVE",
"289 540 CURVE",
"127 540 OFFCURVE",
"50 407 OFFCURVE",
"50 259 CURVE",
"50 112 OFFCURVE",
"127 -20 OFFCURVE",
"289 -20 CURVE"
);
},
{
closed = 1;
nodes = (
"170 25 OFFCURVE",
"106 126 OFFCURVE",
"106 260 CURVE",
"106 392 OFFCURVE",
"170 495 OFFCURVE",
"289 495 CURVE",
"408 495 OFFCURVE",
"472 392 OFFCURVE",
"472 260 CURVE",
"472 126 OFFCURVE",
"408 25 OFFCURVE",
"289 25 CURVE"
);
}
);
width = 578;
},
{
anchors = (
{
name = bottom;
position = "{339, -10}";
},
{
name = top;
position = "{339, 620}";
}
);
layerId = "AE81D269-4BA9-4AA4-8188-ACE3070EB296";
name = Bold;
paths = (
{
closed = 1;
nodes = (
"540 -12 OFFCURVE",
"638 131 OFFCURVE",
"638 285 CURVE SMOOTH",
"638 439 OFFCURVE",
"540 580 OFFCURVE",
"339 580 CURVE SMOOTH",
"138 580 OFFCURVE",
"40 457 OFFCURVE",
"40 283 CURVE SMOOTH",
"40 116 OFFCURVE",
"138 -12 OFFCURVE",
"339 -12 CURVE SMOOTH"
);
},
{
closed = 1;
nodes = (
"251 113 OFFCURVE",
"216 171 OFFCURVE",
"216 284 CURVE SMOOTH",
"216 397 OFFCURVE",
"251 455 OFFCURVE",
"339 455 CURVE SMOOTH",
"427 455 OFFCURVE",
"462 397 OFFCURVE",
"462 284 CURVE SMOOTH",
"462 171 OFFCURVE",
"427 113 OFFCURVE",
"339 113 CURVE SMOOTH"
);
}
);
width = 678;
}
);
leftKerningGroup = roundslc;
rightKerningGroup = roundslc;
unicode = 006F;
userData = {
com.typemytype.robofont.layerData = {
background = {
anchors = (
);
components = (
);
contours = (
{
points = (
{
segmentType = curve;
smooth = 1;
x = "-430";
y = 284;
},
{
smooth = 0;
x = "-430";
y = 399;
},
{
smooth = 0;
x = "-396";
y = 490;
},
{
segmentType = curve;
smooth = 1;
x = "-300";
y = 490;
},
{
smooth = 0;
x = "-169";
y = 490;
},
{
smooth = 0;
x = "-152";
y = 382;
},
{
segmentType = curve;
smooth = 1;
x = "-152";
y = 234;
},
{
smooth = 0;
x = "-152";
y = 136;
},
{
smooth = 0;
x = "-178";
y = 38;
},
{
segmentType = curve;
smooth = 1;
x = "-280";
y = 38;
},
{
smooth = 0;
x = "-388";
y = 38;
},
{
smooth = 0;
x = "-430";
y = 107;
}
);
},
{
points = (
{
segmentType = curve;
smooth = 1;
x = "-548";
y = 259;
},
{
smooth = 0;
x = "-548";
y = 103;
},
{
smooth = 0;
x = "-458";
y = "-17";
},
{
segmentType = curve;
smooth = 1;
x = "-310";
y = "-17";
},
{
smooth = 0;
x = "-133";
y = "-17";
},
{
smooth = 0;
x = "-34";
y = 102;
},
{
segmentType = curve;
smooth = 1;
x = "-34";
y = 272;
},
{
smooth = 0;
x = "-34";
y = 422;
},
{
smooth = 0;
x = "-124";
y = 542;
},
{
segmentType = curve;
smooth = 1;
x = "-272";
y = 542;
},
{
smooth = 0;
x = "-435";
y = 542;
},
{
smooth = 0;
x = "-548";
y = 432;
}
);
},
{
points = (
{
segmentType = curve;
smooth = 0;
x = 289;
y = 28;
},
{
smooth = 0;
x = 170;
y = 28;
},
{
smooth = 0;
x = 106;
y = 128;
},
{
segmentType = curve;
smooth = 0;
x = 106;
y = 260;
},
{
smooth = 0;
x = 106;
y = 390;
},
{
smooth = 0;
x = 170;
y = 491;
},
{
segmentType = curve;
smooth = 0;
x = 289;
y = 491;
},
{
smooth = 0;
x = 408;
y = 491;
},
{
smooth = 0;
x = 472;
y = 390;
},
{
segmentType = curve;
smooth = 0;
x = 472;
y = 260;
},
{
smooth = 0;
x = 472;
y = 128;
},
{
smooth = 0;
x = 408;
y = 28;
}
);
},
{
points = (
{
segmentType = curve;
smooth = 0;
x = 289;
y = "-17";
},
{
smooth = 0;
x = 451;
y = "-17";
},
{
smooth = 0;
x = 528;
y = 114;
},
{
segmentType = curve;
smooth = 0;
x = 528;
y = 261;
},
{
smooth = 0;
x = 528;
y = 405;
},
{
smooth = 0;
x = 451;
y = 536;
},
{
segmentType = curve;
smooth = 0;
x = 289;
y = 536;
},
{
smooth = 0;
x = 127;
y = 536;
},
{
smooth = 0;
x = 50;
y = 405;
},
{
segmentType = curve;
smooth = 0;
x = 50;
y = 259;
},
{
smooth = 0;
x = 50;
y = 114;
},
{
smooth = 0;
x = 127;
y = "-17";
}
);
}
);
lib = {
};
name = o;
unicodes = (
);
width = 578;
};
layer_01 = {
anchors = (
);
components = (
);
contours = (
);
lib = {
};
name = o;
unicodes = (
);
width = 578;
};
layer_02 = {
anchors = (
);
components = (
);
contours = (
);
lib = {
};
name = o;
unicodes = (
);
width = 578;
};
};
};
},
{
glyphname = oslash;
lastChange = "2015-03-04 20:31:46 +0000";
layers = (
{
components = (
{
name = o;
}
);
layerId = "E777F328-EA17-4AE7-9EBA-8002E537BA4F";
name = Light;
paths = (
{
closed = 1;
nodes = (
"528 514 LINE",
"497 540 LINE",
"50 5 LINE",
"82 -21 LINE"
);
}
);
width = 578;
},
{
components = (
{
name = o;
}
);
layerId = "AE81D269-4BA9-4AA4-8188-ACE3070EB296";
name = Bold;
paths = (
{
closed = 1;
nodes = (
"592 582 LINE",
"520 627 LINE",
"76 -16 LINE",
"148 -61 LINE"
);
}
);
width = 678;
}
);
leftKerningGroup = roundslc;
rightKerningGroup = roundslc;
unicode = 00F8;
userData = {
com.typemytype.robofont.guides = (
{
angle = 90;
isGlobal = 0;
magnetic = 5;
x = 50;
y = "-20";
},
{
angle = 90;
isGlobal = 0;
magnetic = 5;
x = 528;
y = 540;
},
{
angle = 0;
isGlobal = 0;
magnetic = 5;
x = 50;
y = "-20";
},
{
angle = 0;
isGlobal = 0;
magnetic = 5;
x = 528;
y = 540;
}
);
com.typemytype.robofont.layerData = {
background = {
anchors = (
);
components = (
);
contours = (
);
lib = {
};
name = oslash;
unicodes = (
);
width = 578;
};
layer_01 = {
anchors = (
);
components = (
);
contours = (
);
lib = {
};
name = oslash;
unicodes = (
);
width = 578;
};
layer_02 = {
anchors = (
);
components = (
);
contours = (
);
lib = {
};
name = oslash;
unicodes = (
);
width = 578;
};
};
};
},
{
glyphname = oe;
lastChange = "2015-03-04 20:31:46 +0000";
layers = (
{
layerId = "E777F328-EA17-4AE7-9EBA-8002E537BA4F";
name = Light;
paths = (
{
closed = 1;
nodes = (
"451 -20 OFFCURVE",
"528 112 OFFCURVE",
"528 261 CURVE",
"528 407 OFFCURVE",
"451 540 OFFCURVE",
"289 540 CURVE",
"127 540 OFFCURVE",
"50 407 OFFCURVE",
"50 259 CURVE",
"50 112 OFFCURVE",
"127 -20 OFFCURVE",
"289 -20 CURVE"
);
},
{
closed = 1;
nodes = (
"170 25 OFFCURVE",
"106 126 OFFCURVE",
"106 260 CURVE",
"106 392 OFFCURVE",
"170 495 OFFCURVE",
"289 495 CURVE",
"408 495 OFFCURVE",
"472 392 OFFCURVE",
"472 260 CURVE",
"472 126 OFFCURVE",
"408 25 OFFCURVE",
"289 25 CURVE"
);
},
{
closed = 1;
nodes = (
"800 -20 OFFCURVE",
"862 29 OFFCURVE",
"903 83 CURVE",
"875 117 LINE",
"837 67 OFFCURVE",
"786 25 OFFCURVE",
"711 25 CURVE",
"592 25 OFFCURVE",
"528 126 OFFCURVE",
"528 260 CURVE",
"528 392 OFFCURVE",
"592 495 OFFCURVE",
"711 495 CURVE",
"774 495 OFFCURVE",
"844 454 OFFCURVE",
"844 361 CURVE SMOOTH",
"844 346 OFFCURVE",
"842 330 OFFCURVE",
"838 312 CURVE",
"894 312 LINE",
"897 329 OFFCURVE",
"899 345 OFFCURVE",
"899 360 CURVE SMOOTH",
"899 475 OFFCURVE",
"810 540 OFFCURVE",
"711 540 CURVE",
"549 540 OFFCURVE",
"472 407 OFFCURVE",
"472 259 CURVE",
"472 112 OFFCURVE",
"549 -20 OFFCURVE",
"711 -20 CURVE"
);
},
{
closed = 1;
nodes = (
"869 312 LINE",
"869 356 LINE",
"510 356 LINE",
"510 312 LINE"
);
}
);
width = 953;
},
{
layerId = "AE81D269-4BA9-4AA4-8188-ACE3070EB296";
name = Bold;
paths = (
{
closed = 1;
nodes = (
"535 -12 OFFCURVE",
"633 131 OFFCURVE",
"633 285 CURVE SMOOTH",
"633 439 OFFCURVE",
"535 580 OFFCURVE",
"339 580 CURVE SMOOTH",
"143 580 OFFCURVE",
"40 457 OFFCURVE",
"40 283 CURVE SMOOTH",
"40 116 OFFCURVE",
"138 -12 OFFCURVE",
"339 -12 CURVE SMOOTH"
);
},
{
closed = 1;
nodes = (
"251 113 OFFCURVE",
"216 171 OFFCURVE",
"216 284 CURVE SMOOTH",
"216 397 OFFCURVE",
"251 455 OFFCURVE",
"339 455 CURVE SMOOTH",
"427 455 OFFCURVE",
"462 397 OFFCURVE",
"462 284 CURVE SMOOTH",
"462 171 OFFCURVE",
"427 113 OFFCURVE",
"339 113 CURVE SMOOTH"
);
},
{
closed = 1;
nodes = (
"850 -12 OFFCURVE",
"914 13 OFFCURVE",
"984 69 CURVE",
"937 179 LINE",
"880 142 OFFCURVE",
"828 113 OFFCURVE",
"761 113 CURVE",
"667 113 OFFCURVE",
"633 172 OFFCURVE",
"633 286 CURVE",
"633 384 OFFCURVE",
"657 465 OFFCURVE",
"750 465 CURVE SMOOTH",
"799 465 OFFCURVE",
"829 436 OFFCURVE",
"830 381 CURVE SMOOTH",
"830 354 OFFCURVE",
"819 283 OFFCURVE",
"813 252 CURVE",
"985 252 LINE",
"994 282 OFFCURVE",
"998 315 OFFCURVE",
"998 340 CURVE SMOOTH",
"997 492 OFFCURVE",
"916 580 OFFCURVE",
"760 580 CURVE SMOOTH",
"559 580 OFFCURVE",
"462 457 OFFCURVE",
"462 283 CURVE",
"462 118 OFFCURVE",
"555 -12 OFFCURVE",
"760 -12 CURVE"
);
},
{
closed = 1;
nodes = (
"909 252 LINE",
"909 365 LINE",
"559 365 LINE",
"559 252 LINE"
);
}
);
width = 1038;
}
);
leftKerningGroup = roundslc;
rightKerningGroup = e;
unicode = 0153;
userData = {
com.typemytype.robofont.layerData = {
background = {
anchors = (
);
components = (
);
contours = (
);
lib = {
};
name = oe;
unicodes = (
);
width = 953;
};
layer_01 = {
anchors = (
);
components = (
);
contours = (
);
lib = {
};
name = oe;
unicodes = (
);
width = 953;
};
layer_02 = {
anchors = (
);
components = (
);
contours = (
);
lib = {
};
name = oe;
unicodes = (
);
width = 953;
};
};
};
},
{
glyphname = p;
lastChange = "2015-03-04 20:31:46 +0000";
layers = (
{
layerId = "E777F328-EA17-4AE7-9EBA-8002E537BA4F";
name = Light;
paths = (
{
closed = 1;
nodes = (
"411 -20 OFFCURVE",
"515 80 OFFCURVE",
"515 276 CURVE SMOOTH",
"515 442 OFFCURVE",
"432 540 OFFCURVE",
"312 540 CURVE SMOOTH",
"240 540 OFFCURVE",
"183 508 OFFCURVE",
"142 467 CURVE",
"142 421 LINE",
"204 471 OFFCURVE",
"244 493 OFFCURVE",
"312 493 CURVE SMOOTH",
"382 493 OFFCURVE",
"459 438 OFFCURVE",
"459 276 CURVE SMOOTH",
"459 133 OFFCURVE",
"402 25 OFFCURVE",
"263 25 CURVE SMOOTH",
"204 25 OFFCURVE",
"164 42 OFFCURVE",
"136 65 CURVE",
"114 30 LINE",
"146 7 OFFCURVE",
"193 -20 OFFCURVE",
"264 -20 CURVE SMOOTH"
);
},
{
closed = 1;
nodes = (
"154 -237 LINE",
"154 445 LINE",
"144 523 LINE",
"100 523 LINE",
"100 -237 LINE"
);
}
);
width = 565;
},
{
layerId = "AE81D269-4BA9-4AA4-8188-ACE3070EB296";
name = Bold;
paths = (
{
closed = 1;
nodes = (
"509 -12 OFFCURVE",
"655 65 OFFCURVE",
"655 280 CURVE SMOOTH",
"655 474 OFFCURVE",
"543 580 OFFCURVE",
"387 580 CURVE SMOOTH",
"299 580 OFFCURVE",
"231 540 OFFCURVE",
"182 487 CURVE",
"182 368 LINE",
"249 429 OFFCURVE",
"293 455 OFFCURVE",
"367 455 CURVE SMOOTH",
"426 455 OFFCURVE",
"479 420 OFFCURVE",
"479 285 CURVE SMOOTH",
"479 169 OFFCURVE",
"428 113 OFFCURVE",
"318 113 CURVE SMOOTH",
"252 113 OFFCURVE",
"207 133 OFFCURVE",
"176 152 CURVE",
"154 39 LINE",
"191 13 OFFCURVE",
"237 -12 OFFCURVE",
"329 -12 CURVE SMOOTH"
);
},
{
closed = 1;
nodes = (
"254 -232 LINE",
"254 454 LINE",
"209 568 LINE",
"80 568 LINE",
"80 -232 LINE"
);
}
);
width = 695;
}
);
leftKerningGroup = straightslc;
rightKerningGroup = roundslc;
unicode = 0070;
userData = {
com.typemytype.robofont.layerData = {
background = {
anchors = (
);
components = (
);
contours = (
{
points = (
{
segmentType = line;
smooth = 0;
x = 179;
y = "-182";
},
{
segmentType = line;
smooth = 0;
x = 179;
y = "-2";
},
{
smooth = 0;
x = 210;
y = "-12";
},
{
smooth = 0;
x = 242;
y = "-17";
},
{
segmentType = curve;
smooth = 1;
x = 276;
y = "-17";
},
{
smooth = 0;
x = 409;
y = "-17";
},
{
smooth = 0;
x = 543;
y = 99;
},
{
segmentType = curve;
smooth = 1;
x = 543;
y = 295;
},
{
smooth = 0;
x = 543;
y = 441;
},
{
smooth = 0;
x = 460;
y = 542;
},
{
segmentType = curve;
smooth = 1;
x = 340;
y = 542;
},
{
smooth = 0;
x = 277;
y = 542;
},
{
smooth = 0;
x = 206;
y = 487;
},
{
segmentType = curve;
smooth = 0;
x = 167;
y = 451;
},
{
segmentType = line;
smooth = 0;
x = 165;
y = 451;
},
{
segmentType = line;
smooth = 0;
x = 178;
y = 536;
},
{
segmentType = line;
smooth = 0;
x = 171;
y = 542;
},
{
segmentType = line;
smooth = 0;
x = "-20";
y = 481;
},
{
segmentType = line;
smooth = 0;
x = "-20";
y = 467;
},
{
segmentType = line;
smooth = 0;
x = 74;
y = 414;
},
{
segmentType = line;
smooth = 0;
x = 74;
y = "-171";
},
{
segmentType = line;
smooth = 0;
x = "-20";
y = "-220";
},
{
segmentType = line;
smooth = 0;
x = "-20";
y = "-236";
},
{
segmentType = line;
smooth = 0;
x = 293;
y = "-236";
},
{
segmentType = line;
smooth = 0;
x = 293;
y = "-202";
}
);
},
{
points = (
{
segmentType = curve;
smooth = 0;
x = 179;
y = 76;
},
{
segmentType = line;
smooth = 0;
x = 179;
y = 421;
},
{
smooth = 0;
x = 208;
y = 440;
},
{
smooth = 0;
x = 245;
y = 459;
},
{
segmentType = curve;
smooth = 1;
x = 279;
y = 459;
},
{
smooth = 0;
x = 353;
y = 459;
},
{
smooth = 0;
x = 435;
y = 402;
},
{
segmentType = curve;
smooth = 1;
x = 435;
y = 249;
},
{
smooth = 0;
x = 435;
y = 120;
},
{
smooth = 0;
x = 377;
y = 36;
},
{
segmentType = curve;
smooth = 1;
x = 292;
y = 36;
},
{
smooth = 0;
x = 248;
y = 36;
},
{
smooth = 0;
x = 210;
y = 54;
}
);
}
);
lib = {
};
name = p;
unicodes = (
);
width = 565;
};
layer_01 = {
anchors = (
);
components = (
);
contours = (
);
lib = {
};
name = p;
unicodes = (
);
width = 565;
};
layer_02 = {
anchors = (
);
components = (
);
contours = (
);
lib = {
};
name = p;
unicodes = (
);
width = 565;
};
};
};
},
{
glyphname = thorn;
lastChange = "2015-03-04 20:31:46 +0000";
layers = (
{
layerId = "E777F328-EA17-4AE7-9EBA-8002E537BA4F";
name = Light;
paths = (
{
closed = 1;
nodes = (
"411 -20 OFFCURVE",
"515 80 OFFCURVE",
"515 276 CURVE SMOOTH",
"515 442 OFFCURVE",
"432 540 OFFCURVE",
"312 540 CURVE SMOOTH",
"240 540 OFFCURVE",
"183 508 OFFCURVE",
"142 467 CURVE",
"142 421 LINE",
"204 471 OFFCURVE",
"244 493 OFFCURVE",
"312 493 CURVE SMOOTH",
"382 493 OFFCURVE",
"459 438 OFFCURVE",
"459 276 CURVE SMOOTH",
"459 133 OFFCURVE",
"402 25 OFFCURVE",
"263 25 CURVE SMOOTH",
"204 25 OFFCURVE",
"164 42 OFFCURVE",
"136 65 CURVE",
"114 30 LINE",
"146 7 OFFCURVE",
"193 -20 OFFCURVE",
"264 -20 CURVE SMOOTH"
);
},
{
closed = 1;
nodes = (
"154 -237 LINE",
"154 445 LINE",
"154 800 LINE",
"100 800 LINE",
"100 -237 LINE"
);
}
);
width = 565;
},
{
layerId = "AE81D269-4BA9-4AA4-8188-ACE3070EB296";
name = Bold;
paths = (
{
closed = 1;
nodes = (
"520 -12 OFFCURVE",
"655 71 OFFCURVE",
"655 285 CURVE SMOOTH",
"655 481 OFFCURVE",
"543 580 OFFCURVE",
"387 580 CURVE SMOOTH",
"299 580 OFFCURVE",
"231 540 OFFCURVE",
"182 487 CURVE",
"182 368 LINE",
"249 429 OFFCURVE",
"293 455 OFFCURVE",
"367 455 CURVE SMOOTH",
"426 455 OFFCURVE",
"479 420 OFFCURVE",
"479 285 CURVE SMOOTH",
"479 169 OFFCURVE",
"442 113 OFFCURVE",
"358 113 CURVE SMOOTH",
"284 113 OFFCURVE",
"236 154 OFFCURVE",
"202 182 CURVE",
"182 79 LINE",
"218 40 OFFCURVE",
"286 -12 OFFCURVE",
"379 -12 CURVE SMOOTH"
);
},
{
closed = 1;
nodes = (
"254 -232 LINE",
"254 489 LINE",
"254 800 LINE",
"80 800 LINE",
"80 -232 LINE"
);
}
);
width = 695;
}
);
leftKerningGroup = straightslc;
rightKerningGroup = roundslc;
unicode = 00FE;
userData = {
com.typemytype.robofont.layerData = {
background = {
anchors = (
);
components = (
);
contours = (
{
points = (
{
segmentType = line;
smooth = 0;
x = 179;
y = "-182";
},
{
segmentType = line;
smooth = 0;
x = 179;
y = "-2";
},
{
smooth = 0;
x = 210;
y = "-12";
},
{
smooth = 0;
x = 242;
y = "-17";
},
{
segmentType = curve;
smooth = 1;
x = 276;
y = "-17";
},
{
smooth = 0;
x = 409;
y = "-17";
},
{
smooth = 0;
x = 543;
y = 99;
},
{
segmentType = curve;
smooth = 1;
x = 543;
y = 295;
},
{
smooth = 0;
x = 543;
y = 441;
},
{
smooth = 0;
x = 460;
y = 542;
},
{
segmentType = curve;
smooth = 1;
x = 340;
y = 542;
},
{
smooth = 0;
x = 277;
y = 542;
},
{
smooth = 0;
x = 206;
y = 487;
},
{
segmentType = curve;
smooth = 0;
x = 167;
y = 451;
},
{
segmentType = line;
smooth = 0;
x = 165;
y = 451;
},
{
segmentType = line;
smooth = 0;
x = 178;
y = 536;
},
{
segmentType = line;
smooth = 0;
x = 171;
y = 542;
},
{
segmentType = line;
smooth = 0;
x = "-20";
y = 481;
},
{
segmentType = line;
smooth = 0;
x = "-20";
y = 467;
},
{
segmentType = line;
smooth = 0;
x = 74;
y = 414;
},
{
segmentType = line;
smooth = 0;
x = 74;
y = "-171";
},
{
segmentType = line;
smooth = 0;
x = "-20";
y = "-220";
},
{
segmentType = line;
smooth = 0;
x = "-20";
y = "-236";
},
{
segmentType = line;
smooth = 0;
x = 293;
y = "-236";
},
{
segmentType = line;
smooth = 0;
x = 293;
y = "-202";
}
);
},
{
points = (
{
segmentType = curve;
smooth = 0;
x = 179;
y = 76;
},
{
segmentType = line;
smooth = 0;
x = 179;
y = 421;
},
{
smooth = 0;
x = 208;
y = 440;
},
{
smooth = 0;
x = 245;
y = 459;
},
{
segmentType = curve;
smooth = 1;
x = 279;
y = 459;
},
{
smooth = 0;
x = 353;
y = 459;
},
{
smooth = 0;
x = 435;
y = 402;
},
{
segmentType = curve;
smooth = 1;
x = 435;
y = 249;
},
{
smooth = 0;
x = 435;
y = 120;
},
{
smooth = 0;
x = 377;
y = 36;
},
{
segmentType = curve;
smooth = 1;
x = 292;
y = 36;
},
{
smooth = 0;
x = 248;
y = 36;
},
{
smooth = 0;
x = 210;
y = 54;
}
);
}
);
lib = {
};
name = thorn;
unicodes = (
);
width = 565;
};
layer_01 = {
anchors = (
);
components = (
);
contours = (
);
lib = {
};
name = thorn;
unicodes = (
);
width = 565;
};
layer_02 = {
anchors = (
);
components = (
);
contours = (
);
lib = {
};
name = thorn;
unicodes = (
);
width = 565;
};
};
};
},
{
glyphname = q;
lastChange = "2015-03-04 20:31:46 +0000";
layers = (
{
layerId = "E777F328-EA17-4AE7-9EBA-8002E537BA4F";
name = Light;
paths = (
{
closed = 1;
nodes = (
"325 -20 OFFCURVE",
"382 13 OFFCURVE",
"423 54 CURVE",
"423 100 LINE",
"361 50 OFFCURVE",
"321 27 OFFCURVE",
"253 27 CURVE SMOOTH",
"183 27 OFFCURVE",
"106 82 OFFCURVE",
"106 245 CURVE SMOOTH",
"106 387 OFFCURVE",
"163 495 OFFCURVE",
"302 495 CURVE SMOOTH",
"361 495 OFFCURVE",
"401 479 OFFCURVE",
"429 456 CURVE",
"451 491 LINE",
"419 514 OFFCURVE",
"372 540 OFFCURVE",
"301 540 CURVE SMOOTH",
"154 540 OFFCURVE",
"50 440 OFFCURVE",
"50 245 CURVE SMOOTH",
"50 78 OFFCURVE",
"133 -20 OFFCURVE",
"253 -20 CURVE SMOOTH"
);
},
{
closed = 1;
nodes = (
"465 -237 LINE",
"465 523 LINE",
"441 523 LINE",
"411 485 LINE",
"411 -237 LINE"
);
}
);
width = 565;
},
{
layerId = "AE81D269-4BA9-4AA4-8188-ACE3070EB296";
name = Bold;
paths = (
{
closed = 1;
nodes = (
"396 -12 OFFCURVE",
"464 28 OFFCURVE",
"513 81 CURVE",
"513 200 LINE",
"446 139 OFFCURVE",
"402 113 OFFCURVE",
"328 113 CURVE SMOOTH",
"269 113 OFFCURVE",
"216 148 OFFCURVE",
"216 283 CURVE SMOOTH",
"216 399 OFFCURVE",
"253 455 OFFCURVE",
"337 455 CURVE SMOOTH",
"411 455 OFFCURVE",
"459 414 OFFCURVE",
"493 386 CURVE",
"513 489 LINE",
"477 528 OFFCURVE",
"409 580 OFFCURVE",
"316 580 CURVE SMOOTH",
"175 580 OFFCURVE",
"40 497 OFFCURVE",
"40 283 CURVE SMOOTH",
"40 87 OFFCURVE",
"152 -12 OFFCURVE",
"308 -12 CURVE SMOOTH"
);
},
{
closed = 1;
nodes = (
"615 -237 LINE",
"615 568 LINE",
"486 568 LINE",
"441 454 LINE",
"441 -237 LINE"
);
}
);
width = 695;
}
);
leftKerningGroup = roundslc;
rightKerningGroup = straightslc;
unicode = 0071;
userData = {
com.typemytype.robofont.layerData = {
background = {
anchors = (
);
components = (
);
contours = (
{
points = (
{
segmentType = line;
smooth = 0;
x = 381;
y = "-182";
},
{
segmentType = line;
smooth = 0;
x = 268;
y = "-202";
},
{
segmentType = line;
smooth = 0;
x = 268;
y = "-236";
},
{
segmentType = line;
smooth = 0;
x = 580;
y = "-236";
},
{
segmentType = line;
smooth = 0;
x = 580;
y = "-220";
},
{
segmentType = line;
smooth = 0;
x = 486;
y = "-171";
},
{
segmentType = line;
smooth = 0;
x = 486;
y = 537;
},
{
segmentType = line;
smooth = 0;
x = 480;
y = 537;
},
{
segmentType = line;
smooth = 0;
x = 437;
y = 502;
},
{
smooth = 0;
x = 403;
y = 520;
},
{
smooth = 0;
x = 354;
y = 542;
},
{
segmentType = curve;
smooth = 1;
x = 285;
y = 542;
},
{
smooth = 0;
x = 151;
y = 542;
},
{
smooth = 0;
x = 17;
y = 431;
},
{
segmentType = curve;
smooth = 1;
x = 17;
y = 235;
},
{
smooth = 0;
x = 17;
y = 89;
},
{
smooth = 0;
x = 100;
y = "-22";
},
{
segmentType = curve;
smooth = 1;
x = 220;
y = "-22";
},
{
smooth = 0;
x = 276;
y = "-22";
},
{
smooth = 0;
x = 341;
y = 26;
},
{
segmentType = curve;
smooth = 0;
x = 381;
y = 60;
}
);
},
{
points = (
{
segmentType = curve;
smooth = 1;
x = 281;
y = 61;
},
{
smooth = 0;
x = 207;
y = 61;
},
{
smooth = 0;
x = 125;
y = 132;
},
{
segmentType = curve;
smooth = 1;
x = 125;
y = 281;
},
{
smooth = 0;
x = 125;
y = 410;
},
{
smooth = 0;
x = 183;
y = 489;
},
{
segmentType = curve;
smooth = 1;
x = 268;
y = 489;
},
{
smooth = 0;
x = 312;
y = 489;
},
{
smooth = 0;
x = 350;
y = 471;
},
{
segmentType = curve;
smooth = 0;
x = 381;
y = 450;
},
{
segmentType = line;
smooth = 0;
x = 381;
y = 101;
},
{
smooth = 0;
x = 353;
y = 79;
},
{
smooth = 0;
x = 309;
y = 61;
}
);
}
);
lib = {
};
name = q;
unicodes = (
);
width = 565;
};
layer_01 = {
anchors = (
);
components = (
);
contours = (
);
lib = {
};
name = q;
unicodes = (
);
width = 565;
};
layer_02 = {
anchors = (
);
components = (
);
contours = (
);
lib = {
};
name = q;
unicodes = (
);
width = 565;
};
};
};
},
{
glyphname = r;
lastChange = "2015-03-04 20:31:46 +0000";
layers = (
{
anchors = (
{
name = bottom;
position = "{124, -10}";
},
{
name = top;
position = "{213, 580}";
}
);
layerId = "E777F328-EA17-4AE7-9EBA-8002E537BA4F";
name = Light;
paths = (
{
closed = 1;
nodes = (
"230 472 OFFCURVE",
"284 491 OFFCURVE",
"342 491 CURVE",
"342 540 LINE",
"276 540 OFFCURVE",
"214 514 OFFCURVE",
"140 429 CURVE",
"152 388 LINE"
);
},
{
closed = 1;
nodes = (
"154 0 LINE",
"154 442 LINE",
"144 520 LINE",
"100 520 LINE",
"100 0 LINE"
);
}
);
width = 372;
},
{
anchors = (
{
name = bottom;
position = "{166, -10}";
},
{
name = top;
position = "{255, 620}";
}
);
layerId = "AE81D269-4BA9-4AA4-8188-ACE3070EB296";
name = Bold;
paths = (
{
closed = 1;
nodes = (
"312 407 OFFCURVE",
"374 412 OFFCURVE",
"442 412 CURVE",
"442 579 LINE",
"365 579 OFFCURVE",
"294 556 OFFCURVE",
"210 479 CURVE",
"222 370 LINE"
);
},
{
closed = 1;
nodes = (
"254 0 LINE",
"254 452 LINE",
"209 568 LINE",
"80 568 LINE",
"80 0 LINE"
);
}
);
width = 472;
}
);
leftKerningGroup = straightslc;
rightKerningGroup = r;
unicode = 0072;
userData = {
com.typemytype.robofont.layerData = {
background = {
anchors = (
);
components = (
);
contours = (
{
points = (
{
segmentType = line;
smooth = 0;
x = 75;
y = 65;
},
{
segmentType = line;
smooth = 0;
x = "-19";
y = 16;
},
{
segmentType = line;
smooth = 0;
x = "-19";
y = 0;
},
{
segmentType = line;
smooth = 0;
x = 312;
y = 0;
},
{
segmentType = line;
smooth = 0;
x = 312;
y = 34;
},
{
segmentType = line;
smooth = 0;
x = 180;
y = 54;
},
{
segmentType = line;
smooth = 0;
x = 180;
y = 417;
},
{
smooth = 0;
x = 206;
y = 437;
},
{
smooth = 0;
x = 248;
y = 453;
},
{
segmentType = curve;
smooth = 0;
x = 274;
y = 454;
},
{
segmentType = line;
smooth = 0;
x = 338;
y = 384;
},
{
segmentType = line;
smooth = 0;
x = 340;
y = 384;
},
{
smooth = 0;
x = 370;
y = 403;
},
{
smooth = 0;
x = 407;
y = 435;
},
{
segmentType = curve;
smooth = 1;
x = 407;
y = 480;
},
{
smooth = 0;
x = 407;
y = 506;
},
{
smooth = 0;
x = 388;
y = 543;
},
{
segmentType = curve;
smooth = 1;
x = 334;
y = 543;
},
{
smooth = 0;
x = 284;
y = 543;
},
{
smooth = 0;
x = 215;
y = 492;
},
{
segmentType = curve;
smooth = 0;
x = 168;
y = 449;
},
{
segmentType = line;
smooth = 0;
x = 166;
y = 450;
},
{
segmentType = line;
smooth = 0;
x = 179;
y = 536;
},
{
segmentType = line;
smooth = 0;
x = 172;
y = 542;
},
{
segmentType = line;
smooth = 0;
x = "-19";
y = 481;
},
{
segmentType = line;
smooth = 0;
x = "-19";
y = 467;
},
{
segmentType = line;
smooth = 0;
x = 75;
y = 414;
}
);
}
);
lib = {
};
name = r;
unicodes = (
);
width = 372;
};
layer_01 = {
anchors = (
);
components = (
);
contours = (
);
lib = {
};
name = r;
unicodes = (
);
width = 372;
};
layer_02 = {
anchors = (
);
components = (
);
contours = (
);
lib = {
};
name = r;
unicodes = (
);
width = 372;
};
};
};
},
{
glyphname = s;
lastChange = "2015-03-04 20:31:46 +0000";
layers = (
{
anchors = (
{
name = bottom;
position = "{234, -10}";
},
{
name = top;
position = "{231, 580}";
}
);
layerId = "E777F328-EA17-4AE7-9EBA-8002E537BA4F";
name = Light;
paths = (
{
closed = 1;
nodes = (
"334 -20 OFFCURVE",
"412 39 OFFCURVE",
"412 135 CURVE SMOOTH",
"412 318 OFFCURVE",
"125 265 OFFCURVE",
"125 402 CURVE SMOOTH",
"125 467 OFFCURVE",
"175 495 OFFCURVE",
"233 495 CURVE SMOOTH",
"287 495 OFFCURVE",
"337 476 OFFCURVE",
"376 442 CURVE",
"400 484 LINE",
"353 520 OFFCURVE",
"304 540 OFFCURVE",
"233 540 CURVE SMOOTH",
"147 540 OFFCURVE",
"73 495 OFFCURVE",
"73 401 CURVE",
"73 219 OFFCURVE",
"360 272 OFFCURVE",
"360 135 CURVE",
"360 65 OFFCURVE",
"306 25 OFFCURVE",
"234 25 CURVE SMOOTH",
"166 25 OFFCURVE",
"112 43 OFFCURVE",
"74 78 CURVE",
"50 36 LINE",
"98 -1 OFFCURVE",
"147 -20 OFFCURVE",
"234 -20 CURVE SMOOTH"
);
}
);
width = 462;
},
{
anchors = (
{
name = bottom;
position = "{252, -10}";
},
{
name = top;
position = "{289, 620}";
}
);
layerId = "AE81D269-4BA9-4AA4-8188-ACE3070EB296";
name = Bold;
paths = (
{
closed = 1;
nodes = (
"421 -12 OFFCURVE",
"510 58 OFFCURVE",
"510 173 CURVE SMOOTH",
"510 365 OFFCURVE",
"223 333 OFFCURVE",
"223 414 CURVE SMOOTH",
"223 442 OFFCURVE",
"256 455 OFFCURVE",
"311 455 CURVE SMOOTH",
"360 455 OFFCURVE",
"404 444 OFFCURVE",
"450 428 CURVE",
"483 548 LINE",
"434 569 OFFCURVE",
"363 580 OFFCURVE",
"306 580 CURVE SMOOTH",
"150 580 OFFCURVE",
"51 518 OFFCURVE",
"51 393 CURVE SMOOTH",
"51 226 OFFCURVE",
"338 240 OFFCURVE",
"338 161 CURVE SMOOTH",
"338 124 OFFCURVE",
"294 113 OFFCURVE",
"240 113 CURVE SMOOTH",
"185 113 OFFCURVE",
"134 124 OFFCURVE",
"73 145 CURVE",
"40 25 LINE",
"90 5 OFFCURVE",
"167 -12 OFFCURVE",
"242 -12 CURVE SMOOTH"
);
}
);
width = 550;
}
);
leftKerningGroup = s;
rightKerningGroup = s;
unicode = 0073;
userData = {
com.typemytype.robofont.layerData = {
background = {
anchors = (
);
components = (
);
contours = (
{
points = (
{
segmentType = curve;
smooth = 0;
x = 240;
y = 542;
},
{
smooth = 0;
x = 152;
y = 542;
},
{
smooth = 0;
x = 73;
y = 496;
},
{
segmentType = curve;
smooth = 1;
x = 73;
y = 405;
},
{
smooth = 0;
x = 73;
y = 307;
},
{
smooth = 0;
x = 155;
y = 282;
},
{
segmentType = curve;
smooth = 1;
x = 235;
y = 248;
},
{
smooth = 0;
x = 293;
y = 223;
},
{
smooth = 0;
x = 360;
y = 201;
},
{
segmentType = curve;
smooth = 1;
x = 360;
y = 135;
},
{
smooth = 0;
x = 360;
y = 63;
},
{
smooth = 0;
x = 302;
y = 28;
},
{
segmentType = curve;
smooth = 1;
x = 224;
y = 28;
},
{
smooth = 0;
x = 160;
y = 28;
},
{
smooth = 0;
x = 111;
y = 47;
},
{
segmentType = curve;
smooth = 0;
x = 74;
y = 81;
},
{
segmentType = line;
smooth = 0;
x = 50;
y = 39;
},
{
smooth = 0;
x = 96;
y = 3;
},
{
smooth = 0;
x = 142;
y = "-17";
},
{
segmentType = curve;
smooth = 1;
x = 224;
y = "-17";
},
{
smooth = 0;
x = 330;
y = "-17";
},
{
smooth = 0;
x = 412;
y = 37;
},
{
segmentType = curve;
smooth = 1;
x = 412;
y = 135;
},
{
smooth = 0;
x = 412;
y = 234;
},
{
smooth = 0;
x = 326;
y = 261;
},
{
segmentType = curve;
smooth = 1;
x = 251;
y = 293;
},
{
smooth = 0;
x = 190;
y = 319;
},
{
smooth = 0;
x = 125;
y = 344;
},
{
segmentType = curve;
smooth = 1;
x = 125;
y = 406;
},
{
smooth = 0;
x = 125;
y = 468;
},
{
smooth = 0;
x = 180;
y = 497;
},
{
segmentType = curve;
smooth = 0;
x = 240;
y = 497;
},
{
smooth = 0;
x = 293;
y = 497;
},
{
smooth = 0;
x = 339;
y = 477;
},
{
segmentType = curve;
smooth = 0;
x = 376;
y = 444;
},
{
segmentType = line;
smooth = 0;
x = 400;
y = 486;
},
{
smooth = 0;
x = 355;
y = 521;
},
{
smooth = 0;
x = 310;
y = 542;
}
);
}
);
lib = {
};
name = s;
unicodes = (
);
width = 462;
};
layer_01 = {
anchors = (
);
components = (
);
contours = (
);
lib = {
};
name = s;
unicodes = (
);
width = 462;
};
layer_02 = {
anchors = (
);
components = (
);
contours = (
);
lib = {
};
name = s;
unicodes = (
);
width = 462;
};
};
};
},
{
glyphname = germandbls;
lastChange = "2015-03-04 20:31:46 +0000";
layers = (
{
layerId = "E777F328-EA17-4AE7-9EBA-8002E537BA4F";
name = Light;
paths = (
{
closed = 1;
nodes = (
"436 -20 OFFCURVE",
"512 39 OFFCURVE",
"512 135 CURVE SMOOTH",
"512 316 OFFCURVE",
"305 289 OFFCURVE",
"305 407 CURVE",
"305 514 OFFCURVE",
"478 516 OFFCURVE",
"478 655 CURVE SMOOTH",
"478 745 OFFCURVE",
"415 800 OFFCURVE",
"306 800 CURVE SMOOTH",
"171 800 OFFCURVE",
"100 719 OFFCURVE",
"100 581 CURVE SMOOTH",
"100 0 LINE",
"154 0 LINE",
"154 579 LINE SMOOTH",
"154 696 OFFCURVE",
"204 753 OFFCURVE",
"306 753 CURVE SMOOTH",
"381 753 OFFCURVE",
"424 720 OFFCURVE",
"424 658 CURVE SMOOTH",
"424 539 OFFCURVE",
"253 540 OFFCURVE",
"253 406 CURVE SMOOTH",
"253 249 OFFCURVE",
"460 276 OFFCURVE",
"460 135 CURVE",
"460 65 OFFCURVE",
"408 25 OFFCURVE",
"348 25 CURVE SMOOTH",
"304 25 OFFCURVE",
"269 40 OFFCURVE",
"244 61 CURVE",
"220 19 LINE",
"252 -5 OFFCURVE",
"291 -20 OFFCURVE",
"348 -20 CURVE SMOOTH"
);
}
);
width = 562;
},
{
layerId = "AE81D269-4BA9-4AA4-8188-ACE3070EB296";
name = Bold;
paths = (
{
closed = 1;
nodes = (
"586 -12 OFFCURVE",
"692 58 OFFCURVE",
"692 172 CURVE SMOOTH",
"692 330 OFFCURVE",
"485 346 OFFCURVE",
"485 417 CURVE SMOOTH",
"485 476 OFFCURVE",
"607 539 OFFCURVE",
"607 645 CURVE SMOOTH",
"607 745 OFFCURVE",
"519 807 OFFCURVE",
"366 807 CURVE SMOOTH",
"179 807 OFFCURVE",
"80 723 OFFCURVE",
"80 581 CURVE SMOOTH",
"80 0 LINE",
"254 0 LINE",
"254 579 LINE SMOOTH",
"254 648 OFFCURVE",
"288 682 OFFCURVE",
"356 682 CURVE SMOOTH",
"406 682 OFFCURVE",
"435 666 OFFCURVE",
"435 636 CURVE SMOOTH",
"435 582 OFFCURVE",
"313 527 OFFCURVE",
"313 396 CURVE SMOOTH",
"313 241 OFFCURVE",
"520 231 OFFCURVE",
"520 160 CURVE",
"520 127 OFFCURVE",
"498 113 OFFCURVE",
"451 113 CURVE SMOOTH",
"410 113 OFFCURVE",
"356 124 OFFCURVE",
"312 139 CURVE",
"280 18 LINE",
"330 1 OFFCURVE",
"397 -12 OFFCURVE",
"463 -12 CURVE SMOOTH"
);
}
);
width = 732;
}
);
leftKerningGroup = straightslc;
rightKerningGroup = s;
unicode = 00DF;
userData = {
com.typemytype.robofont.layerData = {
background = {
anchors = (
);
components = (
);
contours = (
{
points = (
{
segmentType = curve;
smooth = 1;
x = 478;
y = 655;
},
{
smooth = 0;
x = 478;
y = 745;
},
{
smooth = 0;
x = 415;
y = 800;
},
{
segmentType = curve;
smooth = 1;
x = 306;
y = 800;
},
{
smooth = 0;
x = 171;
y = 800;
},
{
smooth = 0;
x = 100;
y = 719;
},
{
segmentType = curve;
smooth = 1;
x = 100;
y = 581;
},
{
segmentType = line;
smooth = 0;
x = 100;
y = 0;
},
{
segmentType = line;
smooth = 0;
x = 154;
y = 0;
},
{
segmentType = line;
smooth = 1;
x = 154;
y = 579;
},
{
smooth = 0;
x = 154;
y = 696;
},
{
smooth = 0;
x = 204;
y = 753;
},
{
segmentType = curve;
smooth = 1;
x = 306;
y = 753;
},
{
smooth = 0;
x = 381;
y = 753;
},
{
smooth = 0;
x = 424;
y = 720;
},
{
segmentType = curve;
smooth = 1;
x = 424;
y = 658;
},
{
smooth = 0;
x = 424;
y = 607;
},
{
smooth = 0;
x = 409;
y = 586;
},
{
segmentType = curve;
smooth = 1;
x = 361;
y = 551;
},
{
smooth = 0;
x = 291;
y = 500;
},
{
smooth = 0;
x = 253;
y = 469;
},
{
segmentType = curve;
smooth = 1;
x = 253;
y = 406;
},
{
smooth = 0;
x = 253;
y = 249;
},
{
smooth = 0;
x = 450;
y = 276;
},
{
segmentType = curve;
smooth = 0;
x = 450;
y = 135;
},
{
smooth = 0;
x = 450;
y = 67;
},
{
smooth = 0;
x = 397;
y = 28;
},
{
segmentType = curve;
smooth = 1;
x = 337;
y = 28;
},
{
smooth = 0;
x = 295;
y = 28;
},
{
smooth = 0;
x = 257;
y = 44;
},
{
segmentType = curve;
smooth = 0;
x = 228;
y = 71;
},
{
segmentType = line;
smooth = 0;
x = 200;
y = 29;
},
{
smooth = 0;
x = 238;
y = "-1";
},
{
smooth = 0;
x = 276;
y = "-17";
},
{
segmentType = curve;
smooth = 1;
x = 337;
y = "-17";
},
{
smooth = 0;
x = 425;
y = "-17";
},
{
smooth = 0;
x = 502;
y = 41;
},
{
segmentType = curve;
smooth = 1;
x = 502;
y = 135;
},
{
smooth = 0;
x = 502;
y = 316;
},
{
smooth = 0;
x = 305;
y = 289;
},
{
segmentType = curve;
smooth = 0;
x = 305;
y = 407;
},
{
smooth = 0;
x = 305;
y = 452;
},
{
smooth = 0;
x = 340;
y = 479;
},
{
segmentType = curve;
smooth = 1;
x = 388;
y = 514;
},
{
smooth = 0;
x = 446;
y = 557;
},
{
smooth = 0;
x = 478;
y = 592;
}
);
}
);
lib = {
};
name = germandbls;
unicodes = (
);
width = 562;
};
layer_01 = {
anchors = (
);
components = (
);
contours = (
);
lib = {
};
name = germandbls;
unicodes = (
);
width = 562;
};
layer_02 = {
anchors = (
);
components = (
);
contours = (
);
lib = {
};
name = germandbls;
unicodes = (
);
width = 562;
};
};
};
},
{
glyphname = t;
lastChange = "2015-03-04 20:31:46 +0000";
layers = (
{
anchors = (
{
name = bottom;
position = "{256, -10}";
},
{
name = caronSlovak;
position = "{204, 589}";
}
);
layerId = "E777F328-EA17-4AE7-9EBA-8002E537BA4F";
name = Light;
paths = (
{
closed = 1;
nodes = (
"302 -15 OFFCURVE",
"329 -8 OFFCURVE",
"366 13 CURVE",
"355 57 LINE",
"323 41 OFFCURVE",
"304 32 OFFCURVE",
"270 32 CURVE SMOOTH",
"200 32 OFFCURVE",
"174 76 OFFCURVE",
"174 167 CURVE SMOOTH",
"174 638 LINE",
"140 638 LINE",
"120 492 LINE",
"120 165 LINE SMOOTH",
"120 52 OFFCURVE",
"165 -15 OFFCURVE",
"270 -15 CURVE SMOOTH"
);
},
{
closed = 1;
nodes = (
"334 476 LINE",
"334 520 LINE",
"130 520 LINE",
"35 500 LINE",
"35 476 LINE"
);
}
);
width = 404;
},
{
anchors = (
{
name = bottom;
position = "{260, -10}";
},
{
name = caronSlovak;
position = "{298, 529}";
}
);
layerId = "AE81D269-4BA9-4AA4-8188-ACE3070EB296";
name = Bold;
paths = (
{
closed = 1;
nodes = (
"359 -7 OFFCURVE",
"420 7 OFFCURVE",
"462 37 CURVE",
"435 144 LINE",
"408 129 OFFCURVE",
"375 119 OFFCURVE",
"345 118 CURVE SMOOTH",
"300 117 OFFCURVE",
"274 140 OFFCURVE",
"274 215 CURVE SMOOTH",
"274 714 LINE",
"170 714 LINE",
"100 492 LINE",
"100 173 LINE SMOOTH",
"100 60 OFFCURVE",
"166 -7 OFFCURVE",
"310 -7 CURVE SMOOTH"
);
},
{
closed = 1;
nodes = (
"434 445 LINE",
"434 568 LINE",
"140 568 LINE",
"15 518 LINE",
"15 445 LINE"
);
}
);
width = 484;
}
);
leftKerningGroup = t;
rightKerningGroup = t;
unicode = 0074;
userData = {
com.typemytype.robofont.layerData = {
background = {
anchors = (
);
components = (
);
contours = (
);
lib = {
};
name = t;
unicodes = (
);
width = 404;
};
layer_01 = {
anchors = (
);
components = (
);
contours = (
);
lib = {
};
name = t;
unicodes = (
);
width = 404;
};
layer_02 = {
anchors = (
);
components = (
);
contours = (
);
lib = {
};
name = t;
unicodes = (
);
width = 404;
};
};
};
},
{
glyphname = u;
lastChange = "2015-03-04 20:31:46 +0000";
layers = (
{
anchors = (
{
name = bottom;
position = "{437, -10}";
},
{
name = top;
position = "{288, 580}";
}
);
layerId = "E777F328-EA17-4AE7-9EBA-8002E537BA4F";
name = Light;
paths = (
{
closed = 1;
nodes = (
"299 -20 OFFCURVE",
"368 12 OFFCURVE",
"435 71 CURVE",
"423 112 LINE",
"353 55 OFFCURVE",
"297 27 OFFCURVE",
"241 27 CURVE SMOOTH",
"173 27 OFFCURVE",
"149 64 OFFCURVE",
"149 141 CURVE SMOOTH",
"149 520 LINE",
"95 520 LINE",
"95 139 LINE SMOOTH",
"95 46 OFFCURVE",
"120 -20 OFFCURVE",
"233 -20 CURVE SMOOTH"
);
},
{
closed = 1;
nodes = (
"475 0 LINE",
"475 520 LINE",
"421 520 LINE",
"421 78 LINE",
"431 0 LINE"
);
}
);
width = 575;
},
{
anchors = (
{
name = bottom;
position = "{509, -10}";
},
{
name = top;
position = "{338, 620}";
}
);
layerId = "AE81D269-4BA9-4AA4-8188-ACE3070EB296";
name = Bold;
paths = (
{
closed = 1;
nodes = (
"340 -12 OFFCURVE",
"405 11 OFFCURVE",
"476 57 CURVE",
"435 150 LINE",
"404 130 OFFCURVE",
"366 115 OFFCURVE",
"329 115 CURVE SMOOTH",
"266 115 OFFCURVE",
"249 147 OFFCURVE",
"249 239 CURVE SMOOTH",
"249 568 LINE",
"75 568 LINE",
"75 217 LINE SMOOTH",
"75 83 OFFCURVE",
"112 -12 OFFCURVE",
"271 -12 CURVE SMOOTH"
);
},
{
closed = 1;
nodes = (
"607 0 LINE",
"607 568 LINE",
"433 568 LINE",
"433 116 LINE",
"478 0 LINE"
);
}
);
width = 687;
}
);
leftKerningGroup = straightslc;
rightKerningGroup = straightslc;
unicode = 0075;
userData = {
com.typemytype.robofont.layerData = {
background = {
anchors = (
);
components = (
);
contours = (
{
points = (
{
segmentType = line;
smooth = 1;
x = 61;
y = 195;
},
{
smooth = 0;
x = 61;
y = 85;
},
{
smooth = 0;
x = 63;
y = "-22";
},
{
segmentType = curve;
smooth = 1;
x = 202;
y = "-22";
},
{
smooth = 0;
x = 297;
y = "-22";
},
{
smooth = 0;
x = 370;
y = 43;
},
{
segmentType = curve;
smooth = 0;
x = 405;
y = 77;
},
{
segmentType = line;
smooth = 0;
x = 407;
y = 77;
},
{
segmentType = line;
smooth = 0;
x = 401;
y = "-9";
},
{
segmentType = line;
smooth = 0;
x = 404;
y = "-12";
},
{
segmentType = line;
smooth = 0;
x = 587;
y = 31;
},
{
segmentType = line;
smooth = 0;
x = 583;
y = 72;
},
{
segmentType = line;
smooth = 0;
x = 492;
y = 61;
},
{
segmentType = line;
smooth = 0;
x = 492;
y = 528;
},
{
segmentType = line;
smooth = 0;
x = 486;
y = 533;
},
{
segmentType = line;
smooth = 0;
x = 298;
y = 492;
},
{
segmentType = line;
smooth = 0;
x = 298;
y = 476;
},
{
segmentType = line;
smooth = 0;
x = 387;
y = 423;
},
{
segmentType = line;
smooth = 0;
x = 387;
y = 101;
},
{
smooth = 0;
x = 359;
y = 78;
},
{
smooth = 0;
x = 312;
y = 61;
},
{
segmentType = curve;
smooth = 1;
x = 277;
y = 61;
},
{
smooth = 0;
x = 171;
y = 61;
},
{
smooth = 0;
x = 166;
y = 134;
},
{
segmentType = curve;
smooth = 1;
x = 166;
y = 193;
},
{
segmentType = line;
smooth = 0;
x = 166;
y = 528;
},
{
segmentType = line;
smooth = 0;
x = 161;
y = 533;
},
{
segmentType = line;
smooth = 0;
x = "-28";
y = 492;
},
{
segmentType = line;
smooth = 0;
x = "-28";
y = 476;
},
{
segmentType = line;
smooth = 0;
x = 61;
y = 423;
}
);
}
);
lib = {
};
name = u;
unicodes = (
);
width = 575;
};
layer_01 = {
anchors = (
);
components = (
);
contours = (
);
lib = {
};
name = u;
unicodes = (
);
width = 575;
};
layer_02 = {
anchors = (
);
components = (
);
contours = (
);
lib = {
};
name = u;
unicodes = (
);
width = 575;
};
};
};
},
{
glyphname = v;
lastChange = "2015-03-04 20:31:46 +0000";
layers = (
{
layerId = "E777F328-EA17-4AE7-9EBA-8002E537BA4F";
name = Light;
paths = (
{
closed = 1;
nodes = (
"269 -9 LINE",
"473 520 LINE",
"418 520 LINE",
"242 61 LINE",
"254 61 LINE",
"77 520 LINE",
"20 520 LINE",
"225 -9 LINE"
);
}
);
width = 493;
},
{
layerId = "AE81D269-4BA9-4AA4-8188-ACE3070EB296";
name = Bold;
paths = (
{
closed = 1;
nodes = (
"397 -5 LINE",
"615 568 LINE",
"440 568 LINE",
"276 55 LINE",
"348 55 LINE",
"184 568 LINE",
"7 568 LINE",
"225 -5 LINE"
);
}
);
width = 622;
}
);
leftKerningGroup = vw;
rightKerningGroup = vw;
unicode = 0076;
userData = {
com.typemytype.robofont.guides = (
);
com.typemytype.robofont.layerData = {
background = {
anchors = (
);
components = (
);
contours = (
{
points = (
{
segmentType = line;
smooth = 0;
x = 450;
y = 477;
},
{
segmentType = line;
smooth = 0;
x = 495;
y = 493;
},
{
segmentType = line;
smooth = 0;
x = 495;
y = 520;
},
{
segmentType = line;
smooth = 0;
x = 315;
y = 520;
},
{
segmentType = line;
smooth = 0;
x = 315;
y = 490;
},
{
segmentType = line;
smooth = 0;
x = 395;
y = 467;
},
{
segmentType = line;
smooth = 0;
x = 262;
y = 123;
},
{
segmentType = line;
smooth = 0;
x = 260;
y = 123;
},
{
segmentType = line;
smooth = 0;
x = 123;
y = 477;
},
{
segmentType = line;
smooth = 0;
x = 210;
y = 493;
},
{
segmentType = line;
smooth = 0;
x = 210;
y = 520;
},
{
segmentType = line;
smooth = 0;
x = "-46";
y = 520;
},
{
segmentType = line;
smooth = 0;
x = "-46";
y = 490;
},
{
segmentType = line;
smooth = 0;
x = 14;
y = 467;
},
{
segmentType = line;
smooth = 0;
x = 209;
y = "-17";
},
{
segmentType = line;
smooth = 0;
x = 257;
y = "-17";
}
);
}
);
lib = {
};
name = v;
unicodes = (
);
width = 493;
};
layer_01 = {
anchors = (
);
components = (
);
contours = (
);
lib = {
};
name = v;
unicodes = (
);
width = 493;
};
layer_02 = {
anchors = (
);
components = (
);
contours = (
);
lib = {
};
name = v;
unicodes = (
);
width = 493;
};
};
};
},
{
glyphname = w;
lastChange = "2015-03-04 20:31:46 +0000";
layers = (
{
anchors = (
{
name = top;
position = "{388, 580}";
}
);
layerId = "E777F328-EA17-4AE7-9EBA-8002E537BA4F";
name = Light;
paths = (
{
closed = 1;
nodes = (
"229 -9 LINE",
"395 448 LINE",
"381 448 LINE",
"548 -9 LINE",
"592 -9 LINE",
"756 520 LINE",
"701 520 LINE",
"565 56 LINE",
"580 56 LINE",
"410 520 LINE",
"368 520 LINE",
"201 56 LINE",
"216 56 LINE",
"77 520 LINE",
"20 520 LINE",
"185 -9 LINE"
);
}
);
width = 776;
},
{
anchors = (
{
name = top;
position = "{447, 620}";
}
);
guideLines = (
{
angle = 90;
position = "{447, 428}";
}
);
layerId = "AE81D269-4BA9-4AA4-8188-ACE3070EB296";
name = Bold;
paths = (
{
closed = 1;
nodes = (
"359 -5 LINE",
"474 504 LINE",
"420 504 LINE",
"534 -5 LINE",
"704 -5 LINE",
"883 568 LINE",
"708 568 LINE",
"601 90 LINE",
"639 90 LINE",
"532 568 LINE",
"363 568 LINE",
"252 90 LINE",
"290 90 LINE",
"187 568 LINE",
"10 568 LINE",
"189 -5 LINE"
);
}
);
width = 893;
}
);
leftKerningGroup = vw;
rightKerningGroup = vw;
unicode = 0077;
userData = {
com.typemytype.robofont.layerData = {
background = {
anchors = (
);
components = (
);
contours = (
{
points = (
{
segmentType = line;
smooth = 0;
x = 748;
y = 477;
},
{
segmentType = line;
smooth = 0;
x = 793;
y = 493;
},
{
segmentType = line;
smooth = 0;
x = 793;
y = 520;
},
{
segmentType = line;
smooth = 0;
x = 589;
y = 520;
},
{
segmentType = line;
smooth = 0;
x = 589;
y = 490;
},
{
segmentType = line;
smooth = 0;
x = 681;
y = 459;
},
{
segmentType = line;
smooth = 0;
x = 565;
y = 123;
},
{
segmentType = line;
smooth = 0;
x = 563;
y = 123;
},
{
segmentType = line;
smooth = 0;
x = 395;
y = 520;
},
{
segmentType = line;
smooth = 0;
x = 372;
y = 520;
},
{
smooth = 0;
x = 346;
y = 451;
},
{
smooth = 0;
x = 214;
y = 123;
},
{
segmentType = curve;
smooth = 0;
x = 214;
y = 123;
},
{
segmentType = line;
smooth = 0;
x = 212;
y = 123;
},
{
segmentType = line;
smooth = 0;
x = 113;
y = 477;
},
{
segmentType = line;
smooth = 0;
x = 200;
y = 493;
},
{
segmentType = line;
smooth = 0;
x = 200;
y = 520;
},
{
segmentType = line;
smooth = 0;
x = "-56";
y = 520;
},
{
segmentType = line;
smooth = 0;
x = "-56";
y = 490;
},
{
segmentType = line;
smooth = 0;
x = 4;
y = 467;
},
{
segmentType = line;
smooth = 0;
x = 152;
y = "-17";
},
{
segmentType = line;
smooth = 0;
x = 209;
y = "-17";
},
{
segmentType = line;
smooth = 0;
x = 356;
y = 349;
},
{
segmentType = line;
smooth = 0;
x = 512;
y = "-17";
},
{
segmentType = line;
smooth = 0;
x = 565;
y = "-17";
}
);
}
);
lib = {
};
name = w;
unicodes = (
);
width = 776;
};
layer_01 = {
anchors = (
);
components = (
);
contours = (
);
lib = {
};
name = w;
unicodes = (
);
width = 776;
};
layer_02 = {
anchors = (
);
components = (
);
contours = (
);
lib = {
};
name = w;
unicodes = (
);
width = 776;
};
};
};
},
{
glyphname = x;
lastChange = "2015-03-04 20:31:46 +0000";
layers = (
{
layerId = "E777F328-EA17-4AE7-9EBA-8002E537BA4F";
name = Light;
paths = (
{
closed = 1;
nodes = (
"510 0 LINE",
"296 291 LINE",
"277 304 LINE",
"118 520 LINE",
"50 520 LINE",
"241 259 LINE",
"263 243 LINE",
"441 0 LINE"
);
},
{
closed = 1;
nodes = (
"97 0 LINE",
"275 243 LINE",
"299 259 LINE",
"490 520 LINE",
"424 520 LINE",
"265 304 LINE",
"244 291 LINE",
"30 0 LINE"
);
}
);
width = 540;
},
{
layerId = "AE81D269-4BA9-4AA4-8188-ACE3070EB296";
name = Bold;
paths = (
{
closed = 1;
nodes = (
"625 0 LINE",
"393 315 LINE",
"353 328 LINE",
"208 568 LINE",
"20 568 LINE",
"226 283 LINE",
"263 267 LINE",
"436 0 LINE"
);
},
{
closed = 1;
nodes = (
"192 0 LINE",
"364 267 LINE",
"397 283 LINE",
"606 568 LINE",
"420 568 LINE",
"276 328 LINE",
"235 315 LINE",
"5 0 LINE"
);
}
);
width = 630;
}
);
leftKerningGroup = x;
rightKerningGroup = x;
unicode = 0078;
userData = {
com.typemytype.robofont.layerData = {
background = {
anchors = (
);
components = (
);
contours = (
);
lib = {
};
name = x;
unicodes = (
);
width = 540;
};
layer_01 = {
anchors = (
);
components = (
);
contours = (
);
lib = {
};
name = x;
unicodes = (
);
width = 540;
};
layer_02 = {
anchors = (
);
components = (
);
contours = (
);
lib = {
};
name = x;
unicodes = (
);
width = 540;
};
};
};
},
{
glyphname = y;
lastChange = "2015-03-04 20:31:46 +0000";
layers = (
{
anchors = (
{
name = top;
position = "{257, 580}";
}
);
layerId = "E777F328-EA17-4AE7-9EBA-8002E537BA4F";
name = Light;
paths = (
{
closed = 1;
nodes = (
"157 -245 OFFCURVE",
"211 -194 OFFCURVE",
"257 -74 CURVE SMOOTH",
"485 520 LINE",
"430 520 LINE",
"212 -51 LINE SMOOTH",
"167 -168 OFFCURVE",
"129 -195 OFFCURVE",
"68 -195 CURVE SMOOTH",
"53 -195 OFFCURVE",
"42 -193 OFFCURVE",
"31 -190 CURVE",
"20 -237 LINE",
"35 -242 OFFCURVE",
"52 -245 OFFCURVE",
"68 -245 CURVE SMOOTH"
);
},
{
closed = 1;
nodes = (
"266 63 LINE",
"89 520 LINE",
"32 520 LINE",
"237 -9 LINE"
);
}
);
width = 505;
},
{
anchors = (
{
name = top;
position = "{327, 620}";
}
);
layerId = "AE81D269-4BA9-4AA4-8188-ACE3070EB296";
name = Bold;
paths = (
{
closed = 1;
nodes = (
"250 -255 OFFCURVE",
"340 -208 OFFCURVE",
"387 -74 CURVE SMOOTH",
"628 568 LINE",
"453 568 LINE",
"277 6 LINE SMOOTH",
"241 -87 OFFCURVE",
"191 -125 OFFCURVE",
"118 -125 CURVE SMOOTH",
"92 -125 OFFCURVE",
"59 -119 OFFCURVE",
"21 -107 CURVE",
"10 -234 LINE",
"46 -248 OFFCURVE",
"98 -255 OFFCURVE",
"138 -255 CURVE SMOOTH"
);
},
{
closed = 1;
nodes = (
"341 125 LINE",
"195 568 LINE",
"18 568 LINE",
"268 -78 LINE"
);
}
);
width = 634;
}
);
leftKerningGroup = y;
rightKerningGroup = vw;
unicode = 0079;
userData = {
com.typemytype.robofont.layerData = {
background = {
anchors = (
);
components = (
);
contours = (
{
points = (
{
segmentType = line;
smooth = 0;
x = 471;
y = 477;
},
{
segmentType = line;
smooth = 0;
x = 516;
y = 493;
},
{
segmentType = line;
smooth = 0;
x = 516;
y = 520;
},
{
segmentType = line;
smooth = 0;
x = 336;
y = 520;
},
{
segmentType = line;
smooth = 0;
x = 336;
y = 490;
},
{
segmentType = line;
smooth = 0;
x = 416;
y = 467;
},
{
segmentType = line;
smooth = 0;
x = 283;
y = 123;
},
{
segmentType = line;
smooth = 0;
x = 281;
y = 123;
},
{
segmentType = line;
smooth = 0;
x = 144;
y = 477;
},
{
segmentType = line;
smooth = 0;
x = 231;
y = 493;
},
{
segmentType = line;
smooth = 0;
x = 231;
y = 520;
},
{
segmentType = line;
smooth = 0;
x = "-25";
y = 520;
},
{
segmentType = line;
smooth = 0;
x = "-25";
y = 490;
},
{
segmentType = line;
smooth = 0;
x = 35;
y = 467;
},
{
segmentType = line;
smooth = 0;
x = 230;
y = "-17";
},
{
segmentType = line;
smooth = 0;
x = 278;
y = "-17";
}
);
}
);
lib = {
};
name = y;
unicodes = (
);
width = 505;
};
layer_01 = {
anchors = (
);
components = (
);
contours = (
);
lib = {
};
name = y;
unicodes = (
);
width = 505;
};
layer_02 = {
anchors = (
);
components = (
);
contours = (
);
lib = {
};
name = y;
unicodes = (
);
width = 505;
};
};
};
},
